<svg xmlns="http://www.w3.org/2000/svg">
<symbol id="icon-arrow-back" viewBox="0 0 16 16"> <g> <g> <path d="M16,7 L3.8,7 L9.4,1.4 L8,0 L0,8 L8,16 L9.4,14.6 L3.8,9 L16,9 L16,7 L16,7 Z"/> </g> </g> </symbol>
<symbol id="icon-home" viewBox="0 0 20 18"> <g> <g transform="translate(0.000000, 0.500000)"> <path d="M8,17 L8,11 L12,11 L12,17 L17,17 L17,9 L20,9 L10,0 L0,9 L3,9 L3,17 L8,17 Z"/> </g> </g> </symbol>
<symbol id="icon-close" viewBox="0 0 24 24"> <path d="M19 6.41L17.59 5 12 10.59 6.41 5 5 6.41 10.59 12 5 17.59 6.41 19 12 13.41 17.59 19 19 17.59 13.41 12z"/> <path d="M0 0h24v24H0z"/> </symbol>
<symbol id="icon-help-outline" viewBox="0 0 24 24"> <path d="M0 0h24v24H0z"/> <path d="M11 18h2v-2h-2v2zm1-16C6.48 2 2 6.48 2 12s4.48 10 10 10 10-4.48 10-10S17.52 2 12 2zm0 18c-4.41 0-8-3.59-8-8s3.59-8 8-8 8 3.59 8 8-3.59 8-8 8zm0-14c-2.21 0-4 1.79-4 4h2c0-1.1.9-2 2-2s2 .9 2 2c0 2-3 1.75-3 5h2c0-2.25 3-2.5 3-5 0-2.21-1.79-4-4-4z"/> </symbol>
<symbol id="icon-info-outline" viewBox="0 0 24 24"> <path d="M0 0h24v24H0z"/> <path d="M11 17h2v-6h-2v6zm1-15C6.48 2 2 6.48 2 12s4.48 10 10 10 10-4.48 10-10S17.52 2 12 2zm0 18c-4.41 0-8-3.59-8-8s3.59-8 8-8 8 3.59 8 8-3.59 8-8 8zM11 9h2V7h-2v2z"/> </symbol>
<symbol id="icon-search" viewBox="0 0 24 24"> <path d="M15.5 14h-.79l-.28-.27C15.41 12.59 16 11.11 16 9.5 16 5.91 13.09 3 9.5 3S3 5.91 3 9.5 5.91 16 9.5 16c1.61 0 3.09-.59 4.23-1.57l.27.28v.79l5 4.99L20.49 19l-4.99-5zm-6 0C7.01 14 5 11.99 5 9.5S7.01 5 9.5 5 14 7.01 14 9.5 11.99 14 9.5 14z"/> <path d="M0 0h24v24H0z"/> </symbol>
<symbol id="icon-settings" viewBox="0 0 20 20"> <g> <g> <path d="M17.4,11 C17.4,10.7 17.5,10.4 17.5,10 C17.5,9.6 17.5,9.3 17.4,9 L19.5,7.3 C19.7,7.1 19.7,6.9 19.6,6.7 L17.6,3.2 C17.5,3.1 17.3,3 17,3.1 L14.5,4.1 C14,3.7 13.4,3.4 12.8,3.1 L12.4,0.5 C12.5,0.2 12.2,0 12,0 L8,0 C7.8,0 7.5,0.2 7.5,0.4 L7.1,3.1 C6.5,3.3 6,3.7 5.4,4.1 L3,3.1 C2.7,3 2.5,3.1 2.3,3.3 L0.3,6.8 C0.2,6.9 0.3,7.2 0.5,7.4 L2.6,9 C2.6,9.3 2.5,9.6 2.5,10 C2.5,10.4 2.5,10.7 2.6,11 L0.5,12.7 C0.3,12.9 0.3,13.1 0.4,13.3 L2.4,16.8 C2.5,16.9 2.7,17 3,16.9 L5.5,15.9 C6,16.3 6.6,16.6 7.2,16.9 L7.6,19.5 C7.6,19.7 7.8,19.9 8.1,19.9 L12.1,19.9 C12.3,19.9 12.6,19.7 12.6,19.5 L13,16.9 C13.6,16.6 14.2,16.3 14.7,15.9 L17.2,16.9 C17.4,17 17.7,16.9 17.8,16.7 L19.8,13.2 C19.9,13 19.9,12.7 19.7,12.6 L17.4,11 L17.4,11 Z M10,13.5 C8.1,13.5 6.5,11.9 6.5,10 C6.5,8.1 8.1,6.5 10,6.5 C11.9,6.5 13.5,8.1 13.5,10 C13.5,11.9 11.9,13.5 10,13.5 L10,13.5 Z"/> </g> </g> </symbol>
</svg>