<?xml version="1.0" encoding="UTF-8" standalone="no"?><!DOCTYPE svg PUBLIC "-//W3C//DTD SVG 1.1//EN" "http://www.w3.org/Graphics/SVG/1.1/DTD/svg11.dtd"><svg width="100%" height="100%" viewBox="0 0 100 100" version="1.1" xmlns="http://www.w3.org/2000/svg" xmlns:xlink="http://www.w3.org/1999/xlink" xml:space="preserve" xmlns:serif="http://www.serif.com/" style="fill-rule:evenodd;clip-rule:evenodd;stroke-linejoin:round;stroke-miterlimit:1.41421;"><rect id="consonants" x="-100" y="-200" width="500" height="900" style="fill:none;"/><path d="M73.232,69.536l-5.28,0c-1.472,-3.136 -4.096,-5.632 -7.872,-7.488c0.128,0.896 0.192,1.44 0.192,1.632c0,2.048 -0.72,3.664 -2.16,4.848c-1.44,1.184 -3.088,1.776 -4.944,1.776c-1.984,0 -3.696,-0.704 -5.136,-2.112c-1.44,-1.408 -2.16,-3.136 -2.16,-5.184c0,-2.944 1.28,-5.152 3.84,-6.624l0,-12.288c0,-2.496 -0.784,-4.528 -2.352,-6.096c-1.568,-1.568 -3.504,-2.352 -5.808,-2.352c-3.904,0 -6.688,1.6 -8.352,4.8c2.944,0.576 5.056,2.016 6.336,4.32c-3.264,1.792 -4.896,4.096 -4.896,6.912l0,4.128c2.048,0 3.776,0.704 5.184,2.112c1.408,1.408 2.112,3.136 2.112,5.184c0,1.984 -0.704,3.68 -2.112,5.088c-1.408,1.408 -3.136,2.112 -5.184,2.112c-1.984,0 -3.68,-0.704 -5.088,-2.112c-1.408,-1.408 -2.112,-3.104 -2.112,-5.088c0,-1.664 0.416,-3.04 1.248,-4.128l0,-7.68c0,-2.688 1.312,-4.8 3.936,-6.336c-1.6,-1.088 -3.552,-1.472 -5.856,-1.152c0.128,-3.968 1.6,-7.232 4.416,-9.792c2.624,-2.368 5.984,-3.552 10.08,-3.552c4.288,0 7.76,1.216 10.416,3.648c2.656,2.432 3.984,5.792 3.984,10.08l0,11.712c5.056,1.6 8.928,3.84 11.616,6.72l0,-31.392l5.952,0l0,38.304Zm-35.424,-6.432c0,-0.896 -0.32,-1.664 -0.96,-2.304c-0.64,-0.64 -1.408,-0.96 -2.304,-0.96c-0.896,0 -1.664,0.32 -2.304,0.96c-0.64,0.64 -0.96,1.408 -0.96,2.304c0,0.896 0.32,1.664 0.96,2.304c0.64,0.64 1.408,0.96 2.304,0.96c0.896,0 1.664,-0.32 2.304,-0.96c0.64,-0.64 0.96,-1.408 0.96,-2.304Zm18.624,0c0,-0.896 -0.32,-1.664 -0.96,-2.304c-0.64,-0.64 -1.408,-0.96 -2.304,-0.96c-0.896,0 -1.664,0.32 -2.304,0.96c-0.64,0.64 -0.96,1.408 -0.96,2.304c0,0.896 0.32,1.664 0.96,2.304c0.64,0.64 1.408,0.96 2.304,0.96c0.896,0 1.664,-0.32 2.304,-0.96c0.64,-0.64 0.96,-1.408 0.96,-2.304Z" style="fill-rule:nonzero;"/></svg>