<?xml version="1.0" encoding="UTF-8" standalone="no"?><!DOCTYPE svg PUBLIC "-//W3C//DTD SVG 1.1//EN" "http://www.w3.org/Graphics/SVG/1.1/DTD/svg11.dtd"><svg width="100%" height="100%" viewBox="0 0 100 100" version="1.1" xmlns="http://www.w3.org/2000/svg" xmlns:xlink="http://www.w3.org/1999/xlink" xml:space="preserve" xmlns:serif="http://www.serif.com/" style="fill-rule:evenodd;clip-rule:evenodd;stroke-linejoin:round;stroke-miterlimit:1.41421;"><rect id="consonants" x="-400" y="-100" width="500" height="900" style="fill:none;"/><path d="M66.032,60.512c0,3.136 -0.976,5.552 -2.928,7.248c-1.952,1.696 -4.528,2.544 -7.728,2.544c-3.2,0 -5.776,-0.848 -7.728,-2.544c-1.952,-1.696 -2.928,-4.112 -2.928,-7.248l0,-6.24c0,-1.856 0.848,-4.336 2.544,-7.44c1.696,-3.104 2.544,-5.552 2.544,-7.344c0,-1.472 -0.512,-2.688 -1.536,-3.648c-1.024,-0.96 -2.208,-1.44 -3.552,-1.44c-2.048,0 -3.424,0.416 -4.128,1.248c1.92,0.064 3.472,0.672 4.656,1.824c1.184,1.152 1.776,2.624 1.776,4.416c0,1.92 -0.672,3.536 -2.016,4.848c-1.344,1.312 -2.944,1.968 -4.8,1.968c-2.176,0 -3.92,-0.784 -5.232,-2.352c-1.312,-1.568 -1.968,-3.472 -1.968,-5.712c0,-2.944 1.168,-5.376 3.504,-7.296c2.336,-1.92 5.04,-2.88 8.112,-2.88c3.2,0 5.808,0.768 7.824,2.304c2.016,1.536 3.024,3.776 3.024,6.72c0,1.92 -0.8,4.608 -2.4,8.064c-1.6,3.456 -2.4,5.888 -2.4,7.296l0,7.008c0,1.088 0.496,1.92 1.488,2.496c0.992,0.576 2.064,0.864 3.216,0.864c1.216,0 2.304,-0.304 3.264,-0.912c0.96,-0.608 1.44,-1.424 1.44,-2.448l0,-15.84c0,-2.368 -0.928,-3.84 -2.784,-4.416c0.256,-1.152 0.288,-2.272 0.096,-3.36c3.264,-1.216 4.896,-4.288 4.896,-9.216l5.952,0c-0.448,4.928 -2.144,8.544 -5.088,10.848c1.92,1.536 2.88,3.552 2.88,6.048l0,14.592Zm-22.848,-18.432c0,-0.832 -0.288,-1.536 -0.864,-2.112c-0.576,-0.576 -1.28,-0.864 -2.112,-0.864c-0.832,0 -1.536,0.288 -2.112,0.864c-0.576,0.576 -0.864,1.28 -0.864,2.112c0,0.832 0.288,1.536 0.864,2.112c0.576,0.576 1.28,0.864 2.112,0.864c0.832,0 1.536,-0.288 2.112,-0.864c0.576,-0.576 0.864,-1.28 0.864,-2.112Z" style="fill-rule:nonzero;"/></svg>