<?xml version="1.0" encoding="UTF-8" standalone="no"?><!DOCTYPE svg PUBLIC "-//W3C//DTD SVG 1.1//EN" "http://www.w3.org/Graphics/SVG/1.1/DTD/svg11.dtd"><svg width="100%" height="100%" viewBox="0 0 100 100" version="1.1" xmlns="http://www.w3.org/2000/svg" xmlns:xlink="http://www.w3.org/1999/xlink" xml:space="preserve" xmlns:serif="http://www.serif.com/" style="fill-rule:evenodd;clip-rule:evenodd;stroke-linejoin:round;stroke-miterlimit:1.41421;"><rect id="consonants" x="-300" y="-100" width="500" height="900" style="fill:none;"/><path d="M67.184,63.008c0,2.048 -0.704,3.776 -2.112,5.184c-1.408,1.408 -3.136,2.112 -5.184,2.112c-1.856,0 -3.488,-0.624 -4.896,-1.872c-1.408,-1.248 -2.176,-2.8 -2.304,-4.656c-2.24,0.832 -4.48,2.752 -6.72,5.76l-5.472,0l0,-7.488c0,-1.792 0.32,-3.008 0.96,-3.648c-0.64,0 -1.088,-0.032 -1.344,-0.096c-3.52,-0.768 -5.28,-2.912 -5.28,-6.432c0,-1.856 0.656,-3.424 1.968,-4.704c1.312,-1.28 2.896,-1.92 4.752,-1.92c1.856,0 3.424,0.64 4.704,1.92c1.28,1.28 1.92,2.848 1.92,4.704c0,0.896 -0.288,2.096 -0.864,3.6c-0.576,1.504 -0.864,2.736 -0.864,3.696l0,4.032c1.024,-1.024 2.944,-2.32 5.76,-3.888c2.816,-1.568 4.8,-2.96 5.952,-4.176c0.96,-1.28 1.44,-2.784 1.44,-4.512l0,-8.832c0,-2.112 -1.024,-3.744 -3.072,-4.896c-1.728,-0.896 -3.84,-1.344 -6.336,-1.344c-2.688,0 -4.96,0.512 -6.816,1.536c-2.24,1.216 -3.456,3.008 -3.648,5.376l-5.76,0c0.96,-8 6.336,-12 16.128,-12c4.224,0 7.712,0.832 10.464,2.496c3.328,2.048 4.992,5.12 4.992,9.216l0,9.12c0,2.432 -0.704,4.224 -2.112,5.376c2.496,1.408 3.744,3.52 3.744,6.336Zm-22.848,-11.136c0,-0.832 -0.272,-1.52 -0.816,-2.064c-0.544,-0.544 -1.232,-0.816 -2.064,-0.816c-0.832,0 -1.52,0.272 -2.064,0.816c-0.544,0.544 -0.816,1.232 -0.816,2.064c0,0.832 0.272,1.52 0.816,2.064c0.544,0.544 1.232,0.816 2.064,0.816c0.832,0 1.52,-0.272 2.064,-0.816c0.544,-0.544 0.816,-1.232 0.816,-2.064Zm18.624,11.232c0,-0.832 -0.288,-1.536 -0.864,-2.112c-0.576,-0.576 -1.28,-0.864 -2.112,-0.864c-0.832,0 -1.536,0.288 -2.112,0.864c-0.576,0.576 -0.864,1.28 -0.864,2.112c0,0.832 0.288,1.536 0.864,2.112c0.576,0.576 1.28,0.864 2.112,0.864c0.832,0 1.536,-0.288 2.112,-0.864c0.576,-0.576 0.864,-1.28 0.864,-2.112Z" style="fill-rule:nonzero;"/></svg>