<?xml version="1.0" encoding="UTF-8" standalone="no"?><!DOCTYPE svg PUBLIC "-//W3C//DTD SVG 1.1//EN" "http://www.w3.org/Graphics/SVG/1.1/DTD/svg11.dtd"><svg width="100%" height="100%" viewBox="0 0 100 100" version="1.1" xmlns="http://www.w3.org/2000/svg" xmlns:xlink="http://www.w3.org/1999/xlink" xml:space="preserve" xmlns:serif="http://www.serif.com/" style="fill-rule:evenodd;clip-rule:evenodd;stroke-linejoin:round;stroke-miterlimit:1.41421;"><rect id="consonants" x="-400" y="-300" width="500" height="900" style="fill:none;"/><path d="M65.552,69.536l-5.952,0l0,-25.728c0,-2.432 -0.912,-4.416 -2.736,-5.952c-1.824,-1.536 -3.984,-2.304 -6.48,-2.304c-2.688,0 -5.024,0.912 -7.008,2.736c-1.984,1.824 -2.976,4.016 -2.976,6.576c0,1.6 0.528,3.872 1.584,6.816c1.056,2.944 1.584,5.152 1.584,6.624c0,0.448 -0.064,1.056 -0.192,1.824c1.856,-3.008 3.936,-5.536 6.24,-7.584c-1.792,-0.128 -3.2,-0.832 -4.224,-2.112c-0.96,-1.088 -1.44,-2.432 -1.44,-4.032c0,-1.664 0.624,-3.12 1.872,-4.368c1.248,-1.248 2.736,-1.872 4.464,-1.872c1.728,0 3.2,0.624 4.416,1.872c1.216,1.248 1.824,2.704 1.824,4.368c0,2.88 -1.408,6.08 -4.224,9.6c-3.904,4.8 -6.112,7.68 -6.624,8.64c-0.96,1.664 -1.44,3.296 -1.44,4.896l-6.048,0c0.064,-2.368 0.096,-4.544 0.096,-6.528c0,-3.456 -0.384,-6.112 -1.152,-7.968c-0.576,-1.664 -1.152,-3.376 -1.728,-5.136c-0.576,-1.76 -0.864,-3.312 -0.864,-4.656c0,-4.352 1.52,-7.904 4.56,-10.656c3.04,-2.752 6.736,-4.128 11.088,-4.128c4.416,0 8.032,1.152 10.848,3.456c3.008,2.496 4.512,5.92 4.512,10.272l0,25.344Zm-12.384,-23.136c0,-0.832 -0.272,-1.52 -0.816,-2.064c-0.544,-0.544 -1.232,-0.816 -2.064,-0.816c-0.832,0 -1.52,0.272 -2.064,0.816c-0.544,0.544 -0.816,1.232 -0.816,2.064c0,0.832 0.272,1.52 0.816,2.064c0.544,0.544 1.232,0.816 2.064,0.816c0.832,0 1.52,-0.272 2.064,-0.816c0.544,-0.544 0.816,-1.232 0.816,-2.064Z" style="fill-rule:nonzero;"/></svg>