<?xml version="1.0" encoding="UTF-8" standalone="no"?><!DOCTYPE svg PUBLIC "-//W3C//DTD SVG 1.1//EN" "http://www.w3.org/Graphics/SVG/1.1/DTD/svg11.dtd"><svg width="100%" height="100%" viewBox="0 0 100 100" version="1.1" xmlns="http://www.w3.org/2000/svg" xmlns:xlink="http://www.w3.org/1999/xlink" xml:space="preserve" xmlns:serif="http://www.serif.com/" style="fill-rule:evenodd;clip-rule:evenodd;stroke-linejoin:round;stroke-miterlimit:1.41421;"><rect id="consonants" x="-300" y="-200" width="500" height="900" style="fill:none;"/><path d="M66.512,91.616l-6.048,0c-0.832,-3.392 -3.776,-6.08 -8.832,-8.064c-0.448,5.632 -2.944,8.448 -7.488,8.448c-2.112,0 -3.92,-0.672 -5.424,-2.016c-1.504,-1.344 -2.256,-3.04 -2.256,-5.088c0,-4.544 3.008,-6.816 9.024,-6.816c0.896,0 1.632,0.032 2.208,0.096c0.32,-1.216 0.672,-2.112 1.056,-2.688c0.64,-1.024 1.632,-1.952 2.976,-2.784l3.936,2.112c-1.984,1.088 -3.168,2.528 -3.552,4.32c3.648,1.28 6.464,2.88 8.448,4.8l0,-39.84c0,-2.56 -0.848,-4.624 -2.544,-6.192c-1.696,-1.568 -3.824,-2.352 -6.384,-2.352c-3.904,0 -6.752,1.632 -8.544,4.896c3.136,0.64 5.28,2.08 6.432,4.32c-1.728,0.96 -2.88,1.76 -3.456,2.4c-0.832,1.024 -1.248,2.4 -1.248,4.128c0,1.408 0.16,3.44 0.48,6.096c0.32,2.656 0.48,4.528 0.48,5.616c0,2.048 -0.688,3.776 -2.064,5.184c-1.376,1.408 -3.056,2.112 -5.04,2.112c-2.048,0 -3.776,-0.704 -5.184,-2.112c-1.408,-1.408 -2.112,-3.136 -2.112,-5.184c0,-1.984 0.704,-3.68 2.112,-5.088c1.408,-1.408 3.072,-2.112 4.992,-2.112c0.768,0 1.248,0.096 1.44,0.288l-0.576,-5.952c0,-2.24 1.088,-3.968 3.264,-5.184c-1.728,-1.088 -3.68,-1.472 -5.856,-1.152c0.064,-3.968 1.536,-7.232 4.416,-9.792c2.752,-2.368 6.208,-3.552 10.368,-3.552c4.48,0 8.096,1.248 10.848,3.744c2.752,2.496 4.128,5.824 4.128,9.984l0,47.424Zm-19.296,-9.12c-0.576,-0.192 -1.344,-0.288 -2.304,-0.288c-2.624,0 -3.968,0.768 -4.032,2.304c-0.064,2.048 0.96,3.072 3.072,3.072c1.216,-0.128 2.08,-0.608 2.592,-1.44c0.512,-0.832 0.736,-2.048 0.672,-3.648Zm-5.28,-19.488c0,-0.896 -0.32,-1.664 -0.96,-2.304c-0.64,-0.64 -1.408,-0.96 -2.304,-0.96c-0.896,0 -1.664,0.32 -2.304,0.96c-0.64,0.64 -0.96,1.408 -0.96,2.304c0,0.896 0.32,1.664 0.96,2.304c0.64,0.64 1.408,0.96 2.304,0.96c0.896,0 1.664,-0.32 2.304,-0.96c0.64,-0.64 0.96,-1.408 0.96,-2.304Z" style="fill-rule:nonzero;"/></svg>