<?xml version="1.0" encoding="UTF-8" standalone="no"?><!DOCTYPE svg PUBLIC "-//W3C//DTD SVG 1.1//EN" "http://www.w3.org/Graphics/SVG/1.1/DTD/svg11.dtd"><svg width="100%" height="100%" viewBox="0 0 100 100" version="1.1" xmlns="http://www.w3.org/2000/svg" xmlns:xlink="http://www.w3.org/1999/xlink" xml:space="preserve" xmlns:serif="http://www.serif.com/" style="fill-rule:evenodd;clip-rule:evenodd;stroke-linejoin:round;stroke-miterlimit:1.41421;"><rect id="consonants" x="0" y="-600" width="500" height="900" style="fill:none;"/><path d="M69.248,69.536l-6.72,0l-9.024,-29.76l-9.312,29.76l-6.432,0l0,-24.672c-0.64,0.128 -1.184,0.192 -1.632,0.192c-2.048,0 -3.776,-0.72 -5.184,-2.16c-1.408,-1.44 -2.112,-3.184 -2.112,-5.232c0,-1.984 0.704,-3.68 2.112,-5.088c1.408,-1.408 3.136,-2.112 5.184,-2.112c2.176,0 3.984,0.736 5.424,2.208c1.44,1.472 2.16,3.328 2.16,5.568l0,14.304c0,1.664 -0.384,5.056 -1.152,10.176c1.408,-5.824 2.208,-8.96 2.4,-9.408l6.72,-20.448l3.648,0l6.72,20.448c0.128,0.384 0.928,3.52 2.4,9.408c-0.768,-5.12 -1.152,-8.512 -1.152,-10.176l0,-36.672l5.952,0l0,53.664Zm-29.856,-31.776c0,-0.896 -0.32,-1.664 -0.96,-2.304c-0.64,-0.64 -1.408,-0.96 -2.304,-0.96c-0.896,0 -1.664,0.32 -2.304,0.96c-0.64,0.64 -0.96,1.408 -0.96,2.304c0,0.896 0.32,1.664 0.96,2.304c0.64,0.64 1.408,0.96 2.304,0.96c0.896,0 1.664,-0.32 2.304,-0.96c0.64,-0.64 0.96,-1.408 0.96,-2.304Z" style="fill-rule:nonzero;"/></svg>