<?xml version="1.0" encoding="UTF-8" standalone="no"?><!DOCTYPE svg PUBLIC "-//W3C//DTD SVG 1.1//EN" "http://www.w3.org/Graphics/SVG/1.1/DTD/svg11.dtd"><svg width="100%" height="100%" viewBox="0 0 100 100" version="1.1" xmlns="http://www.w3.org/2000/svg" xmlns:xlink="http://www.w3.org/1999/xlink" xml:space="preserve" xmlns:serif="http://www.serif.com/" style="fill-rule:evenodd;clip-rule:evenodd;stroke-linejoin:round;stroke-miterlimit:1.41421;"><rect id="consonants" x="-300" y="-500" width="500" height="900" style="fill:none;"/><path d="M65.984,69.536l-5.952,0l-9.6,-15.36l-9.6,15.36l-5.856,0l0,-31.296c0,-2.24 0.752,-4.096 2.256,-5.568c1.504,-1.472 3.312,-2.208 5.424,-2.208c2.048,0 3.776,0.72 5.184,2.16c1.408,1.44 2.112,3.152 2.112,5.136c0,2.048 -0.704,3.776 -2.112,5.184c-1.408,1.408 -3.136,2.112 -5.184,2.112c-0.896,0 -1.472,-0.032 -1.728,-0.096l0,16.416l7.584,-11.808l3.84,0l7.68,11.904l0,-45.6l5.952,0l0,53.664Zm-20.064,-31.776c0,-0.896 -0.32,-1.664 -0.96,-2.304c-0.64,-0.64 -1.408,-0.96 -2.304,-0.96c-0.896,0 -1.664,0.32 -2.304,0.96c-0.64,0.64 -0.96,1.408 -0.96,2.304c0,0.896 0.32,1.664 0.96,2.304c0.64,0.64 1.408,0.96 2.304,0.96c0.896,0 1.664,-0.32 2.304,-0.96c0.64,-0.64 0.96,-1.408 0.96,-2.304Z" style="fill-rule:nonzero;"/></svg>