<?xml version="1.0" encoding="UTF-8" standalone="no"?><!DOCTYPE svg PUBLIC "-//W3C//DTD SVG 1.1//EN" "http://www.w3.org/Graphics/SVG/1.1/DTD/svg11.dtd"><svg width="100%" height="100%" viewBox="0 0 100 100" version="1.1" xmlns="http://www.w3.org/2000/svg" xmlns:xlink="http://www.w3.org/1999/xlink" xml:space="preserve" xmlns:serif="http://www.serif.com/" style="fill-rule:evenodd;clip-rule:evenodd;stroke-linejoin:round;stroke-miterlimit:1.41421;"><rect id="consonants" x="-400" y="-800" width="500" height="900" style="fill:none;"/><path d="M57.392,37.28c-1.92,-1.728 -4.736,-2.592 -8.448,-2.592c-5.12,0 -7.68,0.8 -7.68,2.4c0,1.024 2.368,1.536 7.104,1.536c3.84,0 6.848,-0.448 9.024,-1.344Zm7.2,23.616c0,3.328 -1.504,5.792 -4.512,7.392c-2.432,1.344 -5.568,2.016 -9.408,2.016c-3.84,0 -6.944,-0.672 -9.312,-2.016c-2.88,-1.6 -4.32,-4.064 -4.32,-7.392l0,-7.872c0,-2.304 0.64,-4.24 1.92,-5.808c1.28,-1.568 3.104,-2.352 5.472,-2.352c2.048,0 3.776,0.688 5.184,2.064c1.408,1.376 2.112,3.088 2.112,5.136c0,1.984 -0.704,3.68 -2.112,5.088c-1.408,1.408 -3.136,2.112 -5.184,2.112c-0.576,0 -1.056,-0.064 -1.44,-0.192l0,1.152c0,3.328 2.592,4.992 7.776,4.992c5.248,0 7.872,-1.696 7.872,-5.088l0,-19.008c-2.944,0.96 -6.528,1.44 -10.752,1.44c-8.128,0 -12.192,-1.696 -12.192,-5.088c0,-4.736 4.704,-7.104 14.112,-7.104c4.608,0 8.384,1.248 11.328,3.744c0.512,-0.96 0.928,-2.208 1.248,-3.744l5.76,0c-0.768,3.84 -2.08,6.752 -3.936,8.736c0.256,0.832 0.384,1.92 0.384,3.264l0,18.528Zm-16.896,-8.832c0,-0.896 -0.32,-1.664 -0.96,-2.304c-0.64,-0.64 -1.408,-0.96 -2.304,-0.96c-0.896,0 -1.664,0.32 -2.304,0.96c-0.64,0.64 -0.96,1.408 -0.96,2.304c0,0.896 0.32,1.664 0.96,2.304c0.64,0.64 1.408,0.96 2.304,0.96c0.896,0 1.664,-0.32 2.304,-0.96c0.64,-0.64 0.96,-1.408 0.96,-2.304Z" style="fill-rule:nonzero;"/></svg>