<?xml version="1.0" encoding="UTF-8" standalone="no"?><!DOCTYPE svg PUBLIC "-//W3C//DTD SVG 1.1//EN" "http://www.w3.org/Graphics/SVG/1.1/DTD/svg11.dtd"><svg width="100%" height="100%" viewBox="0 0 100 100" version="1.1" xmlns="http://www.w3.org/2000/svg" xmlns:xlink="http://www.w3.org/1999/xlink" xml:space="preserve" xmlns:serif="http://www.serif.com/" style="fill-rule:evenodd;clip-rule:evenodd;stroke-linejoin:round;stroke-miterlimit:1.41421;"><rect id="consonants" x="-100" y="-800" width="500" height="900" style="fill:none;"/><path d="M67.136,69.536l-5.952,0l0,-21.312c0,-1.728 -0.352,-2.592 -1.056,-2.592c-0.512,0 -1.248,0.8 -2.208,2.4l-12.48,21.504l-5.568,0l0,-24.672c-0.64,0.128 -1.184,0.192 -1.632,0.192c-2.048,0 -3.776,-0.72 -5.184,-2.16c-1.408,-1.44 -2.112,-3.184 -2.112,-5.232c0,-1.984 0.704,-3.68 2.112,-5.088c1.408,-1.408 3.136,-2.112 5.184,-2.112c2.176,0 3.984,0.736 5.424,2.208c1.44,1.472 2.16,3.328 2.16,5.568l0,14.304c0,1.664 -0.384,5.056 -1.152,10.176c0.64,-2.752 1.6,-5.28 2.88,-7.584l5.28,-9.12c1.152,-1.92 2.176,-3.008 3.072,-3.264c-1.28,-1.6 -1.92,-3.264 -1.92,-4.992c0,-2.048 0.704,-3.776 2.112,-5.184c1.408,-1.408 3.136,-2.112 5.184,-2.112c2.048,0 3.776,0.704 5.184,2.112c1.408,1.408 2.112,3.136 2.112,5.184c0,2.112 -0.896,3.968 -2.688,5.568c0.832,1.6 1.248,3.328 1.248,5.184l0,21.024Zm-25.632,-31.776c0,-0.896 -0.32,-1.664 -0.96,-2.304c-0.64,-0.64 -1.408,-0.96 -2.304,-0.96c-0.896,0 -1.664,0.32 -2.304,0.96c-0.64,0.64 -0.96,1.408 -0.96,2.304c0,0.896 0.32,1.664 0.96,2.304c0.64,0.64 1.408,0.96 2.304,0.96c0.896,0 1.664,-0.32 2.304,-0.96c0.64,-0.64 0.96,-1.408 0.96,-2.304Zm23.04,0c0,-0.896 -0.32,-1.664 -0.96,-2.304c-0.64,-0.64 -1.408,-0.96 -2.304,-0.96c-0.896,0 -1.664,0.32 -2.304,0.96c-0.64,0.64 -0.96,1.408 -0.96,2.304c0,0.896 0.32,1.664 0.96,2.304c0.64,0.64 1.408,0.96 2.304,0.96c0.896,0 1.664,-0.32 2.304,-0.96c0.64,-0.64 0.96,-1.408 0.96,-2.304Z" style="fill-rule:nonzero;"/></svg>