<?xml version="1.0" encoding="UTF-8" standalone="no"?><!DOCTYPE svg PUBLIC "-//W3C//DTD SVG 1.1//EN" "http://www.w3.org/Graphics/SVG/1.1/DTD/svg11.dtd"><svg width="100%" height="100%" viewBox="0 0 100 100" version="1.1" xmlns="http://www.w3.org/2000/svg" xmlns:xlink="http://www.w3.org/1999/xlink" xml:space="preserve" xmlns:serif="http://www.serif.com/" style="fill-rule:evenodd;clip-rule:evenodd;stroke-linejoin:round;stroke-miterlimit:1.41421;"><rect id="consonants" x="-200" y="-100" width="500" height="900" style="fill:none;"/><path d="M64.832,62.816c0,2.368 -0.768,4.208 -2.304,5.52c-1.536,1.312 -3.52,1.968 -5.952,1.968c-4.672,0 -7.392,-2.08 -8.16,-6.24l-1.44,-7.584c-0.704,0.256 -1.504,0.384 -2.4,0.384c-1.856,0 -3.456,-0.672 -4.8,-2.016c-1.344,-1.344 -2.016,-2.944 -2.016,-4.8c0,-1.856 0.672,-3.456 2.016,-4.8c1.344,-1.344 2.944,-2.016 4.8,-2.016c1.664,0 3.136,0.528 4.416,1.584c1.28,1.056 2.08,2.384 2.4,3.984l2.688,14.688c0.192,1.152 0.992,1.728 2.4,1.728c1.6,0 2.4,-0.64 2.4,-1.92l0,-21.6c0,-2.112 -0.992,-3.712 -2.976,-4.8c-1.664,-0.896 -3.712,-1.344 -6.144,-1.344c-5.504,0 -8.8,1.568 -9.888,4.704l-5.76,0c0.832,-6.464 5.888,-9.728 15.168,-9.792c4.288,0 7.808,0.8 10.56,2.4c3.328,2.048 4.992,5.12 4.992,9.216l0,20.736Zm-17.28,-12.768c0,-0.832 -0.288,-1.536 -0.864,-2.112c-0.576,-0.576 -1.28,-0.864 -2.112,-0.864c-0.832,0 -1.536,0.288 -2.112,0.864c-0.576,0.576 -0.864,1.28 -0.864,2.112c0,0.832 0.288,1.536 0.864,2.112c0.576,0.576 1.28,0.864 2.112,0.864c0.832,0 1.536,-0.288 2.112,-0.864c0.576,-0.576 0.864,-1.28 0.864,-2.112Z" style="fill-rule:nonzero;"/></svg>