<?xml version="1.0" encoding="UTF-8" standalone="no"?><!DOCTYPE svg PUBLIC "-//W3C//DTD SVG 1.1//EN" "http://www.w3.org/Graphics/SVG/1.1/DTD/svg11.dtd"><svg width="100%" height="100%" viewBox="0 0 100 100" version="1.1" xmlns="http://www.w3.org/2000/svg" xmlns:xlink="http://www.w3.org/1999/xlink" xml:space="preserve" xmlns:serif="http://www.serif.com/" style="fill-rule:evenodd;clip-rule:evenodd;stroke-linejoin:round;stroke-miterlimit:1.41421;"><rect id="consonants" x="-400" y="0" width="500" height="900" style="fill:none;"/><path d="M65.456,69.536l-5.952,0l0,-26.208c0,-3.904 -0.864,-6.464 -2.592,-7.68l-5.952,3.744l-6.624,-3.744c-2.496,1.728 -3.744,4.64 -3.744,8.736c0,1.216 0.176,2.928 0.528,5.136c0.352,2.208 0.56,4.368 0.624,6.48l0,0.864c0,-0.128 0.08,-0.624 0.24,-1.488c0.16,-0.864 0.304,-1.776 0.432,-2.736c0.448,-2.688 1.312,-4.928 2.592,-6.72c1.6,-2.304 3.584,-3.456 5.952,-3.456c1.728,0 3.216,0.608 4.464,1.824c1.248,1.216 1.872,2.688 1.872,4.416c0,1.728 -0.624,3.2 -1.872,4.416c-1.248,1.216 -2.736,1.824 -4.464,1.824c-1.6,0 -3.04,-0.544 -4.32,-1.632c-1.92,5.696 -2.88,11.104 -2.88,16.224l-5.952,0l0,-6.144c0,-3.136 -0.528,-6.576 -1.584,-10.32c-1.056,-3.744 -1.584,-6.544 -1.584,-8.4c0,-3.392 0.848,-6.384 2.544,-8.976c1.696,-2.592 4.144,-4.432 7.344,-5.52l6.432,3.744l6.816,-3.744c5.12,2.112 7.68,5.984 7.68,11.616l0,27.744Zm-11.616,-20.736c0,-0.832 -0.288,-1.536 -0.864,-2.112c-0.576,-0.576 -1.28,-0.864 -2.112,-0.864c-0.832,0 -1.52,0.288 -2.064,0.864c-0.544,0.576 -0.816,1.28 -0.816,2.112c0,0.832 0.272,1.52 0.816,2.064c0.544,0.544 1.232,0.816 2.064,0.816c0.832,0 1.536,-0.272 2.112,-0.816c0.576,-0.544 0.864,-1.232 0.864,-2.064Z" style="fill-rule:nonzero;"/></svg>