<?xml version="1.0" encoding="UTF-8" standalone="no"?><!DOCTYPE svg PUBLIC "-//W3C//DTD SVG 1.1//EN" "http://www.w3.org/Graphics/SVG/1.1/DTD/svg11.dtd"><svg width="100%" height="100%" viewBox="0 0 100 100" version="1.1" xmlns="http://www.w3.org/2000/svg" xmlns:xlink="http://www.w3.org/1999/xlink" xml:space="preserve" xmlns:serif="http://www.serif.com/" style="fill-rule:evenodd;clip-rule:evenodd;stroke-linejoin:round;stroke-miterlimit:1.41421;"><rect id="consonants" x="0" y="-100" width="500" height="900" style="fill:none;"/><path d="M67.856,69.536l-5.472,0c-3.776,-3.904 -7.296,-6.4 -10.56,-7.488l0,0.96c0,2.048 -0.768,3.776 -2.304,5.184c-1.536,1.408 -3.36,2.112 -5.472,2.112c-2.112,0 -3.92,-0.752 -5.424,-2.256c-1.504,-1.504 -2.256,-3.344 -2.256,-5.52c0,-2.112 0.752,-3.92 2.256,-5.424c1.504,-1.504 3.312,-2.256 5.424,-2.256c0.448,0 0.832,0.032 1.152,0.096c0,-1.792 0.992,-4.224 2.976,-7.296c1.856,-2.88 2.784,-5.28 2.784,-7.2c0,-2.496 -1.024,-4.32 -3.072,-5.472l-3.36,3.648l-4.128,-3.744c-0.704,0.32 -1.408,0.992 -2.112,2.016c-0.704,1.024 -1.12,1.952 -1.248,2.784c0.512,-0.192 1.184,-0.288 2.016,-0.288c1.92,0 3.568,0.672 4.944,2.016c1.376,1.344 2.064,2.944 2.064,4.8c0,1.92 -0.688,3.552 -2.064,4.896c-1.376,1.344 -3.024,2.016 -4.944,2.016c-2.24,0 -4.048,-0.832 -5.424,-2.496c-1.376,-1.664 -2.064,-3.872 -2.064,-6.624c0,-3.328 0.928,-6.384 2.784,-9.168c1.856,-2.784 4.128,-4.24 6.816,-4.368l3.168,3.264l3.072,-3.36c5.76,1.408 8.64,4.608 8.64,9.6c0,2.24 -0.896,4.944 -2.688,8.112c-1.792,3.168 -2.688,5.616 -2.688,7.344l0,1.44c3.776,1.344 7.52,3.456 11.232,6.336l0,-31.968l5.952,0l0,38.304Zm-20.64,-6.912c0,-0.896 -0.304,-1.648 -0.912,-2.256c-0.608,-0.608 -1.36,-0.912 -2.256,-0.912c-0.832,0 -1.568,0.304 -2.208,0.912c-0.64,0.608 -0.96,1.36 -0.96,2.256c0,0.832 0.32,1.568 0.96,2.208c0.64,0.64 1.376,0.96 2.208,0.96c0.896,0 1.648,-0.32 2.256,-0.96c0.608,-0.64 0.912,-1.376 0.912,-2.208Zm-5.088,-16.416c0,-0.832 -0.288,-1.536 -0.864,-2.112c-0.576,-0.576 -1.28,-0.864 -2.112,-0.864c-0.832,0 -1.536,0.288 -2.112,0.864c-0.576,0.576 -0.864,1.28 -0.864,2.112c0,0.832 0.288,1.536 0.864,2.112c0.576,0.576 1.28,0.864 2.112,0.864c0.832,0 1.536,-0.288 2.112,-0.864c0.576,-0.576 0.864,-1.28 0.864,-2.112Z" style="fill-rule:nonzero;"/></svg>