<?xml version="1.0" encoding="UTF-8" standalone="no"?><!DOCTYPE svg PUBLIC "-//W3C//DTD SVG 1.1//EN" "http://www.w3.org/Graphics/SVG/1.1/DTD/svg11.dtd"><svg width="100%" height="100%" viewBox="0 0 100 100" version="1.1" xmlns="http://www.w3.org/2000/svg" xmlns:xlink="http://www.w3.org/1999/xlink" xml:space="preserve" xmlns:serif="http://www.serif.com/" style="fill-rule:evenodd;clip-rule:evenodd;stroke-linejoin:round;stroke-miterlimit:1.41421;"><rect id="consonants" x="-300" y="0" width="500" height="900" style="fill:none;"/><path d="M65.456,69.536l-5.952,0l0,-26.208c0,-2.304 -0.992,-4.224 -2.976,-5.76c-1.856,-1.344 -4,-2.016 -6.432,-2.016c-2.88,0 -5.184,0.976 -6.912,2.928c-1.728,1.952 -2.592,4.208 -2.592,6.768c0,0.704 0.144,1.872 0.432,3.504c0.288,1.632 0.432,3.056 0.432,4.272l0,2.688c0,-0.064 0.112,-0.752 0.336,-2.064c0.224,-1.312 0.368,-2.32 0.432,-3.024c0.64,-2.688 1.632,-4.928 2.976,-6.72c1.664,-2.304 3.584,-3.456 5.76,-3.456c1.728,0 3.232,0.608 4.512,1.824c1.28,1.216 1.92,2.688 1.92,4.416c0,1.664 -0.64,3.12 -1.92,4.368c-1.28,1.248 -2.784,1.872 -4.512,1.872c-1.6,0 -3.04,-0.576 -4.32,-1.728c-1.92,5.824 -2.88,11.936 -2.88,18.336l-5.952,0l0,-6.144c0,-3.008 -0.528,-6.288 -1.584,-9.84c-1.056,-3.552 -1.584,-6.352 -1.584,-8.4c0,-4.416 1.6,-8 4.8,-10.752c3.008,-2.624 6.72,-3.936 11.136,-3.936c4.032,0 7.424,1.056 10.176,3.168c3.136,2.432 4.704,5.728 4.704,9.888l0,26.016Zm-11.616,-22.848c0,-0.832 -0.288,-1.536 -0.864,-2.112c-0.576,-0.576 -1.28,-0.864 -2.112,-0.864c-0.832,0 -1.52,0.288 -2.064,0.864c-0.544,0.576 -0.816,1.28 -0.816,2.112c0,0.832 0.272,1.52 0.816,2.064c0.544,0.544 1.232,0.816 2.064,0.816c0.832,0 1.536,-0.272 2.112,-0.816c0.576,-0.544 0.864,-1.232 0.864,-2.064Z" style="fill-rule:nonzero;"/></svg>