<?xml version="1.0" encoding="UTF-8" standalone="no"?><!DOCTYPE svg PUBLIC "-//W3C//DTD SVG 1.1//EN" "http://www.w3.org/Graphics/SVG/1.1/DTD/svg11.dtd"><svg width="100%" height="100%" viewBox="0 0 100 100" version="1.1" xmlns="http://www.w3.org/2000/svg" xmlns:xlink="http://www.w3.org/1999/xlink" xml:space="preserve" xmlns:serif="http://www.serif.com/" style="fill-rule:evenodd;clip-rule:evenodd;stroke-linejoin:round;stroke-miterlimit:1.41421;"><rect id="consonants" x="-200" y="-800" width="500" height="900" style="fill:none;"/><path d="M68.576,69.536l-6.048,0l-9.024,-17.088l-8.928,17.088l-6.144,0l0,-24.672c-0.64,0.128 -1.184,0.192 -1.632,0.192c-2.048,0 -3.776,-0.72 -5.184,-2.16c-1.408,-1.44 -2.112,-3.184 -2.112,-5.232c0,-1.984 0.704,-3.68 2.112,-5.088c1.408,-1.408 3.136,-2.112 5.184,-2.112c2.176,0 3.984,0.736 5.424,2.208c1.44,1.472 2.16,3.328 2.16,5.568l0,15.36c0,1.984 -0.384,5.12 -1.152,9.408c0.576,-1.536 1.28,-3.072 2.112,-4.608l6.048,-10.08l4.224,0l6.048,10.08c0.832,1.536 1.536,3.072 2.112,4.608c-0.768,-4.288 -1.152,-7.424 -1.152,-9.408l0,-8.736c-0.64,0.128 -1.184,0.192 -1.632,0.192c-2.048,0 -3.776,-0.72 -5.184,-2.16c-1.408,-1.44 -2.112,-3.184 -2.112,-5.232c0,-1.984 0.704,-3.68 2.112,-5.088c1.408,-1.408 3.136,-2.112 5.184,-2.112c1.472,0 2.752,0.352 3.84,1.056c1.216,-1.024 1.984,-2.4 2.304,-4.128l5.184,0c-0.448,3.264 -1.952,5.728 -4.512,7.392c0.512,1.024 0.768,2.176 0.768,3.456l0,31.296Zm-4.32,-31.776c0,-0.896 -0.32,-1.664 -0.96,-2.304c-0.64,-0.64 -1.408,-0.96 -2.304,-0.96c-0.896,0 -1.664,0.32 -2.304,0.96c-0.64,0.64 -0.96,1.408 -0.96,2.304c0,0.896 0.32,1.664 0.96,2.304c0.64,0.64 1.408,0.96 2.304,0.96c0.896,0 1.664,-0.32 2.304,-0.96c0.64,-0.64 0.96,-1.408 0.96,-2.304Zm-24.192,0c0,-0.896 -0.32,-1.664 -0.96,-2.304c-0.64,-0.64 -1.408,-0.96 -2.304,-0.96c-0.896,0 -1.664,0.32 -2.304,0.96c-0.64,0.64 -0.96,1.408 -0.96,2.304c0,0.896 0.32,1.664 0.96,2.304c0.64,0.64 1.408,0.96 2.304,0.96c0.896,0 1.664,-0.32 2.304,-0.96c0.64,-0.64 0.96,-1.408 0.96,-2.304Z" style="fill-rule:nonzero;"/></svg>