<?xml version="1.0" encoding="UTF-8" standalone="no"?><!DOCTYPE svg PUBLIC "-//W3C//DTD SVG 1.1//EN" "http://www.w3.org/Graphics/SVG/1.1/DTD/svg11.dtd"><svg width="100%" height="100%" viewBox="0 0 100 100" version="1.1" xmlns="http://www.w3.org/2000/svg" xmlns:xlink="http://www.w3.org/1999/xlink" xml:space="preserve" xmlns:serif="http://www.serif.com/" style="fill-rule:evenodd;clip-rule:evenodd;stroke-linejoin:round;stroke-miterlimit:1.41421;"><rect id="consonants" x="-100" y="-100" width="500" height="900" style="fill:none;"/><path d="M61.376,69.536l-5.856,0l-17.952,-20.256l3.552,-4.128l14.304,16.128l0,-16.512c-0.192,0.064 -0.8,0.096 -1.824,0.096c-1.984,0 -3.664,-0.656 -5.04,-1.968c-1.376,-1.312 -2.064,-2.992 -2.064,-5.04c0,-2.048 0.704,-3.792 2.112,-5.232c1.408,-1.44 3.072,-2.16 4.992,-2.16c2.24,0 4.096,0.72 5.568,2.16c1.472,1.44 2.208,3.312 2.208,5.616l0,31.296Zm-4.512,-31.872c0,-0.896 -0.32,-1.664 -0.96,-2.304c-0.64,-0.64 -1.408,-0.96 -2.304,-0.96c-0.896,0 -1.664,0.32 -2.304,0.96c-0.64,0.64 -0.96,1.408 -0.96,2.304c0,0.896 0.32,1.664 0.96,2.304c0.64,0.64 1.408,0.96 2.304,0.96c0.896,0 1.664,-0.32 2.304,-0.96c0.64,-0.64 0.96,-1.408 0.96,-2.304Z" style="fill-rule:nonzero;"/></svg>