<?xml version="1.0" encoding="UTF-8" standalone="no"?><!DOCTYPE svg PUBLIC "-//W3C//DTD SVG 1.1//EN" "http://www.w3.org/Graphics/SVG/1.1/DTD/svg11.dtd"><svg width="100%" height="100%" viewBox="0 0 100 100" version="1.1" xmlns="http://www.w3.org/2000/svg" xmlns:xlink="http://www.w3.org/1999/xlink" xml:space="preserve" xmlns:serif="http://www.serif.com/" style="fill-rule:evenodd;clip-rule:evenodd;stroke-linejoin:round;stroke-miterlimit:1.41421;"><rect id="consonants" x="-300" y="-300" width="500" height="900" style="fill:none;"/><path d="M75.488,63.008c0,1.984 -0.64,3.696 -1.92,5.136c-1.28,1.44 -2.976,2.16 -5.088,2.16c-1.856,0 -3.488,-0.592 -4.896,-1.776c-1.408,-1.184 -2.272,-2.672 -2.592,-4.464c-1.728,1.152 -3.648,2.976 -5.76,5.472l-6.048,0l0,-25.44c0,-2.496 -0.784,-4.528 -2.352,-6.096c-1.568,-1.568 -3.504,-2.352 -5.808,-2.352c-3.904,0 -6.688,1.6 -8.352,4.8c2.496,0.192 4.608,1.632 6.336,4.32c-3.264,1.792 -4.896,4.096 -4.896,6.912l0,4.512c0.448,-0.256 1.056,-0.384 1.824,-0.384c1.984,0 3.664,0.688 5.04,2.064c1.376,1.376 2.064,3.088 2.064,5.136c0,2.048 -0.704,3.776 -2.112,5.184c-1.408,1.408 -3.136,2.112 -5.184,2.112c-2.112,0 -3.904,-0.736 -5.376,-2.208c-1.472,-1.472 -2.208,-3.328 -2.208,-5.568l0,-11.232c0,-2.688 1.312,-4.8 3.936,-6.336c-1.6,-1.088 -3.552,-1.472 -5.856,-1.152c0.128,-3.968 1.6,-7.232 4.416,-9.792c2.624,-2.368 5.984,-3.552 10.08,-3.552c4.288,0 7.76,1.2 10.416,3.6c2.656,2.4 3.984,5.744 3.984,10.032l0,19.392c0.96,-1.152 2.688,-2.72 5.184,-4.704c3.456,-2.688 5.504,-4.32 6.144,-4.896c0.896,-1.152 1.344,-2.656 1.344,-4.512l0,-18.144l5.952,0l0,20.16c0,2.496 -0.672,4.256 -2.016,5.28c2.496,1.408 3.744,3.52 3.744,6.336Zm-3.936,-0.096c0,-0.896 -0.32,-1.664 -0.96,-2.304c-0.64,-0.64 -1.408,-0.96 -2.304,-0.96c-0.896,0 -1.664,0.32 -2.304,0.96c-0.64,0.64 -0.96,1.408 -0.96,2.304c0,0.896 0.32,1.664 0.96,2.304c0.64,0.64 1.408,0.96 2.304,0.96c0.896,0 1.664,-0.32 2.304,-0.96c0.64,-0.64 0.96,-1.408 0.96,-2.304Zm-32.352,0.192c0,-0.896 -0.32,-1.664 -0.96,-2.304c-0.64,-0.64 -1.408,-0.96 -2.304,-0.96c-0.896,0 -1.664,0.32 -2.304,0.96c-0.64,0.64 -0.96,1.408 -0.96,2.304c0,0.896 0.32,1.664 0.96,2.304c0.64,0.64 1.408,0.96 2.304,0.96c0.896,0 1.664,-0.32 2.304,-0.96c0.64,-0.64 0.96,-1.408 0.96,-2.304Z" style="fill-rule:nonzero;"/></svg>