<?xml version="1.0" encoding="UTF-8" standalone="no"?><!DOCTYPE svg PUBLIC "-//W3C//DTD SVG 1.1//EN" "http://www.w3.org/Graphics/SVG/1.1/DTD/svg11.dtd"><svg width="100%" height="100%" viewBox="0 0 100 100" version="1.1" xmlns="http://www.w3.org/2000/svg" xmlns:xlink="http://www.w3.org/1999/xlink" xml:space="preserve" xmlns:serif="http://www.serif.com/" style="fill-rule:evenodd;clip-rule:evenodd;stroke-linejoin:round;stroke-miterlimit:1.41421;"><rect id="consonants" x="-400" y="-400" width="500" height="900" style="fill:none;"/><path d="M66.896,51.392c0,2.56 -0.672,4.32 -2.016,5.28c2.496,1.408 3.744,3.552 3.744,6.432c0,2.048 -0.704,3.76 -2.112,5.136c-1.408,1.376 -3.104,2.064 -5.088,2.064c-1.856,0 -3.456,-0.592 -4.8,-1.776c-1.344,-1.184 -2.144,-2.672 -2.4,-4.464c-2.048,1.024 -3.52,1.792 -4.416,2.304c-1.536,0.96 -2.752,2.016 -3.648,3.168l-6.048,0l0,-24.672c-0.64,0.128 -1.184,0.192 -1.632,0.192c-2.048,0 -3.776,-0.72 -5.184,-2.16c-1.408,-1.44 -2.112,-3.184 -2.112,-5.232c0,-1.984 0.704,-3.68 2.112,-5.088c1.408,-1.408 3.136,-2.112 5.184,-2.112c2.176,0 3.984,0.736 5.424,2.208c1.44,1.472 2.16,3.328 2.16,5.568l0,24.384c1.024,-0.768 3.328,-1.888 6.912,-3.36c3.2,-1.344 5.408,-2.688 6.624,-4.032c0.896,-0.96 1.344,-2.496 1.344,-4.608l0,-19.392l5.952,0l0,20.16Zm-25.152,-13.632c0,-0.896 -0.32,-1.664 -0.96,-2.304c-0.64,-0.64 -1.408,-0.96 -2.304,-0.96c-0.896,0 -1.664,0.32 -2.304,0.96c-0.64,0.64 -0.96,1.408 -0.96,2.304c0,0.896 0.32,1.664 0.96,2.304c0.64,0.64 1.408,0.96 2.304,0.96c0.896,0 1.664,-0.32 2.304,-0.96c0.64,-0.64 0.96,-1.408 0.96,-2.304Zm22.848,25.344c0,-0.896 -0.32,-1.664 -0.96,-2.304c-0.64,-0.64 -1.408,-0.96 -2.304,-0.96c-0.896,0 -1.664,0.32 -2.304,0.96c-0.64,0.64 -0.96,1.408 -0.96,2.304c0,0.896 0.32,1.664 0.96,2.304c0.64,0.64 1.408,0.96 2.304,0.96c0.896,0 1.664,-0.32 2.304,-0.96c0.64,-0.64 0.96,-1.408 0.96,-2.304Z" style="fill-rule:nonzero;"/></svg>