<?xml version="1.0" encoding="UTF-8" standalone="no"?><!DOCTYPE svg PUBLIC "-//W3C//DTD SVG 1.1//EN" "http://www.w3.org/Graphics/SVG/1.1/DTD/svg11.dtd"><svg width="100%" height="100%" viewBox="0 0 100 100" version="1.1" xmlns="http://www.w3.org/2000/svg" xmlns:xlink="http://www.w3.org/1999/xlink" xml:space="preserve" xmlns:serif="http://www.serif.com/" style="fill-rule:evenodd;clip-rule:evenodd;stroke-linejoin:round;stroke-miterlimit:1.41421;"><rect id="consonants" x="-400" y="-600" width="500" height="900" style="fill:none;"/><path d="M61.232,63.104c0,2.048 -0.72,3.76 -2.16,5.136c-1.44,1.376 -3.184,2.064 -5.232,2.064c-2.048,0 -3.792,-0.704 -5.232,-2.112c-1.44,-1.408 -2.16,-3.136 -2.16,-5.184c0,-2.048 0.72,-3.776 2.16,-5.184c1.44,-1.408 3.184,-2.112 5.232,-2.112c0.768,0 1.248,0.032 1.44,0.096l0,-8.256c0,-1.024 -2.128,-2.032 -6.384,-3.024c-4.256,-0.992 -8.112,-1.776 -11.568,-2.352c0.128,-3.52 1.056,-6.352 2.784,-8.496c1.728,-2.144 4.224,-3.216 7.488,-3.216c1.344,0 3.184,0.304 5.52,0.912c2.336,0.608 4.016,0.912 5.04,0.912c1.088,0 1.696,-0.704 1.824,-2.112l4.704,1.248c-1.152,3.904 -3.264,5.856 -6.336,5.856c-1.152,0 -2.8,-0.288 -4.944,-0.864c-2.144,-0.576 -3.76,-0.864 -4.848,-0.864c-2.816,0 -4.416,1.088 -4.8,3.264c4.928,1.024 9.072,2.112 12.432,3.264c3.36,1.152 5.04,3.136 5.04,5.952l0,15.072Zm-4.128,-0.096c0,-0.896 -0.32,-1.664 -0.96,-2.304c-0.64,-0.64 -1.408,-0.96 -2.304,-0.96c-0.896,0 -1.664,0.32 -2.304,0.96c-0.64,0.64 -0.96,1.408 -0.96,2.304c0,0.896 0.32,1.664 0.96,2.304c0.64,0.64 1.408,0.96 2.304,0.96c0.896,0 1.664,-0.32 2.304,-0.96c0.64,-0.64 0.96,-1.408 0.96,-2.304Z" style="fill-rule:nonzero;"/></svg>