<?xml version="1.0" encoding="UTF-8" standalone="no"?><!DOCTYPE svg PUBLIC "-//W3C//DTD SVG 1.1//EN" "http://www.w3.org/Graphics/SVG/1.1/DTD/svg11.dtd"><svg width="100%" height="100%" viewBox="0 0 100 100" version="1.1" xmlns="http://www.w3.org/2000/svg" xmlns:xlink="http://www.w3.org/1999/xlink" xml:space="preserve" xmlns:serif="http://www.serif.com/" style="fill-rule:evenodd;clip-rule:evenodd;stroke-linejoin:round;stroke-miterlimit:1.41421;"><rect id="consonants" x="0" y="-200" width="500" height="900" style="fill:none;"/><path d="M66.8,60.512c0,3.136 -0.976,5.552 -2.928,7.248c-1.952,1.696 -4.528,2.544 -7.728,2.544c-3.2,0 -5.776,-0.848 -7.728,-2.544c-1.952,-1.696 -2.928,-4.112 -2.928,-7.248l0,-4.32c0,-2.048 1.072,-4.752 3.216,-8.112c2.144,-3.36 3.216,-6 3.216,-7.92c-0.32,-2.432 -1.344,-4.128 -3.072,-5.088l-3.552,3.648l-4.224,-3.84c-0.64,0.384 -1.328,1.072 -2.064,2.064c-0.736,0.992 -1.136,1.872 -1.2,2.64c0.96,-0.192 1.632,-0.288 2.016,-0.288c1.92,0 3.552,0.672 4.896,2.016c1.344,1.344 2.016,2.976 2.016,4.896c0,1.92 -0.656,3.552 -1.968,4.896c-1.312,1.344 -2.96,2.016 -4.944,2.016c-2.24,0 -4.064,-0.928 -5.472,-2.784c-1.408,-1.856 -2.112,-3.872 -2.112,-6.048c0,-3.392 0.912,-6.48 2.736,-9.264c1.824,-2.784 4.176,-4.304 7.056,-4.56l3.168,3.264l2.976,-3.36c5.76,1.28 8.64,4.672 8.64,10.176c0,1.984 -0.896,4.512 -2.688,7.584c-1.792,3.072 -2.688,5.504 -2.688,7.296l0,6.432c0,1.088 0.496,1.92 1.488,2.496c0.992,0.576 2.064,0.864 3.216,0.864c1.216,0 2.304,-0.304 3.264,-0.912c0.96,-0.608 1.44,-1.424 1.44,-2.448l0,-15.84c0,-2.368 -0.928,-3.84 -2.784,-4.416c0.256,-1.152 0.288,-2.272 0.096,-3.36c3.264,-1.216 4.896,-4.288 4.896,-9.216l5.952,0c-0.448,4.928 -2.144,8.544 -5.088,10.848c1.92,1.536 2.88,3.552 2.88,6.048l0,14.592Zm-24,-14.304c0,-0.832 -0.288,-1.536 -0.864,-2.112c-0.576,-0.576 -1.28,-0.864 -2.112,-0.864c-0.832,0 -1.536,0.288 -2.112,0.864c-0.576,0.576 -0.864,1.28 -0.864,2.112c0,0.832 0.288,1.536 0.864,2.112c0.576,0.576 1.28,0.864 2.112,0.864c0.832,0 1.536,-0.288 2.112,-0.864c0.576,-0.576 0.864,-1.28 0.864,-2.112Z" style="fill-rule:nonzero;"/></svg>