<?xml version="1.0" encoding="UTF-8" standalone="no"?><!DOCTYPE svg PUBLIC "-//W3C//DTD SVG 1.1//EN" "http://www.w3.org/Graphics/SVG/1.1/DTD/svg11.dtd"><svg width="100%" height="100%" viewBox="0 0 100 100" version="1.1" xmlns="http://www.w3.org/2000/svg" xmlns:xlink="http://www.w3.org/1999/xlink" xml:space="preserve" xmlns:serif="http://www.serif.com/" style="fill-rule:evenodd;clip-rule:evenodd;stroke-linejoin:round;stroke-miterlimit:1.41421;"><rect id="consonants" x="-400" y="-700" width="500" height="900" style="fill:none;"/><path d="M73.808,46.784c-1.216,2.048 -3.072,3.904 -5.568,5.568l0,8.544c0,6.272 -4.896,9.408 -14.688,9.408c-9.856,0 -14.784,-3.136 -14.784,-9.408l0,-16.032c-0.64,0.128 -1.184,0.192 -1.632,0.192c-2.048,0 -3.776,-0.72 -5.184,-2.16c-1.408,-1.44 -2.112,-3.184 -2.112,-5.232c0,-1.984 0.704,-3.68 2.112,-5.088c1.408,-1.408 3.136,-2.112 5.184,-2.112c2.176,0 3.984,0.736 5.424,2.208c1.44,1.472 2.16,3.328 2.16,5.568l0,22.368c0,1.28 0.752,2.368 2.256,3.264c1.504,0.896 3.664,1.344 6.48,1.344c2.88,0 5.072,-0.448 6.576,-1.344c1.504,-0.896 2.256,-1.984 2.256,-3.264l0,-5.76c-1.472,0.32 -2.816,0.48 -4.032,0.48c-7.808,0 -11.712,-2.656 -11.712,-7.968c0,-1.792 0.592,-3.312 1.776,-4.56c1.184,-1.248 2.768,-1.872 4.752,-1.872c1.856,0 3.36,0.592 4.512,1.776c1.152,1.184 1.728,2.608 1.728,4.272c0,2.048 -0.672,3.552 -2.016,4.512c1.728,-0.128 3.392,-0.448 4.992,-0.96l0,-19.296l5.952,0l0,15.936c1.024,-0.96 1.824,-2.144 2.4,-3.552l3.168,3.168Zm-33.408,-9.024c0,-0.896 -0.32,-1.664 -0.96,-2.304c-0.64,-0.64 -1.408,-0.96 -2.304,-0.96c-0.896,0 -1.664,0.32 -2.304,0.96c-0.64,0.64 -0.96,1.408 -0.96,2.304c0,0.896 0.32,1.664 0.96,2.304c0.64,0.64 1.408,0.96 2.304,0.96c0.896,0 1.664,-0.32 2.304,-0.96c0.64,-0.64 0.96,-1.408 0.96,-2.304Zm15.36,9.312c0,-0.832 -0.272,-1.536 -0.816,-2.112c-0.544,-0.576 -1.232,-0.864 -2.064,-0.864c-0.832,0 -1.52,0.288 -2.064,0.864c-0.544,0.576 -0.816,1.28 -0.816,2.112c0,0.832 0.272,1.536 0.816,2.112c0.544,0.576 1.232,0.864 2.064,0.864c0.832,0 1.52,-0.288 2.064,-0.864c0.544,-0.576 0.816,-1.28 0.816,-2.112Z" style="fill-rule:nonzero;"/></svg>