<?xml version="1.0" encoding="UTF-8" standalone="no"?><!DOCTYPE svg PUBLIC "-//W3C//DTD SVG 1.1//EN" "http://www.w3.org/Graphics/SVG/1.1/DTD/svg11.dtd"><svg width="100%" height="100%" viewBox="0 0 100 100" version="1.1" xmlns="http://www.w3.org/2000/svg" xmlns:xlink="http://www.w3.org/1999/xlink" xml:space="preserve" xmlns:serif="http://www.serif.com/" style="fill-rule:evenodd;clip-rule:evenodd;stroke-linejoin:round;stroke-miterlimit:1.41421;"><rect id="consonants" x="0" y="-800" width="500" height="900" style="fill:none;"/><path d="M65.264,69.536l-5.952,0l0,-16.608c0,-1.92 -1.088,-3.392 -3.264,-4.416c-1.664,-0.768 -3.52,-1.152 -5.568,-1.152c-1.984,0 -3.68,0.48 -5.088,1.44c-1.728,1.152 -2.592,2.688 -2.592,4.608l0,2.4c0.896,-0.128 1.472,-0.192 1.728,-0.192c2.048,0 3.808,0.72 5.28,2.16c1.472,1.44 2.208,3.152 2.208,5.136c0,2.048 -0.768,3.776 -2.304,5.184c-1.536,1.408 -3.296,2.112 -5.28,2.112c-2.112,0 -3.904,-0.688 -5.376,-2.064c-1.472,-1.376 -2.208,-3.12 -2.208,-5.232l0,-8.832c0,-3.776 1.408,-6.72 4.224,-8.832c2.496,-1.856 5.6,-2.784 9.312,-2.784c3.968,0 6.944,1.088 8.928,3.264l0,-4.32c0,-1.984 -1.152,-3.52 -3.456,-4.608c-1.792,-0.832 -3.808,-1.248 -6.048,-1.248c-2.496,0 -4.64,0.576 -6.432,1.728c-1.984,1.28 -3.168,3.008 -3.552,5.184l-5.76,0c0.384,-3.904 2.08,-6.912 5.088,-9.024c2.816,-1.984 6.432,-2.976 10.848,-2.976c2.88,0 5.472,0.512 7.776,1.536c1.344,-1.216 2.016,-2.752 2.016,-4.608l6.72,0c-0.768,3.264 -2.144,5.792 -4.128,7.584c1.92,2.048 2.88,4.416 2.88,7.104l0,27.456Zm-17.472,-6.624c0,-0.896 -0.32,-1.664 -0.96,-2.304c-0.64,-0.64 -1.408,-0.96 -2.304,-0.96c-0.896,0 -1.664,0.32 -2.304,0.96c-0.64,0.64 -0.96,1.408 -0.96,2.304c0,0.896 0.32,1.664 0.96,2.304c0.64,0.64 1.408,0.96 2.304,0.96c0.896,0 1.664,-0.32 2.304,-0.96c0.64,-0.64 0.96,-1.408 0.96,-2.304Z" style="fill-rule:nonzero;"/></svg>