<?xml version="1.0" encoding="UTF-8" standalone="no"?><!DOCTYPE svg PUBLIC "-//W3C//DTD SVG 1.1//EN" "http://www.w3.org/Graphics/SVG/1.1/DTD/svg11.dtd"><svg width="100%" height="100%" viewBox="0 0 100 100" version="1.1" xmlns="http://www.w3.org/2000/svg" xmlns:xlink="http://www.w3.org/1999/xlink" xml:space="preserve" xmlns:serif="http://www.serif.com/" style="fill-rule:evenodd;clip-rule:evenodd;stroke-linejoin:round;stroke-miterlimit:1.41421;"><rect id="consonants" x="-300" y="-400" width="500" height="900" style="fill:none;"/><path d="M62.624,61.376c0,5.952 -4,8.928 -12,8.928c-7.936,0 -11.904,-2.976 -11.904,-8.928l0,-12.576l5.952,0l0,12.96c0,2.304 2.016,3.456 6.048,3.456c3.968,0 5.952,-1.152 5.952,-3.456l0,-12.672c0,-1.472 -2.496,-2.768 -7.488,-3.888c-4.992,-1.12 -9.312,-2.032 -12.96,-2.736c0.384,-4.096 1.376,-7.072 2.976,-8.928c1.856,-2.048 4.768,-3.072 8.736,-3.072c1.408,0 3.392,0.304 5.952,0.912c2.56,0.608 4.352,0.912 5.376,0.912c1.088,0 1.696,-0.704 1.824,-2.112l4.704,1.248c-0.704,2.112 -1.536,3.632 -2.496,4.56c-0.96,0.928 -2.432,1.392 -4.416,1.392c-1.152,0 -2.912,-0.32 -5.28,-0.96c-2.368,-0.64 -4.192,-0.96 -5.472,-0.96c-3.456,0 -5.312,1.056 -5.568,3.168c6.272,1.344 11.184,2.624 14.736,3.84c3.552,1.216 5.328,3.296 5.328,6.24l0,12.672Z" style="fill-rule:nonzero;"/></svg>