<?xml version="1.0" encoding="UTF-8" standalone="no"?><!DOCTYPE svg PUBLIC "-//W3C//DTD SVG 1.1//EN" "http://www.w3.org/Graphics/SVG/1.1/DTD/svg11.dtd"><svg width="100%" height="100%" viewBox="0 0 100 100" version="1.1" xmlns="http://www.w3.org/2000/svg" xmlns:xlink="http://www.w3.org/1999/xlink" xml:space="preserve" xmlns:serif="http://www.serif.com/" style="fill-rule:evenodd;clip-rule:evenodd;stroke-linejoin:round;stroke-miterlimit:1.41421;"><rect id="consonants" x="-100" y="-400" width="500" height="900" style="fill:none;"/><path d="M64.88,69.536l-5.952,0l0,-25.44c0,-2.624 -0.8,-4.704 -2.4,-6.24c-1.6,-1.536 -3.712,-2.304 -6.336,-2.304c-3.84,0 -6.752,1.632 -8.736,4.896c3.008,0.576 5.152,2.016 6.432,4.32c-3.264,1.92 -4.896,4.224 -4.896,6.912l0,4.512c0.448,-0.256 1.056,-0.384 1.824,-0.384c1.984,0 3.664,0.688 5.04,2.064c1.376,1.376 2.064,3.088 2.064,5.136c0,2.048 -0.704,3.776 -2.112,5.184c-1.408,1.408 -3.136,2.112 -5.184,2.112c-2.112,0 -3.904,-0.736 -5.376,-2.208c-1.472,-1.472 -2.208,-3.328 -2.208,-5.568l0,-11.232c0,-2.688 1.312,-4.8 3.936,-6.336c-1.6,-1.088 -3.552,-1.472 -5.856,-1.152c0.128,-3.968 1.664,-7.232 4.608,-9.792c2.688,-2.368 6.112,-3.552 10.272,-3.552c4.608,0 8.24,1.232 10.896,3.696c2.656,2.464 3.984,5.808 3.984,10.032l0,25.344Zm-16.8,-6.432c0,-0.896 -0.32,-1.664 -0.96,-2.304c-0.64,-0.64 -1.408,-0.96 -2.304,-0.96c-0.896,0 -1.664,0.32 -2.304,0.96c-0.64,0.64 -0.96,1.408 -0.96,2.304c0,0.896 0.32,1.664 0.96,2.304c0.64,0.64 1.408,0.96 2.304,0.96c0.896,0 1.664,-0.32 2.304,-0.96c0.64,-0.64 0.96,-1.408 0.96,-2.304Z" style="fill-rule:nonzero;"/></svg>