<?xml version="1.0" encoding="UTF-8" standalone="no"?><!DOCTYPE svg PUBLIC "-//W3C//DTD SVG 1.1//EN" "http://www.w3.org/Graphics/SVG/1.1/DTD/svg11.dtd"><svg width="100%" height="100%" viewBox="0 0 100 100" version="1.1" xmlns="http://www.w3.org/2000/svg" xmlns:xlink="http://www.w3.org/1999/xlink" xml:space="preserve" xmlns:serif="http://www.serif.com/" style="fill-rule:evenodd;clip-rule:evenodd;stroke-linejoin:round;stroke-miterlimit:1.41421;"><rect id="consonants" x="-100" y="-300" width="500" height="900" style="fill:none;"/><path d="M69.728,69.536l-5.952,0l0,-30.816c0,-1.728 -0.512,-2.592 -1.536,-2.592c-0.896,0 -1.504,0.448 -1.824,1.344l-11.232,32.064l-6.72,0l0,-10.272c0,-2.56 0.848,-5.936 2.544,-10.128c1.696,-4.192 2.544,-7.408 2.544,-9.648c0,-2.176 -0.64,-3.68 -1.92,-4.512l-3.552,3.744l-4.032,-3.84c-0.64,0.32 -1.328,0.992 -2.064,2.016c-0.736,1.024 -1.168,1.92 -1.296,2.688c0.448,-0.192 1.152,-0.288 2.112,-0.288c1.92,0 3.552,0.688 4.896,2.064c1.344,1.376 2.016,2.992 2.016,4.848c0,1.92 -0.672,3.552 -2.016,4.896c-1.344,1.344 -2.976,2.016 -4.896,2.016c-2.112,0 -3.888,-0.896 -5.328,-2.688c-1.44,-1.792 -2.16,-3.968 -2.16,-6.528c0,-3.328 0.896,-6.336 2.688,-9.024c1.792,-2.688 4.096,-4.16 6.912,-4.416l3.168,3.264l3.072,-3.36c4.736,1.024 7.104,4.096 7.104,9.216c0,2.048 -0.72,5.008 -2.16,8.88c-1.44,3.872 -2.16,7.056 -2.16,9.552c-0.512,3.072 -0.768,4.896 -0.768,5.472l9.504,-27.264c1.344,-3.84 3.456,-5.76 6.336,-5.76c4.48,0 6.72,2.688 6.72,8.064l0,31.008Zm-29.856,-23.328c0,-0.832 -0.288,-1.536 -0.864,-2.112c-0.576,-0.576 -1.28,-0.864 -2.112,-0.864c-0.832,0 -1.536,0.288 -2.112,0.864c-0.576,0.576 -0.864,1.28 -0.864,2.112c0,0.832 0.288,1.536 0.864,2.112c0.576,0.576 1.28,0.864 2.112,0.864c0.832,0 1.536,-0.288 2.112,-0.864c0.576,-0.576 0.864,-1.28 0.864,-2.112Z" style="fill-rule:nonzero;"/></svg>