<?xml version="1.0" encoding="UTF-8" standalone="no"?><!DOCTYPE svg PUBLIC "-//W3C//DTD SVG 1.1//EN" "http://www.w3.org/Graphics/SVG/1.1/DTD/svg11.dtd"><svg width="100%" height="100%" viewBox="0 0 100 100" version="1.1" xmlns="http://www.w3.org/2000/svg" xmlns:xlink="http://www.w3.org/1999/xlink" xml:space="preserve" xmlns:serif="http://www.serif.com/" style="fill-rule:evenodd;clip-rule:evenodd;stroke-linejoin:round;stroke-miterlimit:1.41421;"><rect id="consonants" x="0" y="-300" width="500" height="900" style="fill:none;"/><path d="M41.408,82.688c-0.832,-0.32 -1.568,-0.48 -2.208,-0.48c-2.432,0 -3.648,0.832 -3.648,2.496c0,1.6 0.832,2.4 2.496,2.4c2.24,0 3.36,-1.472 3.36,-4.416Zm21.888,2.496c0,4.288 -2.144,6.432 -6.432,6.432l-7.872,0l-4.224,-5.76c-0.128,1.536 -0.8,2.848 -2.016,3.936c-1.216,1.088 -2.592,1.632 -4.128,1.632c-2.112,0 -3.776,-0.64 -4.992,-1.92c-1.216,-1.28 -1.824,-2.912 -1.824,-4.896c0,-1.984 0.672,-3.6 2.016,-4.848c1.344,-1.248 3.136,-1.872 5.376,-1.872c1.28,0 2.176,0.16 2.688,0.48c0.192,-2.112 1.344,-3.744 3.456,-4.896l2.976,1.728c-1.92,0.896 -2.88,2.688 -2.88,5.376l4.704,6.336l4.992,0c2.048,0 3.072,-0.544 3.072,-1.632l0,-1.248l-1.152,0c-1.728,0 -3.184,-0.528 -4.368,-1.584c-1.184,-1.056 -1.776,-2.352 -1.776,-3.888c0,-1.472 0.592,-2.752 1.776,-3.84c1.184,-1.088 2.64,-1.632 4.368,-1.632c1.664,0 3.12,0.544 4.368,1.632c1.248,1.088 1.872,2.368 1.872,3.84l0,6.624Zm0,-23.616c0,5.824 -3.04,8.736 -9.12,8.736c-5.888,0 -8.832,-2.752 -8.832,-8.256l0,-3.168c-0.512,0.128 -0.96,0.192 -1.344,0.192c-1.856,0 -3.392,-0.624 -4.608,-1.872c-1.216,-1.248 -1.824,-2.768 -1.824,-4.56c0,-1.856 0.688,-3.392 2.064,-4.608c1.376,-1.216 2.928,-1.824 4.656,-1.824c1.92,0 3.568,0.592 4.944,1.776c1.376,1.184 2.064,2.704 2.064,4.56l0,9.312c0,2.304 0.992,3.456 2.976,3.456c2.048,0 3.072,-1.152 3.072,-3.456l0,-13.824c0,-1.344 -3.008,-2.688 -9.024,-4.032c-5.184,-1.088 -9.152,-1.632 -11.904,-1.632c0.384,-4.096 1.888,-7.2 4.512,-9.312c2.176,-1.728 4.864,-2.592 8.064,-2.592c1.216,0 3.024,0.32 5.424,0.96c2.4,0.64 4.272,0.96 5.616,0.96c0.96,0 1.568,-0.768 1.824,-2.304l4.896,1.248c-1.152,4.416 -3.488,6.624 -7.008,6.624c-1.216,0 -2.992,-0.4 -5.328,-1.2c-2.336,-0.8 -4.144,-1.2 -5.424,-1.2c-0.96,0 -2.064,0.256 -3.312,0.768c-1.248,0.512 -2.064,1.12 -2.448,1.824c7.36,1.216 12.8,2.624 16.32,4.224c2.496,1.152 3.744,2.848 3.744,5.088l0,14.112Zm-16.512,-8.928c0,-0.768 -0.272,-1.424 -0.816,-1.968c-0.544,-0.544 -1.2,-0.816 -1.968,-0.816c-0.768,0 -1.424,0.272 -1.968,0.816c-0.544,0.544 -0.816,1.2 -0.816,1.968c0,0.768 0.272,1.424 0.816,1.968c0.544,0.544 1.2,0.816 1.968,0.816c0.768,0 1.424,-0.272 1.968,-0.816c0.544,-0.544 0.816,-1.2 0.816,-1.968Zm12.288,25.92c0,-0.576 -0.208,-1.056 -0.624,-1.44c-0.416,-0.384 -0.944,-0.576 -1.584,-0.576c-0.64,0 -1.152,0.192 -1.536,0.576c-0.384,0.384 -0.576,0.864 -0.576,1.44c0,0.576 0.192,1.072 0.576,1.488c0.384,0.416 0.896,0.624 1.536,0.624c0.64,0 1.168,-0.208 1.584,-0.624c0.416,-0.416 0.624,-0.912 0.624,-1.488Z" style="fill-rule:nonzero;"/></svg>