<?xml version="1.0" encoding="UTF-8" standalone="no"?><!DOCTYPE svg PUBLIC "-//W3C//DTD SVG 1.1//EN" "http://www.w3.org/Graphics/SVG/1.1/DTD/svg11.dtd"><svg width="100%" height="100%" viewBox="0 0 100 100" version="1.1" xmlns="http://www.w3.org/2000/svg" xmlns:xlink="http://www.w3.org/1999/xlink" xml:space="preserve" xmlns:serif="http://www.serif.com/" style="fill-rule:evenodd;clip-rule:evenodd;stroke-linejoin:round;stroke-miterlimit:1.41421;"><rect id="consonants" x="-200" y="-300" width="500" height="900" style="fill:none;"/><path d="M72.56,69.536l-5.568,0c-1.6,-2.752 -3.616,-4.832 -6.048,-6.24c0,1.984 -0.656,3.648 -1.968,4.992c-1.312,1.344 -3.088,2.016 -5.328,2.016c-2.048,0 -3.744,-0.72 -5.088,-2.16c-1.344,-1.44 -2.016,-3.216 -2.016,-5.328c0,-1.472 0.496,-2.848 1.488,-4.128c0.992,-1.28 2.192,-2.112 3.6,-2.496l0,-11.808c0,-4.352 -0.96,-7.264 -2.88,-8.736l-5.856,4.224l-5.376,-4.224c-2.752,1.408 -4.128,4.544 -4.128,9.408c0,0.96 0.464,3.056 1.392,6.288c0.928,3.232 1.392,5.648 1.392,7.248c0,0.96 -0.16,1.856 -0.48,2.688c1.408,-3.2 3.52,-5.664 6.336,-7.392c-1.728,-0.128 -3.088,-0.8 -4.08,-2.016c-0.992,-1.216 -1.488,-2.592 -1.488,-4.128c0,-1.728 0.608,-3.184 1.824,-4.368c1.216,-1.184 2.688,-1.776 4.416,-1.776c1.664,0 3.12,0.608 4.368,1.824c1.248,1.216 1.872,2.656 1.872,4.32c0,3.136 -1.904,6.832 -5.712,11.088c-3.808,4.256 -5.712,7.824 -5.712,10.704l-6.24,0c0.064,-1.792 0.096,-3.84 0.096,-6.144c0,-3.712 -0.384,-6.528 -1.152,-8.448c-1.792,-4.48 -2.688,-7.744 -2.688,-9.792c0,-3.584 0.88,-6.72 2.64,-9.408c1.76,-2.688 4.304,-4.48 7.632,-5.376l5.088,4.32l4.704,-4.32c6.656,0.96 9.984,5.568 9.984,13.824l0,12.768c1.28,0.384 2.928,1.152 4.944,2.304c2.016,1.152 3.376,2.144 4.08,2.976l0,-31.008l5.952,0l0,38.304Zm-26.88,-21.792c0,-0.832 -0.288,-1.536 -0.864,-2.112c-0.576,-0.576 -1.28,-0.864 -2.112,-0.864c-0.832,0 -1.536,0.288 -2.112,0.864c-0.576,0.576 -0.864,1.28 -0.864,2.112c0,0.832 0.288,1.536 0.864,2.112c0.576,0.576 1.28,0.864 2.112,0.864c0.832,0 1.536,-0.288 2.112,-0.864c0.576,-0.576 0.864,-1.28 0.864,-2.112Zm11.04,15.36c0,-0.896 -0.288,-1.632 -0.864,-2.208c-0.576,-0.576 -1.312,-0.864 -2.208,-0.864c-0.896,0 -1.616,0.288 -2.16,0.864c-0.544,0.576 -0.816,1.312 -0.816,2.208c0,0.896 0.272,1.616 0.816,2.16c0.544,0.544 1.264,0.816 2.16,0.816c0.896,0 1.632,-0.272 2.208,-0.816c0.576,-0.544 0.864,-1.264 0.864,-2.16Z" style="fill-rule:nonzero;"/></svg>