<?xml version="1.0" encoding="UTF-8" standalone="no"?><!DOCTYPE svg PUBLIC "-//W3C//DTD SVG 1.1//EN" "http://www.w3.org/Graphics/SVG/1.1/DTD/svg11.dtd"><svg width="100%" height="100%" viewBox="0 0 100 100" version="1.1" xmlns="http://www.w3.org/2000/svg" xmlns:xlink="http://www.w3.org/1999/xlink" xml:space="preserve" xmlns:serif="http://www.serif.com/" style="fill-rule:evenodd;clip-rule:evenodd;stroke-linejoin:round;stroke-miterlimit:1.41421;"><rect id="consonants" x="-400" y="-200" width="500" height="900" style="fill:none;"/><path d="M42.704,82.688c-0.64,-0.32 -1.536,-0.48 -2.688,-0.48c-2.048,0 -3.072,0.864 -3.072,2.592c0,1.6 0.832,2.4 2.496,2.4c2.176,0 3.264,-1.504 3.264,-4.512Zm-0.768,-19.68c0,-0.896 -0.32,-1.664 -0.96,-2.304c-0.64,-0.64 -1.408,-0.96 -2.304,-0.96c-0.896,0 -1.664,0.32 -2.304,0.96c-0.64,0.64 -0.96,1.408 -0.96,2.304c0,0.896 0.32,1.664 0.96,2.304c0.64,0.64 1.408,0.96 2.304,0.96c0.896,0 1.664,-0.32 2.304,-0.96c0.64,-0.64 0.96,-1.408 0.96,-2.304Zm24.576,28.704l-5.376,0l-4.992,-6.528l-4.704,6.528l-4.416,-6.048c-0.256,1.792 -1.088,3.312 -2.496,4.56c-1.408,1.248 -2.944,1.872 -4.608,1.872c-2.112,0 -3.872,-0.688 -5.28,-2.064c-1.408,-1.376 -2.112,-3.088 -2.112,-5.136c0,-4.736 2.72,-7.104 8.16,-7.104c1.216,0 2.08,0.096 2.592,0.288c0.768,-2.368 2.432,-4.224 4.992,-5.568l3.36,4.032c-2.368,0.64 -3.68,1.952 -3.936,3.936l3.744,4.608l4.608,-5.856l4.512,5.184l0,-40.32c0,-2.56 -0.848,-4.624 -2.544,-6.192c-1.696,-1.568 -3.824,-2.352 -6.384,-2.352c-3.904,0 -6.752,1.632 -8.544,4.896c3.136,0.64 5.28,2.08 6.432,4.32c-1.728,0.96 -2.88,1.76 -3.456,2.4c-0.832,1.024 -1.248,2.4 -1.248,4.128c0,1.408 0.16,3.44 0.48,6.096c0.32,2.656 0.48,4.528 0.48,5.616c0,2.048 -0.688,3.776 -2.064,5.184c-1.376,1.408 -3.056,2.112 -5.04,2.112c-2.048,0 -3.776,-0.704 -5.184,-2.112c-1.408,-1.408 -2.112,-3.136 -2.112,-5.184c0,-1.984 0.704,-3.68 2.112,-5.088c1.408,-1.408 3.072,-2.112 4.992,-2.112c0.768,0 1.248,0.096 1.44,0.288l-0.576,-5.952c0,-2.24 1.088,-3.968 3.264,-5.184c-1.728,-1.088 -3.68,-1.472 -5.856,-1.152c0.064,-3.968 1.536,-7.232 4.416,-9.792c2.752,-2.368 6.208,-3.552 10.368,-3.552c4.48,0 8.096,1.248 10.848,3.744c2.752,2.496 4.128,5.824 4.128,9.984l0,47.52Z" style="fill-rule:nonzero;"/></svg>