<?xml version="1.0" encoding="UTF-8" standalone="no"?><!DOCTYPE svg PUBLIC "-//W3C//DTD SVG 1.1//EN" "http://www.w3.org/Graphics/SVG/1.1/DTD/svg11.dtd"><svg width="100%" height="100%" viewBox="0 0 100 100" version="1.1" xmlns="http://www.w3.org/2000/svg" xmlns:xlink="http://www.w3.org/1999/xlink" xml:space="preserve" xmlns:serif="http://www.serif.com/" style="fill-rule:evenodd;clip-rule:evenodd;stroke-linejoin:round;stroke-miterlimit:1.41421;"><rect id="consonants" x="0" y="-400" width="500" height="900" style="fill:none;"/><path d="M65.552,69.536l-5.952,0l0,-25.152c0,-4.096 -1.12,-7.04 -3.36,-8.832l-5.952,4.32l-5.856,-4.32c-2.688,1.344 -4.032,4.384 -4.032,9.12c0,1.536 0.464,3.808 1.392,6.816c0.928,3.008 1.392,5.248 1.392,6.72c0,1.024 -0.192,2.08 -0.576,3.168c0.384,-0.896 1.312,-2.144 2.784,-3.744c1.472,-1.6 2.88,-2.816 4.224,-3.648c-1.728,-0.128 -3.088,-0.8 -4.08,-2.016c-0.992,-1.216 -1.488,-2.56 -1.488,-4.032c0,-1.728 0.592,-3.2 1.776,-4.416c1.184,-1.216 2.64,-1.824 4.368,-1.824c1.728,0 3.2,0.608 4.416,1.824c1.216,1.216 1.824,2.688 1.824,4.416c0,2.752 -1.44,5.664 -4.32,8.736c-3.84,4.096 -6.08,6.752 -6.72,7.968c-0.96,1.856 -1.44,3.488 -1.44,4.896l-6.048,0c0.128,-2.432 0.192,-4.896 0.192,-7.392c0,-2.56 -0.384,-4.928 -1.152,-7.104c-1.6,-4.608 -2.4,-8.064 -2.4,-10.368c0,-3.52 0.88,-6.56 2.64,-9.12c1.76,-2.56 4.272,-4.288 7.536,-5.184l5.472,4.128l5.088,-4.128c6.848,1.024 10.272,5.632 10.272,13.824l0,25.344Zm-12.48,-21.696c0,-0.832 -0.272,-1.52 -0.816,-2.064c-0.544,-0.544 -1.232,-0.816 -2.064,-0.816c-0.832,0 -1.52,0.272 -2.064,0.816c-0.544,0.544 -0.816,1.232 -0.816,2.064c0,0.832 0.272,1.52 0.816,2.064c0.544,0.544 1.232,0.816 2.064,0.816c0.832,0 1.52,-0.272 2.064,-0.816c0.544,-0.544 0.816,-1.232 0.816,-2.064Z" style="fill-rule:nonzero;"/></svg>