<?xml version="1.0" encoding="UTF-8" standalone="no"?><!DOCTYPE svg PUBLIC "-//W3C//DTD SVG 1.1//EN" "http://www.w3.org/Graphics/SVG/1.1/DTD/svg11.dtd"><svg width="100%" height="100%" viewBox="0 0 100 100" version="1.1" xmlns="http://www.w3.org/2000/svg" xmlns:xlink="http://www.w3.org/1999/xlink" xml:space="preserve" xmlns:serif="http://www.serif.com/" style="fill-rule:evenodd;clip-rule:evenodd;stroke-linejoin:round;stroke-miterlimit:1.41421;"><rect id="consonants" x="-200" y="-700" width="500" height="900" style="fill:none;"/><path d="M64.304,62.528c0,2.24 -0.736,4.08 -2.208,5.52c-1.472,1.44 -3.296,2.16 -5.472,2.16c-2.048,0 -3.776,-0.704 -5.184,-2.112c-1.408,-1.408 -2.112,-3.104 -2.112,-5.088c0,-2.048 0.704,-3.776 2.112,-5.184c1.408,-1.408 3.136,-2.112 5.184,-2.112c0.704,0 1.28,0.032 1.728,0.096l0,-14.112c0,-4.096 -2.944,-6.144 -8.832,-6.144c-2.432,0 -4.496,0.752 -6.192,2.256c-1.696,1.504 -2.544,3.504 -2.544,6l-5.76,0c0.192,-4.224 1.584,-7.504 4.176,-9.84c2.592,-2.336 6.032,-3.504 10.32,-3.504c4.224,0 7.616,0.832 10.176,2.496c3.072,1.984 4.608,5.024 4.608,9.12l0,20.448Zm-4.416,0.384c0,-0.896 -0.32,-1.664 -0.96,-2.304c-0.64,-0.64 -1.408,-0.96 -2.304,-0.96c-0.896,0 -1.664,0.32 -2.304,0.96c-0.64,0.64 -0.96,1.408 -0.96,2.304c0,0.896 0.32,1.664 0.96,2.304c0.64,0.64 1.408,0.96 2.304,0.96c0.896,0 1.664,-0.32 2.304,-0.96c0.64,-0.64 0.96,-1.408 0.96,-2.304Z" style="fill-rule:nonzero;"/></svg>