<?xml version="1.0" encoding="UTF-8" standalone="no"?><!DOCTYPE svg PUBLIC "-//W3C//DTD SVG 1.1//EN" "http://www.w3.org/Graphics/SVG/1.1/DTD/svg11.dtd"><svg width="100%" height="100%" viewBox="0 0 100 100" version="1.1" xmlns="http://www.w3.org/2000/svg" xmlns:xlink="http://www.w3.org/1999/xlink" xml:space="preserve" xmlns:serif="http://www.serif.com/" style="fill-rule:evenodd;clip-rule:evenodd;stroke-linejoin:round;stroke-miterlimit:1.41421;"><rect id="consonants" x="-200" y="-200" width="500" height="900" style="fill:none;"/><path d="M73.808,73.376c0,4.736 -1.056,8.512 -3.168,11.328c-2.368,3.136 -5.984,4.704 -10.848,4.704c-3.136,0 -5.824,-0.8 -8.064,-2.4c-2.56,-1.856 -3.84,-4.288 -3.84,-7.296c0,-1.92 0.656,-3.536 1.968,-4.848c1.312,-1.312 2.928,-1.968 4.848,-1.968c1.856,0 3.408,0.672 4.656,2.016c1.248,1.344 1.872,2.976 1.872,4.896c0,2.496 -0.992,4.096 -2.976,4.8c0.896,0.128 1.504,0.192 1.824,0.192c5.376,0 8.224,-3.808 8.544,-11.424l5.184,0Zm-0.576,-12.864c0,3.2 -1.248,5.696 -3.744,7.488c-2.176,1.536 -4.896,2.304 -8.16,2.304c-3.328,0 -6.016,-0.768 -8.064,-2.304c-2.368,-1.728 -3.552,-4.224 -3.552,-7.488l0,-16.416c0,-2.496 -0.784,-4.528 -2.352,-6.096c-1.568,-1.568 -3.504,-2.352 -5.808,-2.352c-3.904,0 -6.688,1.6 -8.352,4.8c2.752,0.512 4.864,1.952 6.336,4.32c-3.264,1.792 -4.896,4.096 -4.896,6.912l0,4.512c0.448,-0.256 1.056,-0.384 1.824,-0.384c1.984,0 3.664,0.688 5.04,2.064c1.376,1.376 2.064,3.088 2.064,5.136c0,2.048 -0.704,3.776 -2.112,5.184c-1.408,1.408 -3.136,2.112 -5.184,2.112c-2.112,0 -3.904,-0.736 -5.376,-2.208c-1.472,-1.472 -2.208,-3.328 -2.208,-5.568l0,-11.232c0,-2.688 1.312,-4.8 3.936,-6.336c-1.6,-1.088 -3.552,-1.472 -5.856,-1.152c0.128,-3.968 1.6,-7.232 4.416,-9.792c2.624,-2.368 5.984,-3.552 10.08,-3.552c4.288,0 7.76,1.216 10.416,3.648c2.656,2.432 3.984,5.792 3.984,10.08l0,17.184c0,1.344 0.576,2.32 1.728,2.928c1.152,0.608 2.496,0.912 4.032,0.912c1.472,0 2.816,-0.304 4.032,-0.912c1.216,-0.608 1.824,-1.584 1.824,-2.928l0,-30.144l5.952,0l0,29.28Zm-15.552,19.104c0,-0.832 -0.288,-1.536 -0.864,-2.112c-0.576,-0.576 -1.312,-0.864 -2.208,-0.864c-0.896,0 -1.616,0.288 -2.16,0.864c-0.544,0.576 -0.816,1.28 -0.816,2.112c0,0.832 0.272,1.552 0.816,2.16c0.544,0.608 1.264,0.912 2.16,0.912c0.896,0 1.632,-0.304 2.208,-0.912c0.576,-0.608 0.864,-1.328 0.864,-2.16Zm-17.952,-16.512c0,-0.896 -0.32,-1.664 -0.96,-2.304c-0.64,-0.64 -1.408,-0.96 -2.304,-0.96c-0.896,0 -1.664,0.32 -2.304,0.96c-0.64,0.64 -0.96,1.408 -0.96,2.304c0,0.896 0.32,1.664 0.96,2.304c0.64,0.64 1.408,0.96 2.304,0.96c0.896,0 1.664,-0.32 2.304,-0.96c0.64,-0.64 0.96,-1.408 0.96,-2.304Z" style="fill-rule:nonzero;"/></svg>