<?xml version="1.0" encoding="UTF-8" standalone="no"?><!DOCTYPE svg PUBLIC "-//W3C//DTD SVG 1.1//EN" "http://www.w3.org/Graphics/SVG/1.1/DTD/svg11.dtd"><svg width="100%" height="100%" viewBox="0 0 100 100" version="1.1" xmlns="http://www.w3.org/2000/svg" xmlns:xlink="http://www.w3.org/1999/xlink" xml:space="preserve" xmlns:serif="http://www.serif.com/" style="fill-rule:evenodd;clip-rule:evenodd;stroke-linejoin:round;stroke-miterlimit:1.41421;"><rect id="consonants" x="-300" y="-600" width="500" height="900" style="fill:none;"/><path d="M64.64,59.84c0,6.976 -4.736,10.464 -14.208,10.464c-9.408,0 -14.112,-3.488 -14.112,-10.464l0,-4.416c0,-3.072 1.312,-5.248 3.936,-6.528c-2.944,-1.984 -4.416,-4.896 -4.416,-8.736c0,-2.816 0.784,-5.136 2.352,-6.96c1.568,-1.824 3.728,-2.736 6.48,-2.736c1.92,0 3.552,0.592 4.896,1.776c1.344,1.184 2.016,2.736 2.016,4.656c0,1.728 -0.608,3.232 -1.824,4.512c-1.216,1.28 -2.816,1.92 -4.8,1.92c-1.024,0 -1.92,-0.16 -2.688,-0.48c0.512,2.432 1.664,3.648 3.456,3.648l6.816,0l0,4.704l-6.816,0c-1.024,0 -1.856,0.448 -2.496,1.344c-0.64,0.896 -0.96,1.92 -0.96,3.072l0,4.416c0,3.456 2.72,5.184 8.16,5.184c5.504,0 8.256,-1.728 8.256,-5.184l0,-28.8l5.952,0l0,28.608Zm-16.608,-22.848c0,-0.896 -0.288,-1.632 -0.864,-2.208c-0.576,-0.576 -1.312,-0.864 -2.208,-0.864c-0.896,0 -1.632,0.288 -2.208,0.864c-0.576,0.576 -0.864,1.312 -0.864,2.208c0,0.896 0.288,1.632 0.864,2.208c0.576,0.576 1.312,0.864 2.208,0.864c0.896,0 1.632,-0.288 2.208,-0.864c0.576,-0.576 0.864,-1.312 0.864,-2.208Z" style="fill-rule:nonzero;"/></svg>