<?xml version="1.0" encoding="UTF-8" standalone="no"?><!DOCTYPE svg PUBLIC "-//W3C//DTD SVG 1.1//EN" "http://www.w3.org/Graphics/SVG/1.1/DTD/svg11.dtd"><svg width="100%" height="100%" viewBox="0 0 350 290" version="1.1" xmlns="http://www.w3.org/2000/svg" xmlns:xlink="http://www.w3.org/1999/xlink" xml:space="preserve" xmlns:serif="http://www.serif.com/" style="fill-rule:evenodd;clip-rule:evenodd;stroke-miterlimit:1.5;"><rect id="letter-explanation" x="0" y="0" width="350" height="290" style="fill:none;"/><rect x="35" y="50" width="200" height="200" style="fill:#fff;stroke:#ccc;stroke-width:2.5px;"/><path d="M175.221,182.785l-9.039,0c-2.52,-5.368 -7.012,-9.641 -13.476,-12.818c0.22,1.534 0.329,2.465 0.329,2.794c0,3.506 -1.232,6.272 -3.698,8.299c-2.465,2.027 -5.286,3.04 -8.463,3.04c-3.396,0 -6.327,-1.205 -8.792,-3.615c-2.465,-2.411 -3.697,-5.369 -3.697,-8.875c0,-5.039 2.191,-8.819 6.573,-11.339l0,-21.035c0,-4.273 -1.342,-7.751 -4.026,-10.435c-2.684,-2.685 -5.999,-4.027 -9.943,-4.027c-6.683,0 -11.448,2.739 -14.297,8.217c5.04,0.986 8.655,3.451 10.846,7.395c-5.587,3.068 -8.381,7.012 -8.381,11.833l0,7.066c3.506,0 6.464,1.205 8.874,3.615c2.411,2.411 3.616,5.369 3.616,8.875c0,3.396 -1.205,6.299 -3.616,8.71c-2.41,2.41 -5.368,3.615 -8.874,3.615c-3.396,0 -6.299,-1.205 -8.71,-3.615c-2.41,-2.411 -3.615,-5.314 -3.615,-8.71c0,-2.849 0.712,-5.204 2.136,-7.067l0,-13.147c0,-4.601 2.246,-8.217 6.738,-10.846c-2.739,-1.863 -6.08,-2.52 -10.025,-1.972c0.22,-6.793 2.739,-12.38 7.56,-16.762c4.492,-4.054 10.244,-6.081 17.255,-6.081c7.341,0 13.284,2.082 17.831,6.245c4.547,4.163 6.82,9.915 6.82,17.255l0,20.049c8.655,2.739 15.283,6.574 19.885,11.504l0,-53.738l10.189,0l0,65.57Zm-60.641,-11.01c0,-1.534 -0.548,-2.849 -1.643,-3.944c-1.096,-1.096 -2.41,-1.644 -3.944,-1.644c-1.534,0 -2.849,0.548 -3.944,1.644c-1.096,1.095 -1.644,2.41 -1.644,3.944c0,1.533 0.548,2.848 1.644,3.944c1.095,1.095 2.41,1.643 3.944,1.643c1.534,0 2.848,-0.548 3.944,-1.643c1.095,-1.096 1.643,-2.411 1.643,-3.944Zm31.882,0c0,-1.534 -0.548,-2.849 -1.644,-3.944c-1.095,-1.096 -2.41,-1.644 -3.944,-1.644c-1.534,0 -2.848,0.548 -3.944,1.644c-1.096,1.095 -1.643,2.41 -1.643,3.944c0,1.533 0.547,2.848 1.643,3.944c1.096,1.095 2.41,1.643 3.944,1.643c1.534,0 2.849,-0.548 3.944,-1.643c1.096,-1.096 1.644,-2.411 1.644,-3.944Z" style="fill-rule:nonzero;"/><text x="86.803px" y="77.837px" style="font-family:'Helvetica';font-size:23.987px;fill:#333;">cho choe</text><text x="115.071px" y="239.217px" style="font-family:'Helvetica';font-size:23.987px;fill:#999;">tree</text><rect x="129" y="55" width="60" height="30" style="fill:#f20d0d;fill-opacity:0.25;"/><rect x="108.451" y="216" width="55" height="30" style="fill:#f20d0d;fill-opacity:0.25;"/><path d="M225.224,66.89c11.725,-6.429 24.927,-8.703 36.945,-2.014" style="fill:none;stroke:#f20d0d;stroke-width:2.5px;"/><text x="267.599px" y="73.606px" style="font-family:'Helvetica';font-size:23.987px;fill:#fff;">tones:</text><text x="293.595px" y="203.769px" style="font-family:'Helvetica';font-size:23.987px;fill:#fff;">low</text><text x="293.595px" y="155.854px" style="font-family:'Helvetica';font-size:23.987px;fill:#fff;">mid</text><text x="20.661px" y="29.691px" style="font-family:'Helvetica';font-size:23.987px;fill:#fff;">sound</text><text x="142.816px" y="29.691px" style="font-family:'Helvetica';font-size:23.987px;fill:#fff;">word example</text><text x="82.316px" y="276.189px" style="font-family:'Helvetica';font-size:23.987px;fill:#fff;">translation</text><path d="M186.774,88.55c0,0 19.947,34.994 16.641,73.664c-3.306,38.671 -31.315,62.914 -31.315,62.914" style="fill:none;stroke:#f20d0d;stroke-width:2.5px;"/><path d="M86,82l38,0" style="fill:none;stroke:#f20d0d;stroke-width:2.5px;"/><path d="M129,56l60,0" style="fill:none;stroke:#f20d0d;stroke-width:2.5px;"/><path d="M97.405,81.888c-2.467,2.969 -7.067,5.83 -10.827,6.706c-27.939,6.511 -46.002,-27.724 -32.479,-50.21" style="fill:none;stroke:#f20d0d;stroke-width:2.5px;"/><path d="M171.545,212.824l0.464,12.326l12.325,-0.464" style="fill:none;stroke:#f20d0d;stroke-width:2.5px;"/><path d="M157.023,56.652c4.63,-10.486 12.458,-18.591 23.193,-22.746" style="fill:none;stroke:#f20d0d;stroke-width:2.5px;"/><path d="M210.207,55.031l0.206,0.004l0.205,0.006l0.205,0.009l0.204,0.012l0.203,0.014l0.203,0.017l0.202,0.019l0.201,0.022l0.201,0.024l0.199,0.027l0.199,0.029l0.198,0.031l0.198,0.034l0.196,0.037l0.196,0.039l0.195,0.041l0.194,0.043l0.193,0.046l0.192,0.048l0.191,0.051l0.19,0.053l0.189,0.055l0.189,0.057l0.187,0.06l0.186,0.062l0.186,0.064l0.184,0.066l0.183,0.068l0.182,0.071l0.181,0.073l0.18,0.074l0.179,0.077l0.178,0.08l0.177,0.081l0.175,0.083l0.174,0.085l0.173,0.088l0.172,0.089l0.171,0.092l0.169,0.093l0.168,0.095l0.167,0.098l0.166,0.099l0.164,0.101l0.163,0.103l0.162,0.105l0.16,0.107l0.159,0.109l0.158,0.111l0.156,0.112l0.155,0.115l0.153,0.116l0.152,0.118l0.15,0.119l0.149,0.122l0.147,0.123l0.146,0.125l0.145,0.127l0.143,0.128l0.141,0.13l0.14,0.132l0.138,0.133l0.136,0.135l0.135,0.136l0.134,0.139l0.131,0.139l0.13,0.142l0.129,0.142l0.126,0.145l0.125,0.146l0.123,0.147l0.122,0.149l0.12,0.151l0.118,0.151l0.116,0.154l0.114,0.155l0.112,0.156l0.111,0.157l0.109,0.159l0.107,0.16l0.105,0.162l0.103,0.163l0.101,0.164l0.1,0.166l0.097,0.167l0.095,0.168l0.094,0.169l0.091,0.171l0.09,0.172l0.087,0.173l0.085,0.174l0.083,0.176l0.082,0.176l0.079,0.178l0.077,0.179l0.075,0.18l0.072,0.181l0.071,0.182l0.068,0.183l0.067,0.185l0.064,0.185l0.062,0.186l0.059,0.188l0.058,0.188l0.055,0.189l0.052,0.19l0.051,0.192l0.048,0.192l0.046,0.193l0.044,0.194l0.041,0.194l0.038,0.196l0.037,0.197l0.034,0.197l0.032,0.198l0.029,0.199l0.026,0.2l0.025,0.2l0.021,0.201l0.02,0.202l0.016,0.203l0.015,0.203l0.011,0.204l0.009,0.205l0.007,0.206l0.004,0.206l0.001,0.206l-0.001,0.207l-0.004,0.206l-0.007,0.205l-0.009,0.205l-0.011,0.204l-0.015,0.204l-0.016,0.202l-0.02,0.202l-0.021,0.201l-0.025,0.201l-0.026,0.2l-0.029,0.199l-0.032,0.198l-0.034,0.197l-0.037,0.197l-0.038,0.195l-0.041,0.195l-0.044,0.194l-0.046,0.193l-0.048,0.192l-0.051,0.191l-0.052,0.19l-0.055,0.19l-0.058,0.188l-0.059,0.187l-0.062,0.187l-0.064,0.185l-0.067,0.184l-0.068,0.183l-0.071,0.183l-0.072,0.181l-0.075,0.18l-0.077,0.179l-0.079,0.177l-0.082,0.177l-0.083,0.175l-0.085,0.175l-0.087,0.173l-0.09,0.172l-0.091,0.17l-0.094,0.17l-0.095,0.168l-0.097,0.167l-0.1,0.165l-0.101,0.165l-0.103,0.163l-0.105,0.161l-0.107,0.16l-0.109,0.159l-0.111,0.158l-0.112,0.156l-0.114,0.155l-0.116,0.153l-0.118,0.152l-0.12,0.15l-0.122,0.149l-0.123,0.148l-0.125,0.146l-0.126,0.144l-0.129,0.143l-0.13,0.141l-0.131,0.14l-0.134,0.138l-0.135,0.137l-0.136,0.135l-0.138,0.133l-0.14,0.132l-0.141,0.13l-0.143,0.128l-0.145,0.127l-0.146,0.125l-0.147,0.123l-0.149,0.121l-0.15,0.12l-0.152,0.118l-0.153,0.116l-0.155,0.114l-0.156,0.113l-0.158,0.11l-0.159,0.109l-0.16,0.107l-0.162,0.105l-0.163,0.103l-0.164,0.102l-0.166,0.099l-0.167,0.097l-0.168,0.096l-0.169,0.093l-0.171,0.091l-0.172,0.09l-0.173,0.087l-0.174,0.086l-0.175,0.083l-0.177,0.081l-0.178,0.079l-0.179,0.077l-0.18,0.075l-0.181,0.073l-0.182,0.07l-0.183,0.069l-0.184,0.066l-0.186,0.064l-0.186,0.062l-0.187,0.059l-0.189,0.058l-0.189,0.055l-0.19,0.053l-0.191,0.05l-0.192,0.048l-0.193,0.046l-0.194,0.044l-0.195,0.041l-0.196,0.039l-0.196,0.036l-0.198,0.034l-0.198,0.032l-0.199,0.029l-0.199,0.027l-0.201,0.024l-0.201,0.022l-0.202,0.019l-0.203,0.017l-0.203,0.014l-0.204,0.011l-0.205,0.01l-0.205,0.006l-0.206,0.004l-0.207,0.001l-0.207,-0.001l-0.206,-0.004l-0.205,-0.006l-0.205,-0.01l-0.204,-0.011l-0.203,-0.014l-0.203,-0.017l-0.202,-0.019l-0.201,-0.022l-0.201,-0.024l-0.199,-0.027l-0.199,-0.029l-0.198,-0.032l-0.198,-0.034l-0.196,-0.036l-0.196,-0.039l-0.195,-0.041l-0.194,-0.044l-0.193,-0.046l-0.192,-0.048l-0.191,-0.05l-0.19,-0.053l-0.189,-0.055l-0.189,-0.058l-0.187,-0.059l-0.186,-0.062l-0.186,-0.064l-0.184,-0.066l-0.183,-0.069l-0.182,-0.07l-0.181,-0.073l-0.18,-0.075l-0.179,-0.077l-0.178,-0.079l-0.177,-0.081l-0.175,-0.083l-0.174,-0.086l-0.173,-0.087l-0.172,-0.09l-0.171,-0.091l-0.169,-0.093l-0.168,-0.096l-0.167,-0.097l-0.166,-0.099l-0.164,-0.102l-0.163,-0.103l-0.162,-0.105l-0.16,-0.107l-0.159,-0.109l-0.158,-0.11l-0.156,-0.113l-0.155,-0.114l-0.153,-0.116l-0.152,-0.118l-0.15,-0.12l-0.149,-0.121l-0.147,-0.123l-0.146,-0.125l-0.145,-0.127l-0.143,-0.128l-0.141,-0.13l-0.14,-0.132l-0.138,-0.133l-0.136,-0.135l-0.135,-0.137l-0.134,-0.138l-0.131,-0.14l-0.13,-0.141l-0.129,-0.143l-0.126,-0.144l-0.125,-0.146l-0.123,-0.148l-0.122,-0.149l-0.12,-0.15l-0.118,-0.152l-0.116,-0.153l-0.114,-0.155l-0.112,-0.156l-0.111,-0.158l-0.109,-0.159l-0.107,-0.16l-0.105,-0.161l-0.103,-0.163l-0.101,-0.165l-0.1,-0.165l-0.097,-0.167l-0.095,-0.168l-0.094,-0.17l-0.091,-0.17l-0.09,-0.172l-0.087,-0.173l-0.085,-0.175l-0.083,-0.175l-0.082,-0.177l-0.079,-0.177l-0.077,-0.179l-0.075,-0.18l-0.072,-0.181l-0.071,-0.183l-0.068,-0.183l-0.067,-0.184l-0.064,-0.185l-0.062,-0.187l-0.059,-0.187l-0.058,-0.188l-0.055,-0.19l-0.052,-0.19l-0.051,-0.191l-0.048,-0.192l-0.046,-0.193l-0.044,-0.194l-0.041,-0.195l-0.038,-0.195l-0.037,-0.197l-0.034,-0.197l-0.032,-0.198l-0.029,-0.199l-0.026,-0.2l-0.025,-0.201l-0.021,-0.201l-0.02,-0.202l-0.016,-0.202l-0.015,-0.204l-0.011,-0.204l-0.009,-0.205l-0.007,-0.205l-0.004,-0.206l-0.001,-0.207l0.001,-0.206l0.004,-0.206l0.007,-0.206l0.009,-0.205l0.011,-0.204l0.015,-0.203l0.016,-0.203l0.02,-0.202l0.021,-0.201l0.025,-0.2l0.026,-0.2l0.029,-0.199l0.032,-0.198l0.034,-0.197l0.037,-0.197l0.038,-0.196l0.041,-0.194l0.044,-0.194l0.046,-0.193l0.048,-0.192l0.051,-0.192l0.052,-0.19l0.055,-0.189l0.058,-0.188l0.059,-0.188l0.062,-0.186l0.064,-0.185l0.067,-0.185l0.068,-0.183l0.071,-0.182l0.072,-0.181l0.075,-0.18l0.077,-0.179l0.079,-0.178l0.082,-0.176l0.083,-0.176l0.085,-0.174l0.087,-0.173l0.09,-0.172l0.091,-0.171l0.094,-0.169l0.095,-0.168l0.097,-0.167l0.1,-0.166l0.101,-0.164l0.103,-0.163l0.105,-0.162l0.107,-0.16l0.109,-0.159l0.111,-0.157l0.112,-0.156l0.114,-0.155l0.116,-0.154l0.118,-0.151l0.12,-0.151l0.122,-0.149l0.123,-0.147l0.125,-0.146l0.126,-0.145l0.129,-0.142l0.13,-0.142l0.131,-0.139l0.134,-0.139l0.135,-0.136l0.136,-0.135l0.138,-0.133l0.14,-0.132l0.141,-0.13l0.143,-0.128l0.145,-0.127l0.146,-0.125l0.147,-0.123l0.149,-0.122l0.15,-0.119l0.152,-0.118l0.153,-0.116l0.155,-0.115l0.156,-0.112l0.158,-0.111l0.159,-0.109l0.16,-0.107l0.162,-0.105l0.163,-0.103l0.164,-0.101l0.166,-0.099l0.167,-0.098l0.168,-0.095l0.169,-0.093l0.171,-0.092l0.172,-0.089l0.173,-0.088l0.174,-0.085l0.175,-0.083l0.177,-0.081l0.178,-0.08l0.179,-0.077l0.18,-0.074l0.181,-0.073l0.182,-0.071l0.183,-0.068l0.184,-0.066l0.186,-0.064l0.186,-0.062l0.187,-0.06l0.189,-0.057l0.189,-0.055l0.19,-0.053l0.191,-0.051l0.192,-0.048l0.193,-0.046l0.194,-0.043l0.195,-0.041l0.196,-0.039l0.196,-0.037l0.198,-0.034l0.198,-0.031l0.199,-0.029l0.199,-0.027l0.201,-0.024l0.201,-0.022l0.202,-0.019l0.203,-0.017l0.203,-0.014l0.204,-0.012l0.205,-0.009l0.205,-0.006l0.206,-0.004l0.207,-0.002l0.207,0.002Zm-0.382,2.499l-0.174,0.004l-0.174,0.005l-0.173,0.008l-0.173,0.01l-0.172,0.012l-0.171,0.014l-0.17,0.016l-0.17,0.019l-0.169,0.02l-0.168,0.023l-0.168,0.024l-0.167,0.027l-0.167,0.028l-0.165,0.031l-0.165,0.033l-0.164,0.035l-0.164,0.036l-0.162,0.039l-0.162,0.04l-0.161,0.043l-0.16,0.044l-0.16,0.047l-0.159,0.048l-0.158,0.05l-0.156,0.053l-0.156,0.053l-0.156,0.056l-0.154,0.058l-0.154,0.059l-0.152,0.062l-0.152,0.063l-0.151,0.065l-0.15,0.066l-0.148,0.069l-0.148,0.07l-0.147,0.072l-0.146,0.074l-0.145,0.075l-0.144,0.077l-0.143,0.079l-0.142,0.08l-0.141,0.083l-0.139,0.083l-0.139,0.086l-0.138,0.087l-0.136,0.088l-0.135,0.091l-0.134,0.092l-0.133,0.093l-0.132,0.095l-0.131,0.097l-0.129,0.098l-0.129,0.099l-0.127,0.101l-0.126,0.103l-0.124,0.104l-0.123,0.105l-0.122,0.107l-0.121,0.109l-0.12,0.11l-0.118,0.111l-0.116,0.113l-0.116,0.114l-0.114,0.115l-0.112,0.117l-0.112,0.118l-0.109,0.119l-0.109,0.121l-0.107,0.122l-0.105,0.123l-0.104,0.125l-0.103,0.126l-0.101,0.127l-0.1,0.128l-0.098,0.129l-0.096,0.131l-0.095,0.132l-0.094,0.133l-0.091,0.134l-0.091,0.135l-0.089,0.137l-0.087,0.137l-0.085,0.139l-0.084,0.14l-0.082,0.141l-0.08,0.141l-0.079,0.143l-0.077,0.144l-0.076,0.145l-0.073,0.146l-0.072,0.147l-0.07,0.148l-0.069,0.149l-0.067,0.15l-0.065,0.15l-0.063,0.152l-0.061,0.153l-0.059,0.153l-0.058,0.155l-0.056,0.155l-0.054,0.156l-0.052,0.157l-0.05,0.158l-0.048,0.158l-0.047,0.16l-0.044,0.16l-0.043,0.161l-0.04,0.162l-0.039,0.163l-0.037,0.163l-0.035,0.164l-0.032,0.165l-0.031,0.166l-0.029,0.166l-0.026,0.167l-0.025,0.168l-0.022,0.168l-0.021,0.169l-0.018,0.17l-0.016,0.171l-0.014,0.171l-0.012,0.172l-0.01,0.172l-0.008,0.173l-0.006,0.174l-0.003,0.174l-0.001,0.175l0.001,0.175l0.003,0.175l0.006,0.173l0.008,0.173l0.01,0.173l0.012,0.172l0.014,0.171l0.016,0.17l0.018,0.17l0.021,0.169l0.022,0.169l0.025,0.167l0.026,0.168l0.029,0.166l0.031,0.166l0.032,0.164l0.035,0.165l0.037,0.163l0.039,0.163l0.04,0.161l0.043,0.162l0.044,0.16l0.047,0.159l0.048,0.159l0.05,0.158l0.052,0.157l0.054,0.156l0.056,0.155l0.058,0.154l0.059,0.154l0.061,0.153l0.063,0.151l0.065,0.151l0.067,0.15l0.069,0.149l0.07,0.148l0.072,0.146l0.073,0.147l0.076,0.145l0.077,0.143l0.079,0.143l0.08,0.142l0.082,0.141l0.084,0.14l0.085,0.138l0.087,0.138l0.089,0.136l0.091,0.136l0.091,0.134l0.094,0.133l0.095,0.132l0.096,0.13l0.098,0.13l0.1,0.128l0.101,0.127l0.103,0.126l0.104,0.124l0.105,0.124l0.107,0.122l0.109,0.12l0.109,0.12l0.112,0.118l0.112,0.117l0.114,0.115l0.116,0.114l0.116,0.113l0.118,0.111l0.12,0.11l0.121,0.108l0.122,0.107l0.123,0.106l0.124,0.104l0.126,0.102l0.127,0.101l0.128,0.1l0.13,0.098l0.131,0.097l0.132,0.095l0.133,0.093l0.134,0.092l0.135,0.09l0.136,0.089l0.138,0.087l0.139,0.085l0.139,0.084l0.141,0.082l0.142,0.081l0.143,0.078l0.144,0.077l0.145,0.076l0.146,0.074l0.147,0.072l0.148,0.07l0.148,0.068l0.15,0.067l0.151,0.065l0.152,0.063l0.152,0.061l0.154,0.06l0.154,0.057l0.156,0.056l0.156,0.054l0.156,0.052l0.158,0.05l0.159,0.049l0.16,0.046l0.16,0.045l0.161,0.042l0.162,0.041l0.162,0.038l0.164,0.037l0.164,0.035l0.165,0.032l0.165,0.031l0.167,0.029l0.167,0.027l0.168,0.024l0.168,0.023l0.169,0.02l0.17,0.018l0.17,0.017l0.172,0.014l0.171,0.012l0.173,0.01l0.173,0.007l0.174,0.006l0.174,0.003l0.175,0.001l0.175,-0.001l0.174,-0.003l0.174,-0.006l0.173,-0.007l0.173,-0.01l0.171,-0.012l0.172,-0.014l0.17,-0.017l0.17,-0.018l0.169,-0.02l0.168,-0.023l0.168,-0.024l0.167,-0.027l0.167,-0.029l0.165,-0.031l0.165,-0.032l0.164,-0.035l0.164,-0.037l0.162,-0.038l0.162,-0.041l0.161,-0.042l0.16,-0.045l0.16,-0.046l0.159,-0.049l0.158,-0.05l0.157,-0.052l0.155,-0.054l0.156,-0.056l0.154,-0.057l0.154,-0.06l0.152,-0.061l0.152,-0.063l0.151,-0.065l0.15,-0.067l0.148,-0.068l0.148,-0.07l0.147,-0.072l0.146,-0.074l0.145,-0.076l0.144,-0.077l0.143,-0.078l0.142,-0.081l0.141,-0.082l0.139,-0.084l0.139,-0.085l0.137,-0.087l0.137,-0.089l0.135,-0.09l0.134,-0.092l0.133,-0.093l0.132,-0.095l0.131,-0.097l0.13,-0.098l0.128,-0.1l0.127,-0.101l0.126,-0.102l0.124,-0.104l0.123,-0.106l0.122,-0.107l0.121,-0.108l0.119,-0.11l0.119,-0.111l0.116,-0.113l0.116,-0.114l0.114,-0.115l0.112,-0.117l0.112,-0.118l0.109,-0.12l0.109,-0.12l0.107,-0.122l0.105,-0.124l0.104,-0.124l0.103,-0.126l0.101,-0.127l0.1,-0.128l0.098,-0.13l0.096,-0.13l0.095,-0.132l0.094,-0.133l0.091,-0.134l0.091,-0.136l0.089,-0.136l0.087,-0.138l0.085,-0.138l0.084,-0.14l0.082,-0.141l0.08,-0.142l0.079,-0.143l0.077,-0.143l0.076,-0.145l0.073,-0.147l0.072,-0.146l0.07,-0.148l0.069,-0.149l0.067,-0.15l0.065,-0.151l0.063,-0.152l0.061,-0.152l0.059,-0.153l0.058,-0.155l0.056,-0.155l0.054,-0.156l0.052,-0.157l0.05,-0.158l0.048,-0.159l0.047,-0.159l0.044,-0.16l0.043,-0.161l0.04,-0.162l0.039,-0.163l0.037,-0.163l0.035,-0.165l0.032,-0.164l0.031,-0.166l0.029,-0.166l0.026,-0.167l0.025,-0.168l0.022,-0.169l0.021,-0.169l0.018,-0.17l0.016,-0.17l0.014,-0.171l0.012,-0.172l0.01,-0.173l0.008,-0.173l0.006,-0.173l0.003,-0.175l0.001,-0.175l-0.001,-0.175l-0.003,-0.174l-0.006,-0.174l-0.008,-0.173l-0.01,-0.172l-0.012,-0.172l-0.014,-0.171l-0.016,-0.171l-0.018,-0.17l-0.021,-0.169l-0.022,-0.168l-0.025,-0.168l-0.026,-0.167l-0.029,-0.166l-0.031,-0.166l-0.032,-0.165l-0.035,-0.164l-0.037,-0.163l-0.039,-0.163l-0.04,-0.162l-0.043,-0.161l-0.044,-0.16l-0.047,-0.16l-0.048,-0.158l-0.05,-0.158l-0.052,-0.157l-0.054,-0.156l-0.056,-0.155l-0.058,-0.155l-0.059,-0.153l-0.061,-0.153l-0.063,-0.152l-0.065,-0.15l-0.067,-0.15l-0.069,-0.149l-0.07,-0.148l-0.072,-0.147l-0.073,-0.146l-0.076,-0.145l-0.077,-0.144l-0.079,-0.143l-0.08,-0.142l-0.082,-0.14l-0.084,-0.14l-0.085,-0.139l-0.087,-0.137l-0.089,-0.137l-0.091,-0.135l-0.091,-0.134l-0.094,-0.133l-0.095,-0.132l-0.096,-0.131l-0.098,-0.129l-0.1,-0.128l-0.101,-0.128l-0.103,-0.125l-0.104,-0.125l-0.105,-0.123l-0.107,-0.122l-0.109,-0.121l-0.109,-0.119l-0.112,-0.118l-0.112,-0.117l-0.114,-0.115l-0.116,-0.114l-0.116,-0.113l-0.119,-0.111l-0.119,-0.11l-0.121,-0.109l-0.122,-0.107l-0.123,-0.105l-0.124,-0.104l-0.126,-0.103l-0.127,-0.101l-0.129,-0.099l-0.129,-0.098l-0.131,-0.097l-0.132,-0.095l-0.133,-0.093l-0.134,-0.092l-0.135,-0.091l-0.136,-0.088l-0.138,-0.087l-0.139,-0.086l-0.139,-0.083l-0.141,-0.083l-0.142,-0.08l-0.143,-0.079l-0.144,-0.077l-0.145,-0.075l-0.146,-0.074l-0.147,-0.072l-0.148,-0.07l-0.148,-0.069l-0.15,-0.066l-0.151,-0.065l-0.152,-0.063l-0.152,-0.062l-0.154,-0.059l-0.154,-0.058l-0.156,-0.056l-0.155,-0.053l-0.157,-0.053l-0.158,-0.05l-0.159,-0.048l-0.16,-0.047l-0.16,-0.044l-0.161,-0.043l-0.162,-0.04l-0.162,-0.039l-0.164,-0.036l-0.164,-0.035l-0.165,-0.033l-0.165,-0.031l-0.167,-0.028l-0.167,-0.027l-0.168,-0.024l-0.168,-0.023l-0.169,-0.02l-0.17,-0.019l-0.17,-0.016l-0.171,-0.014l-0.172,-0.012l-0.173,-0.01l-0.173,-0.008l-0.174,-0.005l-0.174,-0.004l-0.175,-0.001l-0.175,0.001Z" style="fill:#f20d0d;"/><circle cx="271.25" cy="105" r="16" style="fill:none;stroke:#fff;stroke-opacity:0.5;stroke-width:1px;stroke-linejoin:round;stroke-miterlimit:1.41421;"/><circle cx="271.25" cy="196.914" r="16" style="fill:none;stroke:#fff;stroke-opacity:0.5;stroke-width:1px;stroke-linejoin:round;stroke-miterlimit:1.41421;"/><circle cx="271.25" cy="150" r="16" style="fill:none;stroke:#fff;stroke-opacity:0.5;stroke-width:1px;stroke-linejoin:round;stroke-miterlimit:1.41421;"/><text x="203.109px" y="79.48px" style="font-family:'ArialMT', 'Arial', sans-serif;font-size:23.987px;fill:#008000;">+</text><text x="264.359px" y="113.451px" style="font-family:'ArialMT', 'Arial', sans-serif;font-size:23.987px;fill:#008000;">+</text><text x="264.359px" y="113.451px" style="font-family:'ArialMT', 'Arial', sans-serif;font-size:23.987px;fill:#008000;">+</text><text x="267.369px" y="203.127px" style="font-family:'ArialMT', 'Arial', sans-serif;font-size:23.987px;fill:#f20d0d;">-</text><text x="293.595px" y="111.855px" style="font-family:'Helvetica';font-size:23.987px;fill:#fff;">high</text></svg>