<?xml version="1.0" encoding="UTF-8" standalone="no"?><!DOCTYPE svg PUBLIC "-//W3C//DTD SVG 1.1//EN" "http://www.w3.org/Graphics/SVG/1.1/DTD/svg11.dtd"><svg width="100%" height="100%" viewBox="0 0 100 100" version="1.1" xmlns="http://www.w3.org/2000/svg" xmlns:xlink="http://www.w3.org/1999/xlink" xml:space="preserve" xmlns:serif="http://www.serif.com/" style="fill-rule:evenodd;clip-rule:evenodd;stroke-linejoin:round;stroke-miterlimit:1.41421;"><rect id="diphtong" x="0" y="0" width="300" height="300" style="fill:none;"/><path d="M21.316,66.128c0,1.365 -0.48,2.517 -1.44,3.456c-0.96,0.939 -2.101,1.408 -3.424,1.408c-1.451,0 -2.667,-0.491 -3.648,-1.472c-0.981,-0.981 -1.472,-2.219 -1.472,-3.712l0,-20.864l3.968,0l0,16.448c0.213,-0.085 0.597,-0.128 1.152,-0.128c1.323,0 2.464,0.469 3.424,1.408c0.96,0.939 1.44,2.091 1.44,3.456Zm-2.688,0c0,-0.597 -0.213,-1.109 -0.64,-1.536c-0.427,-0.427 -0.939,-0.64 -1.536,-0.64c-0.597,0 -1.109,0.213 -1.536,0.64c-0.427,0.427 -0.64,0.939 -0.64,1.536c0,0.597 0.213,1.109 0.64,1.536c0.427,0.427 0.939,0.64 1.536,0.64c0.597,0 1.109,-0.213 1.536,-0.64c0.427,-0.427 0.64,-0.939 0.64,-1.536Z" style="fill-rule:nonzero;"/><path d="M43.524,64.72c0,2.219 -1.003,3.861 -3.008,4.928c-1.621,0.896 -3.712,1.344 -6.272,1.344c-2.56,0 -4.629,-0.448 -6.208,-1.344c-1.92,-1.067 -2.88,-2.709 -2.88,-4.928l0,-6.464c0,-1.536 0.427,-2.827 1.28,-3.872c0.853,-1.045 2.069,-1.568 3.648,-1.568c1.365,0 2.517,0.459 3.456,1.376c0.939,0.917 1.408,2.059 1.408,3.424c0,1.323 -0.469,2.453 -1.408,3.392c-0.939,0.939 -2.091,1.408 -3.456,1.408c-0.384,0 -0.704,-0.043 -0.96,-0.128l0,1.984c0,2.219 1.728,3.328 5.184,3.328c3.499,0 5.248,-1.131 5.248,-3.392l0,-12.288c0,-1.408 -0.661,-2.475 -1.984,-3.2c-1.109,-0.597 -2.475,-0.896 -4.096,-0.896c-4.053,0 -6.251,1.045 -6.592,3.136l-3.84,0c0.555,-4.309 3.925,-6.485 10.112,-6.528c2.859,0 5.205,0.533 7.04,1.6c2.219,1.365 3.328,3.413 3.328,6.144l0,12.544Zm-11.264,-7.104c0,-0.597 -0.213,-1.109 -0.64,-1.536c-0.427,-0.427 -0.939,-0.64 -1.536,-0.64c-0.597,0 -1.109,0.213 -1.536,0.64c-0.427,0.427 -0.64,0.939 -0.64,1.536c0,0.597 0.213,1.109 0.64,1.536c0.427,0.427 0.939,0.64 1.536,0.64c0.597,0 1.109,-0.213 1.536,-0.64c0.427,-0.427 0.64,-0.939 0.64,-1.536Z" style="fill:#ababab;fill-rule:nonzero;"/><path d="M43.652,41.68c-5.291,-1.707 -10.133,-2.56 -14.528,-2.56c-2.005,0 -4.032,0.128 -6.08,0.384c0.512,-5.717 3.627,-8.576 9.344,-8.576c3.029,0 5.461,0.832 7.296,2.496l0,-4.416l3.84,0l0,11.776c0.043,0.299 0.085,0.597 0.128,0.896Zm-4.096,-3.776c-0.256,-1.067 -1.024,-2.069 -2.304,-3.008c-1.28,-0.939 -2.731,-1.408 -4.352,-1.408c-1.536,0 -2.859,0.309 -3.968,0.928c-1.109,0.619 -1.813,1.44 -2.112,2.464c0.725,-0.171 1.856,-0.256 3.392,-0.256c3.157,0 6.272,0.427 9.344,1.28Z" style="fill-rule:nonzero;"/><path d="M68.228,64.016c0,4.651 -3.157,6.976 -9.472,6.976c-6.272,0 -9.408,-2.325 -9.408,-6.976l0,-2.944c0,-2.048 0.875,-3.499 2.624,-4.352c-1.963,-1.323 -2.944,-3.264 -2.944,-5.824c0,-1.877 0.523,-3.424 1.568,-4.64c1.045,-1.216 2.485,-1.824 4.32,-1.824c1.28,0 2.368,0.395 3.264,1.184c0.896,0.789 1.344,1.824 1.344,3.104c0,1.152 -0.405,2.155 -1.216,3.008c-0.811,0.853 -1.877,1.28 -3.2,1.28c-0.683,0 -1.28,-0.107 -1.792,-0.32c0.341,1.621 1.109,2.432 2.304,2.432l4.544,0l0,3.136l-4.544,0c-0.683,0 -1.237,0.299 -1.664,0.896c-0.427,0.597 -0.64,1.28 -0.64,2.048l0,2.944c0,2.304 1.813,3.456 5.44,3.456c3.669,0 5.504,-1.152 5.504,-3.456l0,-19.2l3.968,0l0,19.072Zm-11.072,-15.232c0,-0.597 -0.192,-1.088 -0.576,-1.472c-0.384,-0.384 -0.875,-0.576 -1.472,-0.576c-0.597,0 -1.088,0.192 -1.472,0.576c-0.384,0.384 -0.576,0.875 -0.576,1.472c0,0.597 0.192,1.088 0.576,1.472c0.384,0.384 0.875,0.576 1.472,0.576c0.597,0 1.088,-0.192 1.472,-0.576c0.384,-0.384 0.576,-0.875 0.576,-1.472Z" style="fill-rule:nonzero;"/><path d="M90.82,45.072c-0.213,6.784 -3.392,10.176 -9.536,10.176c-2.56,0 -4.523,-0.523 -5.888,-1.568c-1.365,-1.045 -2.048,-2.379 -2.048,-4c0,-1.237 0.427,-2.283 1.28,-3.136c0.853,-0.853 1.899,-1.28 3.136,-1.28c1.323,0 2.4,0.437 3.232,1.312c0.832,0.875 1.248,1.909 1.248,3.104c0,1.152 -0.32,2.005 -0.96,2.56c3.968,-0.171 5.952,-2.56 5.952,-7.168l3.584,0Zm-11.136,4.608c0,-0.555 -0.192,-1.024 -0.576,-1.408c-0.384,-0.384 -0.853,-0.576 -1.408,-0.576c-0.555,0 -1.013,0.192 -1.376,0.576c-0.363,0.384 -0.544,0.853 -0.544,1.408c0,0.555 0.181,1.013 0.544,1.376c0.363,0.363 0.821,0.544 1.376,0.544c0.555,0 1.024,-0.181 1.408,-0.544c0.384,-0.363 0.576,-0.821 0.576,-1.376Zm11.136,9.92c-0.213,6.784 -3.392,10.176 -9.536,10.176c-2.56,0 -4.523,-0.523 -5.888,-1.568c-1.365,-1.045 -2.048,-2.379 -2.048,-4c0,-1.237 0.427,-2.283 1.28,-3.136c0.853,-0.853 1.899,-1.28 3.136,-1.28c1.323,0 2.4,0.437 3.232,1.312c0.832,0.875 1.248,1.909 1.248,3.104c0,1.152 -0.32,2.005 -0.96,2.56c3.968,-0.171 5.952,-2.56 5.952,-7.168l3.584,0Zm-11.136,4.608c0,-0.555 -0.192,-1.024 -0.576,-1.408c-0.384,-0.384 -0.853,-0.576 -1.408,-0.576c-0.555,0 -1.013,0.192 -1.376,0.576c-0.363,0.384 -0.544,0.853 -0.544,1.408c0,0.555 0.181,1.013 0.544,1.376c0.363,0.363 0.821,0.544 1.376,0.544c0.555,0 1.024,-0.181 1.408,-0.544c0.384,-0.363 0.576,-0.821 0.576,-1.376Z" style="fill-rule:nonzero;"/></svg>