<?xml version="1.0" encoding="UTF-8" standalone="no"?><!DOCTYPE svg PUBLIC "-//W3C//DTD SVG 1.1//EN" "http://www.w3.org/Graphics/SVG/1.1/DTD/svg11.dtd"><svg width="100%" height="100%" viewBox="0 0 100 100" version="1.1" xmlns="http://www.w3.org/2000/svg" xmlns:xlink="http://www.w3.org/1999/xlink" xml:space="preserve" xmlns:serif="http://www.serif.com/" style="fill-rule:evenodd;clip-rule:evenodd;stroke-linejoin:round;stroke-miterlimit:1.41421;"><rect id="diphtong" x="0" y="-200" width="300" height="300" style="fill:none;"/><path d="M37.092,64.56c0,2.219 -1.003,3.861 -3.008,4.928c-1.621,0.896 -3.712,1.344 -6.272,1.344c-2.56,0 -4.629,-0.448 -6.208,-1.344c-1.92,-1.067 -2.88,-2.709 -2.88,-4.928l0,-6.464c0,-1.536 0.427,-2.827 1.28,-3.872c0.853,-1.045 2.069,-1.568 3.648,-1.568c1.365,0 2.517,0.459 3.456,1.376c0.939,0.917 1.408,2.059 1.408,3.424c0,1.323 -0.469,2.453 -1.408,3.392c-0.939,0.939 -2.091,1.408 -3.456,1.408c-0.384,0 -0.704,-0.043 -0.96,-0.128l0,1.984c0,2.219 1.728,3.328 5.184,3.328c3.499,0 5.248,-1.131 5.248,-3.392l0,-12.288c0,-1.408 -0.661,-2.475 -1.984,-3.2c-1.109,-0.597 -2.475,-0.896 -4.096,-0.896c-4.053,0 -6.251,1.045 -6.592,3.136l-3.84,0c0.555,-4.309 3.925,-6.485 10.112,-6.528c2.859,0 5.205,0.533 7.04,1.6c2.219,1.365 3.328,3.413 3.328,6.144l0,12.544Zm-11.264,-7.104c0,-0.597 -0.213,-1.109 -0.64,-1.536c-0.427,-0.427 -0.939,-0.64 -1.536,-0.64c-0.597,0 -1.109,0.213 -1.536,0.64c-0.427,0.427 -0.64,0.939 -0.64,1.536c0,0.597 0.213,1.109 0.64,1.536c0.427,0.427 0.939,0.64 1.536,0.64c0.597,0 1.109,-0.213 1.536,-0.64c0.427,-0.427 0.64,-0.939 0.64,-1.536Z" style="fill:#ababab;fill-rule:nonzero;"/><path d="M43.556,29.168c-1.109,7.083 -4.949,10.624 -11.52,10.624c-2.56,0 -4.523,-0.523 -5.888,-1.568c-1.365,-1.045 -2.048,-2.379 -2.048,-4c0,-1.237 0.427,-2.283 1.28,-3.136c0.853,-0.853 1.899,-1.28 3.136,-1.28c1.323,0 2.4,0.437 3.232,1.312c0.832,0.875 1.248,1.909 1.248,3.104c0,1.152 -0.32,2.005 -0.96,2.56c4.437,-0.171 7.019,-2.709 7.744,-7.616l3.776,0Zm-13.12,5.056c0,-0.555 -0.192,-1.024 -0.576,-1.408c-0.384,-0.384 -0.853,-0.576 -1.408,-0.576c-0.555,0 -1.013,0.192 -1.376,0.576c-0.363,0.384 -0.544,0.853 -0.544,1.408c0,0.555 0.181,1.013 0.544,1.376c0.363,0.363 0.821,0.544 1.376,0.544c0.555,0 1.024,-0.181 1.408,-0.544c0.384,-0.363 0.576,-0.821 0.576,-1.376Z" style="fill-rule:nonzero;"/><path d="M61.348,65.648c0,1.493 -0.491,2.72 -1.472,3.68c-0.981,0.96 -2.197,1.44 -3.648,1.44c-1.365,0 -2.517,-0.469 -3.456,-1.408c-0.939,-0.939 -1.408,-2.069 -1.408,-3.392c0,-1.365 0.469,-2.517 1.408,-3.456c0.939,-0.939 2.091,-1.408 3.456,-1.408c0.469,0 0.853,0.021 1.152,0.064l0,-9.408c0,-2.731 -1.963,-4.096 -5.888,-4.096c-1.621,0 -2.997,0.501 -4.128,1.504c-1.131,1.003 -1.696,2.336 -1.696,4l-3.84,0c0.128,-2.816 1.056,-5.003 2.784,-6.56c1.728,-1.557 4.021,-2.336 6.88,-2.336c2.816,0 5.077,0.555 6.784,1.664c2.048,1.323 3.072,3.349 3.072,6.08l0,13.632Zm-2.944,0.256c0,-0.597 -0.213,-1.109 -0.64,-1.536c-0.427,-0.427 -0.939,-0.64 -1.536,-0.64c-0.597,0 -1.109,0.213 -1.536,0.64c-0.427,0.427 -0.64,0.939 -0.64,1.536c0,0.597 0.213,1.109 0.64,1.536c0.427,0.427 0.939,0.64 1.536,0.64c0.597,0 1.109,-0.213 1.536,-0.64c0.427,-0.427 0.64,-0.939 0.64,-1.536Z" style="fill-rule:nonzero;"/><path d="M83.94,44.912c-0.213,6.784 -3.392,10.176 -9.536,10.176c-2.56,0 -4.523,-0.523 -5.888,-1.568c-1.365,-1.045 -2.048,-2.379 -2.048,-4c0,-1.237 0.427,-2.283 1.28,-3.136c0.853,-0.853 1.899,-1.28 3.136,-1.28c1.323,0 2.4,0.437 3.232,1.312c0.832,0.875 1.248,1.909 1.248,3.104c0,1.152 -0.32,2.005 -0.96,2.56c3.968,-0.171 5.952,-2.56 5.952,-7.168l3.584,0Zm-11.136,4.608c0,-0.555 -0.192,-1.024 -0.576,-1.408c-0.384,-0.384 -0.853,-0.576 -1.408,-0.576c-0.555,0 -1.013,0.192 -1.376,0.576c-0.363,0.384 -0.544,0.853 -0.544,1.408c0,0.555 0.181,1.013 0.544,1.376c0.363,0.363 0.821,0.544 1.376,0.544c0.555,0 1.024,-0.181 1.408,-0.544c0.384,-0.363 0.576,-0.821 0.576,-1.376Zm11.136,9.92c-0.213,6.784 -3.392,10.176 -9.536,10.176c-2.56,0 -4.523,-0.523 -5.888,-1.568c-1.365,-1.045 -2.048,-2.379 -2.048,-4c0,-1.237 0.427,-2.283 1.28,-3.136c0.853,-0.853 1.899,-1.28 3.136,-1.28c1.323,0 2.4,0.437 3.232,1.312c0.832,0.875 1.248,1.909 1.248,3.104c0,1.152 -0.32,2.005 -0.96,2.56c3.968,-0.171 5.952,-2.56 5.952,-7.168l3.584,0Zm-11.136,4.608c0,-0.555 -0.192,-1.024 -0.576,-1.408c-0.384,-0.384 -0.853,-0.576 -1.408,-0.576c-0.555,0 -1.013,0.192 -1.376,0.576c-0.363,0.384 -0.544,0.853 -0.544,1.408c0,0.555 0.181,1.013 0.544,1.376c0.363,0.363 0.821,0.544 1.376,0.544c0.555,0 1.024,-0.181 1.408,-0.544c0.384,-0.363 0.576,-0.821 0.576,-1.376Z" style="fill-rule:nonzero;"/></svg>