<?xml version="1.0" encoding="UTF-8" standalone="no"?><!DOCTYPE svg PUBLIC "-//W3C//DTD SVG 1.1//EN" "http://www.w3.org/Graphics/SVG/1.1/DTD/svg11.dtd"><svg width="100%" height="100%" viewBox="0 0 100 100" version="1.1" xmlns="http://www.w3.org/2000/svg" xmlns:xlink="http://www.w3.org/1999/xlink" xml:space="preserve" xmlns:serif="http://www.serif.com/" style="fill-rule:evenodd;clip-rule:evenodd;stroke-linejoin:round;stroke-miterlimit:1.41421;"><rect id="glides" x="-500" y="-700" width="700" height="1100" style="fill:none;"/><path d="M31.728,58.672c0,1.365 -0.48,2.517 -1.44,3.456c-0.96,0.939 -2.101,1.408 -3.424,1.408c-1.451,0 -2.667,-0.491 -3.648,-1.472c-0.981,-0.981 -1.472,-2.219 -1.472,-3.712l0,-20.864l3.968,0l0,16.448c0.213,-0.085 0.597,-0.128 1.152,-0.128c1.323,0 2.464,0.469 3.424,1.408c0.96,0.939 1.44,2.091 1.44,3.456Zm11.968,0c0,1.365 -0.48,2.517 -1.44,3.456c-0.96,0.939 -2.101,1.408 -3.424,1.408c-1.451,0 -2.667,-0.491 -3.648,-1.472c-0.981,-0.981 -1.472,-2.219 -1.472,-3.712l0,-20.864l3.968,0l0,16.448c0.213,-0.085 0.597,-0.128 1.152,-0.128c1.323,0 2.464,0.469 3.424,1.408c0.96,0.939 1.44,2.091 1.44,3.456Zm-14.656,0c0,-0.597 -0.213,-1.109 -0.64,-1.536c-0.427,-0.427 -0.939,-0.64 -1.536,-0.64c-0.597,0 -1.109,0.213 -1.536,0.64c-0.427,0.427 -0.64,0.939 -0.64,1.536c0,0.597 0.213,1.109 0.64,1.536c0.427,0.427 0.939,0.64 1.536,0.64c0.597,0 1.109,-0.213 1.536,-0.64c0.427,-0.427 0.64,-0.939 0.64,-1.536Zm11.968,0c0,-0.597 -0.213,-1.109 -0.64,-1.536c-0.427,-0.427 -0.939,-0.64 -1.536,-0.64c-0.597,0 -1.109,0.213 -1.536,0.64c-0.427,0.427 -0.64,0.939 -0.64,1.536c0,0.597 0.213,1.109 0.64,1.536c0.427,0.427 0.939,0.64 1.536,0.64c0.597,0 1.109,-0.213 1.536,-0.64c0.427,-0.427 0.64,-0.939 0.64,-1.536Z" style="fill-rule:nonzero;"/><rect x="44.784" y="49.52" width="12.8" height="3.456" style="fill:#ababab;fill-rule:nonzero;"/><path d="M79.408,58.352c0,1.493 -0.491,2.72 -1.472,3.68c-0.981,0.96 -2.197,1.44 -3.648,1.44c-1.365,0 -2.517,-0.469 -3.456,-1.408c-0.939,-0.939 -1.408,-2.069 -1.408,-3.392c0,-1.365 0.469,-2.517 1.408,-3.456c0.939,-0.939 2.091,-1.408 3.456,-1.408c0.469,0 0.853,0.021 1.152,0.064l0,-9.408c0,-2.731 -1.963,-4.096 -5.888,-4.096c-1.621,0 -2.997,0.501 -4.128,1.504c-1.131,1.003 -1.696,2.336 -1.696,4l-3.84,0c0.128,-2.816 1.056,-5.003 2.784,-6.56c1.728,-1.557 4.021,-2.336 6.88,-2.336c2.816,0 5.077,0.555 6.784,1.664c2.048,1.323 3.072,3.349 3.072,6.08l0,13.632Zm-2.944,0.256c0,-0.597 -0.213,-1.109 -0.64,-1.536c-0.427,-0.427 -0.939,-0.64 -1.536,-0.64c-0.597,0 -1.109,0.213 -1.536,0.64c-0.427,0.427 -0.64,0.939 -0.64,1.536c0,0.597 0.213,1.109 0.64,1.536c0.427,0.427 0.939,0.64 1.536,0.64c0.597,0 1.109,-0.213 1.536,-0.64c0.427,-0.427 0.64,-0.939 0.64,-1.536Z" style="fill-rule:nonzero;"/></svg>