<?xml version="1.0" encoding="UTF-8" standalone="no"?><!DOCTYPE svg PUBLIC "-//W3C//DTD SVG 1.1//EN" "http://www.w3.org/Graphics/SVG/1.1/DTD/svg11.dtd"><svg width="100%" height="100%" viewBox="0 0 100 100" version="1.1" xmlns="http://www.w3.org/2000/svg" xmlns:xlink="http://www.w3.org/1999/xlink" xml:space="preserve" xmlns:serif="http://www.serif.com/" style="fill-rule:evenodd;clip-rule:evenodd;stroke-linejoin:round;stroke-miterlimit:1.41421;"><rect id="glides" x="-600" y="0" width="700" height="1100" style="fill:none;"/><rect x="21.168" y="49.52" width="12.8" height="3.456" style="fill:#ababab;fill-rule:nonzero;"/><path d="M53.04,63.024l-3.968,0l0,-18.624c0,-1.195 -0.405,-2.165 -1.216,-2.912c-0.811,-0.747 -1.92,-1.12 -3.328,-1.12c-1.408,0 -2.56,0.469 -3.456,1.408c-0.896,0.939 -1.365,2.133 -1.408,3.584l-3.84,0c0.128,-2.56 0.971,-4.597 2.528,-6.112c1.557,-1.515 3.616,-2.272 6.176,-2.272c2.389,0 4.405,0.608 6.048,1.824c1.643,1.216 2.464,3.061 2.464,5.536l0,18.688Z" style="fill-rule:nonzero;"/><path d="M77.744,56.56c0,4.651 -3.157,6.976 -9.472,6.976c-6.272,0 -9.408,-2.325 -9.408,-6.976l0,-2.944c0,-2.048 0.875,-3.499 2.624,-4.352c-1.963,-1.323 -2.944,-3.264 -2.944,-5.824c0,-1.877 0.523,-3.424 1.568,-4.64c1.045,-1.216 2.485,-1.824 4.32,-1.824c1.28,0 2.368,0.395 3.264,1.184c0.896,0.789 1.344,1.824 1.344,3.104c0,1.152 -0.405,2.155 -1.216,3.008c-0.811,0.853 -1.877,1.28 -3.2,1.28c-0.683,0 -1.28,-0.107 -1.792,-0.32c0.341,1.621 1.109,2.432 2.304,2.432l4.544,0l0,3.136l-4.544,0c-0.683,0 -1.237,0.299 -1.664,0.896c-0.427,0.597 -0.64,1.28 -0.64,2.048l0,2.944c0,2.304 1.813,3.456 5.44,3.456c3.669,0 5.504,-1.152 5.504,-3.456l0,-19.2l3.968,0l0,19.072Zm-11.072,-15.232c0,-0.597 -0.192,-1.088 -0.576,-1.472c-0.384,-0.384 -0.875,-0.576 -1.472,-0.576c-0.597,0 -1.088,0.192 -1.472,0.576c-0.384,0.384 -0.576,0.875 -0.576,1.472c0,0.597 0.192,1.088 0.576,1.472c0.384,0.384 0.875,0.576 1.472,0.576c0.597,0 1.088,-0.192 1.472,-0.576c0.384,-0.384 0.576,-0.875 0.576,-1.472Z" style="fill-rule:nonzero;"/></svg>