<?xml version="1.0" encoding="UTF-8" standalone="no"?><!DOCTYPE svg PUBLIC "-//W3C//DTD SVG 1.1//EN" "http://www.w3.org/Graphics/SVG/1.1/DTD/svg11.dtd"><svg width="100%" height="100%" viewBox="0 0 100 100" version="1.1" xmlns="http://www.w3.org/2000/svg" xmlns:xlink="http://www.w3.org/1999/xlink" xml:space="preserve" xmlns:serif="http://www.serif.com/" style="fill-rule:evenodd;clip-rule:evenodd;stroke-linejoin:round;stroke-miterlimit:1.41421;"><rect id="glides" x="-500" y="-600" width="700" height="1100" style="fill:none;"/><rect x="21.392" y="49.52" width="12.8" height="3.456" style="fill:#ababab;fill-rule:nonzero;"/><path d="M53.264,63.024l-3.968,0l0,-18.624c0,-1.195 -0.405,-2.165 -1.216,-2.912c-0.811,-0.747 -1.92,-1.12 -3.328,-1.12c-1.408,0 -2.56,0.469 -3.456,1.408c-0.896,0.939 -1.365,2.133 -1.408,3.584l-3.84,0c0.128,-2.56 0.971,-4.597 2.528,-6.112c1.557,-1.515 3.616,-2.272 6.176,-2.272c2.389,0 4.405,0.608 6.048,1.824c1.643,1.216 2.464,3.061 2.464,5.536l0,18.688Z" style="fill-rule:nonzero;"/><path d="M77.52,58.352c0,1.493 -0.491,2.72 -1.472,3.68c-0.981,0.96 -2.197,1.44 -3.648,1.44c-1.365,0 -2.517,-0.469 -3.456,-1.408c-0.939,-0.939 -1.408,-2.069 -1.408,-3.392c0,-1.365 0.469,-2.517 1.408,-3.456c0.939,-0.939 2.091,-1.408 3.456,-1.408c0.469,0 0.853,0.021 1.152,0.064l0,-9.408c0,-2.731 -1.963,-4.096 -5.888,-4.096c-1.621,0 -2.997,0.501 -4.128,1.504c-1.131,1.003 -1.696,2.336 -1.696,4l-3.84,0c0.128,-2.816 1.056,-5.003 2.784,-6.56c1.728,-1.557 4.021,-2.336 6.88,-2.336c2.816,0 5.077,0.555 6.784,1.664c2.048,1.323 3.072,3.349 3.072,6.08l0,13.632Zm-2.944,0.256c0,-0.597 -0.213,-1.109 -0.64,-1.536c-0.427,-0.427 -0.939,-0.64 -1.536,-0.64c-0.597,0 -1.109,0.213 -1.536,0.64c-0.427,0.427 -0.64,0.939 -0.64,1.536c0,0.597 0.213,1.109 0.64,1.536c0.427,0.427 0.939,0.64 1.536,0.64c0.597,0 1.109,-0.213 1.536,-0.64c0.427,-0.427 0.64,-0.939 0.64,-1.536Z" style="fill-rule:nonzero;"/></svg>