<?xml version="1.0" encoding="UTF-8" standalone="no"?><!DOCTYPE svg PUBLIC "-//W3C//DTD SVG 1.1//EN" "http://www.w3.org/Graphics/SVG/1.1/DTD/svg11.dtd"><svg width="100%" height="100%" viewBox="0 0 100 100" version="1.1" xmlns="http://www.w3.org/2000/svg" xmlns:xlink="http://www.w3.org/1999/xlink" xml:space="preserve" xmlns:serif="http://www.serif.com/" style="fill-rule:evenodd;clip-rule:evenodd;stroke-linejoin:round;stroke-miterlimit:1.41421;"><rect id="glides" x="-500" y="0" width="700" height="1100" style="fill:none;"/><path d="M51.248,68.598c0,1.366 -0.48,2.518 -1.44,3.456c-0.96,0.939 -2.101,1.408 -3.424,1.408c-1.451,0 -2.667,-0.49 -3.648,-1.472c-0.981,-0.981 -1.472,-2.218 -1.472,-3.712l0,-31.616l-3.84,5.632l-2.56,-0.768c-0.171,-4.01 -0.768,-7.744 -1.792,-11.2l3.456,0c0.512,3.371 0.789,5.91 0.832,7.616l4.544,-7.104c0.853,0.128 1.621,0.534 2.304,1.216c0.683,0.683 1.024,1.494 1.024,2.432l0,29.376c0.213,-0.085 0.597,-0.128 1.152,-0.128c1.323,0 2.464,0.47 3.424,1.408c0.96,0.939 1.44,2.091 1.44,3.456Zm-2.688,0c0,-0.597 -0.213,-1.109 -0.64,-1.536c-0.427,-0.426 -0.939,-0.64 -1.536,-0.64c-0.597,0 -1.109,0.214 -1.536,0.64c-0.427,0.427 -0.64,0.939 -0.64,1.536c0,0.598 0.213,1.11 0.64,1.536c0.427,0.427 0.939,0.64 1.536,0.64c0.597,0 1.109,-0.213 1.536,-0.64c0.427,-0.426 0.64,-0.938 0.64,-1.536Z" style="fill-rule:nonzero;"/><rect x="52.336" y="59.446" width="12.8" height="3.456" style="fill:#ababab;fill-rule:nonzero;"/></svg>