<?xml version="1.0" encoding="UTF-8" standalone="no"?><!DOCTYPE svg PUBLIC "-//W3C//DTD SVG 1.1//EN" "http://www.w3.org/Graphics/SVG/1.1/DTD/svg11.dtd"><svg width="100%" height="100%" viewBox="0 0 100 100" version="1.1" xmlns="http://www.w3.org/2000/svg" xmlns:xlink="http://www.w3.org/1999/xlink" xml:space="preserve" xmlns:serif="http://www.serif.com/" style="fill-rule:evenodd;clip-rule:evenodd;stroke-linejoin:round;stroke-miterlimit:1.41421;"><rect id="glides" x="-500" y="-300" width="700" height="1100" style="fill:none;"/><path d="M38.896,58.672c0,1.365 -0.48,2.517 -1.44,3.456c-0.96,0.939 -2.101,1.408 -3.424,1.408c-1.451,0 -2.667,-0.491 -3.648,-1.472c-0.981,-0.981 -1.472,-2.219 -1.472,-3.712l0,-25.408c-0.213,-1.451 -1.28,-2.624 -3.2,-3.52c-1.579,-0.725 -3.179,-1.088 -4.8,-1.088c0.213,-4.864 2.389,-7.296 6.528,-7.296c1.109,0 2.357,0.352 3.744,1.056c1.387,0.704 2.357,1.056 2.912,1.056c0.469,0 0.939,-0.64 1.408,-1.92l2.944,0.768c-0.811,2.901 -2.091,4.352 -3.84,4.352c-0.811,0 -1.963,-0.352 -3.456,-1.056c-1.493,-0.704 -2.731,-1.056 -3.712,-1.056c-1.493,0 -2.475,0.533 -2.944,1.6c5.589,1.451 8.384,3.925 8.384,7.424l0,20.672c0.213,-0.085 0.597,-0.128 1.152,-0.128c1.323,0 2.464,0.469 3.424,1.408c0.96,0.939 1.44,2.091 1.44,3.456Zm-2.688,0c0,-0.597 -0.213,-1.109 -0.64,-1.536c-0.427,-0.427 -0.939,-0.64 -1.536,-0.64c-0.597,0 -1.109,0.213 -1.536,0.64c-0.427,0.427 -0.64,0.939 -0.64,1.536c0,0.597 0.213,1.109 0.64,1.536c0.427,0.427 0.939,0.64 1.536,0.64c0.597,0 1.109,-0.213 1.536,-0.64c0.427,-0.427 0.64,-0.939 0.64,-1.536Z" style="fill-rule:nonzero;"/><rect x="39.984" y="49.52" width="12.8" height="3.456" style="fill:#ababab;fill-rule:nonzero;"/><path d="M75.056,56.56c0,4.651 -3.157,6.976 -9.472,6.976c-6.272,0 -9.408,-2.325 -9.408,-6.976l0,-2.944c0,-2.048 0.875,-3.499 2.624,-4.352c-1.963,-1.323 -2.944,-3.264 -2.944,-5.824c0,-1.877 0.523,-3.424 1.568,-4.64c1.045,-1.216 2.485,-1.824 4.32,-1.824c1.28,0 2.368,0.395 3.264,1.184c0.896,0.789 1.344,1.824 1.344,3.104c0,1.152 -0.405,2.155 -1.216,3.008c-0.811,0.853 -1.877,1.28 -3.2,1.28c-0.683,0 -1.28,-0.107 -1.792,-0.32c0.341,1.621 1.109,2.432 2.304,2.432l4.544,0l0,3.136l-4.544,0c-0.683,0 -1.237,0.299 -1.664,0.896c-0.427,0.597 -0.64,1.28 -0.64,2.048l0,2.944c0,2.304 1.813,3.456 5.44,3.456c3.669,0 5.504,-1.152 5.504,-3.456l0,-19.2l3.968,0l0,19.072Zm-11.072,-15.232c0,-0.597 -0.192,-1.088 -0.576,-1.472c-0.384,-0.384 -0.875,-0.576 -1.472,-0.576c-0.597,0 -1.088,0.192 -1.472,0.576c-0.384,0.384 -0.576,0.875 -0.576,1.472c0,0.597 0.192,1.088 0.576,1.472c0.384,0.384 0.875,0.576 1.472,0.576c0.597,0 1.088,-0.192 1.472,-0.576c0.384,-0.384 0.576,-0.875 0.576,-1.472Z" style="fill-rule:nonzero;"/></svg>