<?xml version="1.0" encoding="UTF-8" standalone="no"?><!DOCTYPE svg PUBLIC "-//W3C//DTD SVG 1.1//EN" "http://www.w3.org/Graphics/SVG/1.1/DTD/svg11.dtd"><svg width="100%" height="100%" viewBox="0 0 100 100" version="1.1" xmlns="http://www.w3.org/2000/svg" xmlns:xlink="http://www.w3.org/1999/xlink" xml:space="preserve" xmlns:serif="http://www.serif.com/" style="fill-rule:evenodd;clip-rule:evenodd;stroke-linejoin:round;stroke-miterlimit:1.41421;"><rect id="glides" x="0" y="-100" width="700" height="1100" style="fill:none;"/><path d="M35.056,57.264c0,2.219 -1.003,3.861 -3.008,4.928c-1.621,0.896 -3.712,1.344 -6.272,1.344c-2.56,0 -4.629,-0.448 -6.208,-1.344c-1.92,-1.067 -2.88,-2.709 -2.88,-4.928l0,-6.464c0,-1.536 0.427,-2.827 1.28,-3.872c0.853,-1.045 2.069,-1.568 3.648,-1.568c1.365,0 2.517,0.459 3.456,1.376c0.939,0.917 1.408,2.059 1.408,3.424c0,1.323 -0.469,2.453 -1.408,3.392c-0.939,0.939 -2.091,1.408 -3.456,1.408c-0.384,0 -0.704,-0.043 -0.96,-0.128l0,1.984c0,2.219 1.728,3.328 5.184,3.328c3.499,0 5.248,-1.131 5.248,-3.392l0,-12.288c0,-1.408 -0.661,-2.475 -1.984,-3.2c-1.109,-0.597 -2.475,-0.896 -4.096,-0.896c-4.053,0 -6.251,1.045 -6.592,3.136l-3.84,0c0.555,-4.309 3.925,-6.485 10.112,-6.528c2.859,0 5.205,0.533 7.04,1.6c2.219,1.365 3.328,3.413 3.328,6.144l0,12.544Zm-11.264,-7.104c0,-0.597 -0.213,-1.109 -0.64,-1.536c-0.427,-0.427 -0.939,-0.64 -1.536,-0.64c-0.597,0 -1.109,0.213 -1.536,0.64c-0.427,0.427 -0.64,0.939 -0.64,1.536c0,0.597 0.213,1.109 0.64,1.536c0.427,0.427 0.939,0.64 1.536,0.64c0.597,0 1.109,-0.213 1.536,-0.64c0.427,-0.427 0.64,-0.939 0.64,-1.536Z" style="fill:#ababab;fill-rule:nonzero;"/><path d="M34.288,29.68c0,0.896 -0.32,1.675 -0.96,2.336c-0.64,0.661 -1.429,0.992 -2.368,0.992c-2.091,0 -4.48,-0.896 -7.168,-2.688c-0.555,0.171 -1.163,0.587 -1.824,1.248c-0.661,0.661 -1.035,1.248 -1.12,1.76c-2.261,-1.493 -3.392,-3.307 -3.392,-5.44c0,-1.664 0.661,-2.965 1.984,-3.904c1.152,-0.853 2.645,-1.28 4.48,-1.28l4.352,0c2.091,0 3.136,-0.939 3.136,-2.816l0,-1.472l3.072,0l0,1.408c0,1.749 -0.576,3.093 -1.728,4.032c-1.152,0.939 -2.624,1.408 -4.416,1.408l-4.672,0c-0.683,0 -1.301,0.224 -1.856,0.672c-0.555,0.448 -0.832,1.035 -0.832,1.76c0,0.683 0.128,1.237 0.384,1.664c0.64,-0.981 1.6,-1.515 2.88,-1.6c0.981,0.64 2.155,1.195 3.52,1.664c0,-0.853 0.331,-1.579 0.992,-2.176c0.661,-0.597 1.397,-0.896 2.208,-0.896c0.939,0 1.728,0.331 2.368,0.992c0.64,0.661 0.96,1.44 0.96,2.336Zm-1.92,0c0,-0.384 -0.139,-0.715 -0.416,-0.992c-0.277,-0.277 -0.608,-0.416 -0.992,-0.416c-0.384,0 -0.715,0.139 -0.992,0.416c-0.277,0.277 -0.416,0.608 -0.416,0.992c0,0.384 0.139,0.715 0.416,0.992c0.277,0.277 0.608,0.416 0.992,0.416c0.384,0 0.715,-0.139 0.992,-0.416c0.277,-0.277 0.416,-0.608 0.416,-0.992Z" style="fill-rule:nonzero;"/><path d="M60.272,57.264c0,2.219 -1.003,3.861 -3.008,4.928c-1.621,0.896 -3.712,1.344 -6.272,1.344c-2.56,0 -4.629,-0.448 -6.208,-1.344c-1.92,-1.067 -2.88,-2.709 -2.88,-4.928l0,-6.464c0,-1.536 0.427,-2.827 1.28,-3.872c0.853,-1.045 2.069,-1.568 3.648,-1.568c1.365,0 2.517,0.459 3.456,1.376c0.939,0.917 1.408,2.059 1.408,3.424c0,1.323 -0.469,2.453 -1.408,3.392c-0.939,0.939 -2.091,1.408 -3.456,1.408c-0.384,0 -0.704,-0.043 -0.96,-0.128l0,1.984c0,2.219 1.728,3.328 5.184,3.328c3.499,0 5.248,-1.131 5.248,-3.392l0,-12.288c0,-1.408 -0.661,-2.475 -1.984,-3.2c-1.109,-0.597 -2.475,-0.896 -4.096,-0.896c-4.053,0 -6.251,1.045 -6.592,3.136l-3.84,0c0.555,-4.309 3.925,-6.485 10.112,-6.528c2.859,0 5.205,0.533 7.04,1.6c2.219,1.365 3.328,3.413 3.328,6.144l0,12.544Zm-11.264,-7.104c0,-0.597 -0.213,-1.109 -0.64,-1.536c-0.427,-0.427 -0.939,-0.64 -1.536,-0.64c-0.597,0 -1.109,0.213 -1.536,0.64c-0.427,0.427 -0.64,0.939 -0.64,1.536c0,0.597 0.213,1.109 0.64,1.536c0.427,0.427 0.939,0.64 1.536,0.64c0.597,0 1.109,-0.213 1.536,-0.64c0.427,-0.427 0.64,-0.939 0.64,-1.536Z" style="fill-rule:nonzero;"/><path d="M84.976,56.56c0,4.651 -3.157,6.976 -9.472,6.976c-6.272,0 -9.408,-2.325 -9.408,-6.976l0,-2.944c0,-2.048 0.875,-3.499 2.624,-4.352c-1.963,-1.323 -2.944,-3.264 -2.944,-5.824c0,-1.877 0.523,-3.424 1.568,-4.64c1.045,-1.216 2.485,-1.824 4.32,-1.824c1.28,0 2.368,0.395 3.264,1.184c0.896,0.789 1.344,1.824 1.344,3.104c0,1.152 -0.405,2.155 -1.216,3.008c-0.811,0.853 -1.877,1.28 -3.2,1.28c-0.683,0 -1.28,-0.107 -1.792,-0.32c0.341,1.621 1.109,2.432 2.304,2.432l4.544,0l0,3.136l-4.544,0c-0.683,0 -1.237,0.299 -1.664,0.896c-0.427,0.597 -0.64,1.28 -0.64,2.048l0,2.944c0,2.304 1.813,3.456 5.44,3.456c3.669,0 5.504,-1.152 5.504,-3.456l0,-19.2l3.968,0l0,19.072Zm-11.072,-15.232c0,-0.597 -0.192,-1.088 -0.576,-1.472c-0.384,-0.384 -0.875,-0.576 -1.472,-0.576c-0.597,0 -1.088,0.192 -1.472,0.576c-0.384,0.384 -0.576,0.875 -0.576,1.472c0,0.597 0.192,1.088 0.576,1.472c0.384,0.384 0.875,0.576 1.472,0.576c0.597,0 1.088,-0.192 1.472,-0.576c0.384,-0.384 0.576,-0.875 0.576,-1.472Z" style="fill-rule:nonzero;"/></svg>