<?xml version="1.0" encoding="UTF-8" standalone="no"?><!DOCTYPE svg PUBLIC "-//W3C//DTD SVG 1.1//EN" "http://www.w3.org/Graphics/SVG/1.1/DTD/svg11.dtd"><svg width="100%" height="100%" viewBox="0 0 100 100" version="1.1" xmlns="http://www.w3.org/2000/svg" xmlns:xlink="http://www.w3.org/1999/xlink" xml:space="preserve" xmlns:serif="http://www.serif.com/" style="fill-rule:evenodd;clip-rule:evenodd;stroke-linejoin:round;stroke-miterlimit:1.41421;"><rect id="glides" x="-100" y="0" width="700" height="1100" style="fill:none;"/><path d="M52.688,66.128c0,1.365 -0.48,2.517 -1.44,3.456c-0.96,0.939 -2.101,1.408 -3.424,1.408c-1.451,0 -2.667,-0.491 -3.648,-1.472c-0.981,-0.981 -1.472,-2.219 -1.472,-3.712l0,-24.128c0,-0.981 0.373,-2.272 1.12,-3.872c0.747,-1.6 1.12,-2.805 1.12,-3.616c0,-0.939 -0.331,-1.685 -0.992,-2.24c-0.661,-0.555 -1.461,-0.832 -2.4,-0.832c-1.451,0 -2.517,0.256 -3.2,0.768c1.067,0 1.963,0.405 2.688,1.216c0.597,0.725 0.896,1.579 0.896,2.56c0,1.152 -0.405,2.144 -1.216,2.976c-0.811,0.832 -1.813,1.248 -3.008,1.248c-1.237,0 -2.24,-0.448 -3.008,-1.344c-0.768,-0.896 -1.152,-1.941 -1.152,-3.136c0,-2.304 0.768,-4.096 2.304,-5.376c1.408,-1.152 3.264,-1.728 5.568,-1.728c1.877,0 3.52,0.491 4.928,1.472c1.579,1.109 2.368,2.539 2.368,4.288c0,0.981 -0.341,2.357 -1.024,4.128c-0.683,1.771 -1.024,3.104 -1.024,4l0,19.2c0.213,-0.085 0.597,-0.128 1.152,-0.128c1.323,0 2.464,0.469 3.424,1.408c0.96,0.939 1.44,2.091 1.44,3.456Zm-2.688,0c0,-0.597 -0.213,-1.109 -0.64,-1.536c-0.427,-0.427 -0.939,-0.64 -1.536,-0.64c-0.597,0 -1.109,0.213 -1.536,0.64c-0.427,0.427 -0.64,0.939 -0.64,1.536c0,0.597 0.213,1.109 0.64,1.536c0.427,0.427 0.939,0.64 1.536,0.64c0.597,0 1.109,-0.213 1.536,-0.64c0.427,-0.427 0.64,-0.939 0.64,-1.536Zm-10.304,-30.4c0,-0.555 -0.192,-1.024 -0.576,-1.408c-0.384,-0.384 -0.853,-0.576 -1.408,-0.576c-0.555,0 -1.024,0.192 -1.408,0.576c-0.384,0.384 -0.576,0.853 -0.576,1.408c0,0.555 0.192,1.024 0.576,1.408c0.384,0.384 0.853,0.576 1.408,0.576c0.555,0 1.024,-0.192 1.408,-0.576c0.384,-0.384 0.576,-0.853 0.576,-1.408Z" style="fill-rule:nonzero;"/><rect x="53.776" y="56.976" width="12.8" height="3.456" style="fill:#ababab;fill-rule:nonzero;"/></svg>