<?xml version="1.0" encoding="UTF-8" standalone="no"?><!DOCTYPE svg PUBLIC "-//W3C//DTD SVG 1.1//EN" "http://www.w3.org/Graphics/SVG/1.1/DTD/svg11.dtd"><svg width="100%" height="100%" viewBox="0 0 100 100" version="1.1" xmlns="http://www.w3.org/2000/svg" xmlns:xlink="http://www.w3.org/1999/xlink" xml:space="preserve" xmlns:serif="http://www.serif.com/" style="fill-rule:evenodd;clip-rule:evenodd;stroke-linejoin:round;stroke-miterlimit:1.41421;"><rect id="numbers" x="-100" y="-100" width="600" height="300" style="fill:none;"/><path d="M65.804,48.02c0,5.712 -0.864,9.84 -2.592,12.384c-2.064,2.976 -5.592,4.464 -10.584,4.464c1.968,-5.328 2.952,-9.912 2.952,-13.752c0,-0.912 -0.168,-1.8 -0.504,-2.664c-0.48,-1.152 -1.104,-1.728 -1.872,-1.728c-0.864,0 -1.56,0.552 -2.088,1.656c-0.384,0.912 -0.576,1.848 -0.576,2.808l0,2.88l-4.32,0l0,-2.736c0,-3.072 -1.08,-4.608 -3.24,-4.608c-1.152,0 -2.04,0.816 -2.664,2.448c-0.48,1.296 -0.72,2.832 -0.72,4.608l0,0.792c0.864,-0.384 1.632,-0.576 2.304,-0.576c1.488,0 2.784,0.54 3.888,1.62c1.104,1.08 1.656,2.412 1.656,3.996c0,1.536 -0.528,2.808 -1.584,3.816c-1.056,1.008 -2.376,1.512 -3.96,1.512c-2.352,0 -4.104,-1.2 -5.256,-3.6c-0.864,-1.824 -1.296,-4.104 -1.296,-6.84c0,-2.928 0.504,-5.424 1.512,-7.488c1.344,-2.688 3.336,-4.032 5.976,-4.032c2.592,0 4.416,0.936 5.472,2.808c1.104,-1.872 2.64,-2.808 4.608,-2.808c2.352,0 4.128,0.936 5.328,2.808c1.008,1.536 1.512,3.528 1.512,5.976c0,2.496 -0.36,5.088 -1.08,7.776c2.016,-1.344 3.024,-4.896 3.024,-10.656c0,-7.488 0.48,-12.264 1.44,-14.328l4.392,0c-1.2,1.776 -1.788,4.344 -1.764,7.704c0.024,3.36 0.036,5.28 0.036,5.76Zm-21.528,11.448c0,-0.672 -0.252,-1.26 -0.756,-1.764c-0.504,-0.504 -1.092,-0.756 -1.764,-0.756c-0.672,0 -1.248,0.252 -1.728,0.756c-0.48,0.504 -0.72,1.092 -0.72,1.764c0,0.672 0.24,1.248 0.72,1.728c0.48,0.48 1.056,0.72 1.728,0.72c0.672,0 1.26,-0.24 1.764,-0.72c0.504,-0.48 0.756,-1.056 0.756,-1.728Z" style="fill-rule:nonzero;"/></svg>