<?xml version="1.0" encoding="UTF-8" standalone="no"?><!DOCTYPE svg PUBLIC "-//W3C//DTD SVG 1.1//EN" "http://www.w3.org/Graphics/SVG/1.1/DTD/svg11.dtd"><svg width="100%" height="100%" viewBox="0 0 100 100" version="1.1" xmlns="http://www.w3.org/2000/svg" xmlns:xlink="http://www.w3.org/1999/xlink" xml:space="preserve" xmlns:serif="http://www.serif.com/" style="fill-rule:evenodd;clip-rule:evenodd;stroke-linejoin:round;stroke-miterlimit:1.41421;"><rect id="numbers" x="-500" y="0" width="600" height="300" style="fill:none;"/><path d="M63.284,65.3c-2.688,-1.296 -4.92,-1.944 -6.696,-1.944c-1.2,0 -2.928,0.3 -5.184,0.9c-2.256,0.6 -3.96,0.9 -5.112,0.9c-3.168,0 -5.736,-1.032 -7.704,-3.096c-1.92,-1.92 -2.88,-4.368 -2.88,-7.344c0,-7.248 4.272,-11.184 12.816,-11.808c-0.912,-0.912 -1.368,-2.064 -1.368,-3.456c0,-1.392 0.48,-2.556 1.44,-3.492c0.96,-0.936 2.112,-1.404 3.456,-1.404c1.392,0 2.556,0.468 3.492,1.404c0.936,0.936 1.404,2.1 1.404,3.492c0,1.248 -0.408,2.352 -1.224,3.312c1.584,-0.144 2.952,-0.432 4.104,-0.864c2.832,-1.056 4.56,-3.504 5.184,-7.344l4.104,0c-1.056,5.232 -3.072,8.712 -6.048,10.44c-2.064,1.2 -5.712,1.8 -10.944,1.8c-3.696,0 -6.36,0.336 -7.992,1.008c-2.64,1.152 -3.96,3.36 -3.96,6.624c0,1.872 0.636,3.516 1.908,4.932c1.272,1.416 2.628,2.124 4.068,2.124c0.288,0 2.112,-0.264 5.472,-0.792c-4.416,-1.152 -6.624,-3.456 -6.624,-6.912c0,-1.584 0.528,-2.88 1.584,-3.888c1.056,-1.008 2.304,-1.512 3.744,-1.512c1.536,0 2.784,0.54 3.744,1.62c0.96,1.08 1.44,2.316 1.44,3.708c0,1.68 -0.72,3.096 -2.16,4.248c0.768,0.384 1.8,0.696 3.096,0.936c1.536,0.24 2.916,0.504 4.14,0.792c1.224,0.288 2.82,1.032 4.788,2.232l-2.088,3.384Zm-10.944,-11.664c0,-0.624 -0.204,-1.14 -0.612,-1.548c-0.408,-0.408 -0.924,-0.612 -1.548,-0.612c-0.624,0 -1.14,0.204 -1.548,0.612c-0.408,0.408 -0.612,0.924 -0.612,1.548c0,0.624 0.204,1.14 0.612,1.548c0.408,0.408 0.924,0.612 1.548,0.612c0.624,0 1.14,-0.204 1.548,-0.612c0.408,-0.408 0.612,-0.924 0.612,-1.548Zm1.872,-14.112c0,-0.624 -0.204,-1.14 -0.612,-1.548c-0.408,-0.408 -0.924,-0.612 -1.548,-0.612c-0.624,0 -1.14,0.204 -1.548,0.612c-0.408,0.408 -0.612,0.924 -0.612,1.548c0,0.624 0.204,1.14 0.612,1.548c0.408,0.408 0.924,0.612 1.548,0.612c0.624,0 1.14,-0.204 1.548,-0.612c0.408,-0.408 0.612,-0.924 0.612,-1.548Z" style="fill-rule:nonzero;"/></svg>