<?xml version="1.0" encoding="UTF-8" standalone="no"?><!DOCTYPE svg PUBLIC "-//W3C//DTD SVG 1.1//EN" "http://www.w3.org/Graphics/SVG/1.1/DTD/svg11.dtd"><svg width="100%" height="100%" viewBox="0 0 100 100" version="1.1" xmlns="http://www.w3.org/2000/svg" xmlns:xlink="http://www.w3.org/1999/xlink" xml:space="preserve" xmlns:serif="http://www.serif.com/" style="fill-rule:evenodd;clip-rule:evenodd;stroke-linejoin:round;stroke-miterlimit:1.41421;"><rect id="numbers" x="0" y="-100" width="600" height="300" style="fill:none;"/><path d="M65.084,53.636c0,3.84 -1.488,6.816 -4.464,8.928c-2.544,1.824 -5.664,2.736 -9.36,2.736c-3.12,0 -5.496,-0.336 -7.128,-1.008c-3.216,-1.296 -4.824,-3.336 -4.824,-6.12c0,-1.584 0.492,-2.904 1.476,-3.96c0.984,-1.056 2.268,-1.584 3.852,-1.584c1.584,0 2.904,0.528 3.96,1.584c1.056,1.056 1.584,2.328 1.584,3.816c0,1.344 -0.312,2.4 -0.936,3.168c0.336,0.048 0.888,0.072 1.656,0.072c2.688,0 4.92,-0.576 6.696,-1.728c2.112,-1.296 3.168,-3.216 3.168,-5.76c0,-2.256 -0.912,-3.984 -2.736,-5.184c-1.584,-1.056 -3.528,-1.584 -5.832,-1.584c-5.232,0 -8.952,1.512 -11.16,4.536l-1.512,0c-0.144,-3.936 -0.408,-6.888 -0.792,-8.856c-0.672,-3.168 -1.872,-5.88 -3.6,-8.136l4.896,0c1.728,3.12 2.712,6.576 2.952,10.368c2.064,-1.296 5.088,-1.944 9.072,-1.944c3.648,0 6.648,0.84 9,2.52c2.688,1.92 4.032,4.632 4.032,8.136Zm-17.928,4.392c0,-0.672 -0.228,-1.236 -0.684,-1.692c-0.456,-0.456 -1.02,-0.684 -1.692,-0.684c-0.672,0 -1.224,0.228 -1.656,0.684c-0.432,0.456 -0.648,1.02 -0.648,1.692c0,0.672 0.216,1.224 0.648,1.656c0.432,0.432 0.984,0.648 1.656,0.648c0.672,0 1.236,-0.216 1.692,-0.648c0.456,-0.432 0.684,-0.984 0.684,-1.656Z" style="fill-rule:nonzero;"/></svg>