<?xml version="1.0" encoding="UTF-8" standalone="no"?><!DOCTYPE svg PUBLIC "-//W3C//DTD SVG 1.1//EN" "http://www.w3.org/Graphics/SVG/1.1/DTD/svg11.dtd"><svg width="100%" height="100%" viewBox="0 0 100 100" version="1.1" xmlns="http://www.w3.org/2000/svg" xmlns:xlink="http://www.w3.org/1999/xlink" xml:space="preserve" xmlns:serif="http://www.serif.com/" style="fill-rule:evenodd;clip-rule:evenodd;stroke-linejoin:round;stroke-miterlimit:1.41421;"><rect id="numbers" x="-300" y="-100" width="600" height="300" style="fill:none;"/><path d="M62.996,65.372c-3.504,-2.736 -6.792,-7.152 -9.864,-13.248c-0.288,-0.624 -0.576,-1.26 -0.864,-1.908c-0.288,-0.648 -0.72,-1.188 -1.296,-1.62c-1.488,-1.104 -3.096,-1.656 -4.824,-1.656c-1.728,0 -3.132,0.744 -4.212,2.232c-1.08,1.488 -1.62,3.096 -1.62,4.824c0,1.68 0.408,3.216 1.224,4.608c0.72,-2.544 2.4,-3.816 5.04,-3.816c1.392,0 2.592,0.504 3.6,1.512c1.008,1.008 1.512,2.232 1.512,3.672c0,1.392 -0.504,2.604 -1.512,3.636c-1.008,1.032 -2.208,1.548 -3.6,1.548c-3.072,0 -5.616,-1.128 -7.632,-3.384c-1.92,-2.112 -2.88,-4.68 -2.88,-7.704c0,-3.12 1.02,-5.748 3.06,-7.884c2.04,-2.136 4.524,-3.204 7.452,-3.204c2.688,0 4.896,0.792 6.624,2.376c0.528,-1.536 1.536,-2.304 3.024,-2.304c0.672,0 1.572,0.348 2.7,1.044c1.128,0.696 2.028,1.044 2.7,1.044c0.912,0 1.368,-1.368 1.368,-4.104c0,-2.4 -0.288,-4.488 -0.864,-6.264l3.528,0c0.528,2.4 0.792,4.728 0.792,6.984c0,4.848 -1.392,7.272 -4.176,7.272c-0.624,0 -1.5,-0.36 -2.628,-1.08c-1.128,-0.72 -1.908,-1.08 -2.34,-1.08c-0.864,0 -1.296,0.456 -1.296,1.368c0,1.68 1.272,4.32 3.816,7.92c2.544,3.6 4.584,5.76 6.12,6.48l-2.952,2.736Zm-14.112,-5.328c0,-0.672 -0.228,-1.236 -0.684,-1.692c-0.456,-0.456 -1.02,-0.684 -1.692,-0.684c-0.672,0 -1.224,0.228 -1.656,0.684c-0.432,0.456 -0.648,1.02 -0.648,1.692c0,0.672 0.216,1.224 0.648,1.656c0.432,0.432 0.984,0.648 1.656,0.648c0.672,0 1.236,-0.216 1.692,-0.648c0.456,-0.432 0.684,-0.984 0.684,-1.656Z" style="fill-rule:nonzero;"/></svg>