<?xml version="1.0" encoding="UTF-8" standalone="no"?><!DOCTYPE svg PUBLIC "-//W3C//DTD SVG 1.1//EN" "http://www.w3.org/Graphics/SVG/1.1/DTD/svg11.dtd"><svg width="100%" height="100%" viewBox="0 0 100 100" version="1.1" xmlns="http://www.w3.org/2000/svg" xmlns:xlink="http://www.w3.org/1999/xlink" xml:space="preserve" xmlns:serif="http://www.serif.com/" style="fill-rule:evenodd;clip-rule:evenodd;stroke-linejoin:round;stroke-miterlimit:1.41421;"><rect id="numbers" x="-500" y="-200" width="600" height="300" style="fill:none;"/><g><path d="M22.244,50.516c0,1.28 -0.424,2.392 -1.272,3.336l-1.776,0c1.088,-1.04 1.632,-2.152 1.632,-3.336c0,-0.912 -0.268,-1.644 -0.804,-2.196c-0.536,-0.552 -1.26,-0.828 -2.172,-0.828c-0.784,0 -1.452,0.244 -2.004,0.732c-0.552,0.488 -0.828,1.092 -0.828,1.812c0,0.64 0.176,1.18 0.528,1.62c0.352,0.44 0.824,0.66 1.416,0.66c0.24,0 0.48,-0.04 0.72,-0.12c-0.56,0 -1.008,-0.192 -1.344,-0.576c-0.304,-0.336 -0.456,-0.728 -0.456,-1.176c0,-0.496 0.184,-0.916 0.552,-1.26c0.368,-0.344 0.792,-0.516 1.272,-0.516c0.592,0 1.064,0.2 1.416,0.6c0.352,0.4 0.528,0.896 0.528,1.488c0,0.816 -0.276,1.484 -0.828,2.004c-0.552,0.52 -1.252,0.78 -2.1,0.78c-0.928,0 -1.684,-0.34 -2.268,-1.02c-0.584,-0.68 -0.876,-1.492 -0.876,-2.436c0,-1.136 0.432,-2.072 1.296,-2.808c0.864,-0.736 1.872,-1.104 3.024,-1.104c1.28,0 2.324,0.424 3.132,1.272c0.808,0.848 1.212,1.872 1.212,3.072Zm-3.696,-0.072c0,-0.224 -0.08,-0.416 -0.24,-0.576c-0.16,-0.16 -0.352,-0.24 -0.576,-0.24c-0.224,0 -0.416,0.08 -0.576,0.24c-0.16,0.16 -0.24,0.352 -0.24,0.576c0,0.224 0.08,0.416 0.24,0.576c0.16,0.16 0.352,0.24 0.576,0.24c0.224,0 0.416,-0.08 0.576,-0.24c0.16,-0.16 0.24,-0.352 0.24,-0.576Z" style="fill-rule:nonzero;"/><path d="M31.508,49.868c0,-0.736 -0.26,-1.32 -0.78,-1.752c-0.52,-0.432 -1.14,-0.648 -1.86,-0.648c-0.72,0 -1.34,0.216 -1.86,0.648c-0.52,0.432 -0.78,1.016 -0.78,1.752c0,0.736 0.26,1.32 0.78,1.752c0.52,0.432 1.14,0.648 1.86,0.648c0.72,0 1.34,-0.216 1.86,-0.648c0.52,-0.432 0.78,-1.016 0.78,-1.752Zm1.584,0c0,1.104 -0.456,2.016 -1.368,2.736c-0.832,0.656 -1.784,0.984 -2.856,0.984c-1.088,0 -2.048,-0.328 -2.88,-0.984c-0.912,-0.72 -1.368,-1.632 -1.368,-2.736c0,-1.104 0.456,-2.016 1.368,-2.736c0.832,-0.656 1.792,-0.984 2.88,-0.984c1.072,0 2.024,0.328 2.856,0.984c0.912,0.72 1.368,1.632 1.368,2.736Z" style="fill-rule:nonzero;"/><path d="M42.452,49.868c0,-0.736 -0.26,-1.32 -0.78,-1.752c-0.52,-0.432 -1.14,-0.648 -1.86,-0.648c-0.72,0 -1.34,0.216 -1.86,0.648c-0.52,0.432 -0.78,1.016 -0.78,1.752c0,0.736 0.26,1.32 0.78,1.752c0.52,0.432 1.14,0.648 1.86,0.648c0.72,0 1.34,-0.216 1.86,-0.648c0.52,-0.432 0.78,-1.016 0.78,-1.752Zm1.584,0c0,1.104 -0.456,2.016 -1.368,2.736c-0.832,0.656 -1.784,0.984 -2.856,0.984c-1.088,0 -2.048,-0.328 -2.88,-0.984c-0.912,-0.72 -1.368,-1.632 -1.368,-2.736c0,-1.104 0.456,-2.016 1.368,-2.736c0.832,-0.656 1.792,-0.984 2.88,-0.984c1.072,0 2.024,0.328 2.856,0.984c0.912,0.72 1.368,1.632 1.368,2.736Z" style="fill-rule:nonzero;"/><path d="M53.396,49.868c0,-0.736 -0.26,-1.32 -0.78,-1.752c-0.52,-0.432 -1.14,-0.648 -1.86,-0.648c-0.72,0 -1.34,0.216 -1.86,0.648c-0.52,0.432 -0.78,1.016 -0.78,1.752c0,0.736 0.26,1.32 0.78,1.752c0.52,0.432 1.14,0.648 1.86,0.648c0.72,0 1.34,-0.216 1.86,-0.648c0.52,-0.432 0.78,-1.016 0.78,-1.752Zm1.584,0c0,1.104 -0.456,2.016 -1.368,2.736c-0.832,0.656 -1.784,0.984 -2.856,0.984c-1.088,0 -2.048,-0.328 -2.88,-0.984c-0.912,-0.72 -1.368,-1.632 -1.368,-2.736c0,-1.104 0.456,-2.016 1.368,-2.736c0.832,-0.656 1.792,-0.984 2.88,-0.984c1.072,0 2.024,0.328 2.856,0.984c0.912,0.72 1.368,1.632 1.368,2.736Z" style="fill-rule:nonzero;"/><path d="M64.34,49.868c0,-0.736 -0.26,-1.32 -0.78,-1.752c-0.52,-0.432 -1.14,-0.648 -1.86,-0.648c-0.72,0 -1.34,0.216 -1.86,0.648c-0.52,0.432 -0.78,1.016 -0.78,1.752c0,0.736 0.26,1.32 0.78,1.752c0.52,0.432 1.14,0.648 1.86,0.648c0.72,0 1.34,-0.216 1.86,-0.648c0.52,-0.432 0.78,-1.016 0.78,-1.752Zm1.584,0c0,1.104 -0.456,2.016 -1.368,2.736c-0.832,0.656 -1.784,0.984 -2.856,0.984c-1.088,0 -2.048,-0.328 -2.88,-0.984c-0.912,-0.72 -1.368,-1.632 -1.368,-2.736c0,-1.104 0.456,-2.016 1.368,-2.736c0.832,-0.656 1.792,-0.984 2.88,-0.984c1.072,0 2.024,0.328 2.856,0.984c0.912,0.72 1.368,1.632 1.368,2.736Z" style="fill-rule:nonzero;"/><path d="M75.284,49.868c0,-0.736 -0.26,-1.32 -0.78,-1.752c-0.52,-0.432 -1.14,-0.648 -1.86,-0.648c-0.72,0 -1.34,0.216 -1.86,0.648c-0.52,0.432 -0.78,1.016 -0.78,1.752c0,0.736 0.26,1.32 0.78,1.752c0.52,0.432 1.14,0.648 1.86,0.648c0.72,0 1.34,-0.216 1.86,-0.648c0.52,-0.432 0.78,-1.016 0.78,-1.752Zm1.584,0c0,1.104 -0.456,2.016 -1.368,2.736c-0.832,0.656 -1.784,0.984 -2.856,0.984c-1.088,0 -2.048,-0.328 -2.88,-0.984c-0.912,-0.72 -1.368,-1.632 -1.368,-2.736c0,-1.104 0.456,-2.016 1.368,-2.736c0.832,-0.656 1.792,-0.984 2.88,-0.984c1.072,0 2.024,0.328 2.856,0.984c0.912,0.72 1.368,1.632 1.368,2.736Z" style="fill-rule:nonzero;"/><path d="M86.228,49.868c0,-0.736 -0.26,-1.32 -0.78,-1.752c-0.52,-0.432 -1.14,-0.648 -1.86,-0.648c-0.72,0 -1.34,0.216 -1.86,0.648c-0.52,0.432 -0.78,1.016 -0.78,1.752c0,0.736 0.26,1.32 0.78,1.752c0.52,0.432 1.14,0.648 1.86,0.648c0.72,0 1.34,-0.216 1.86,-0.648c0.52,-0.432 0.78,-1.016 0.78,-1.752Zm1.584,0c0,1.104 -0.456,2.016 -1.368,2.736c-0.832,0.656 -1.784,0.984 -2.856,0.984c-1.088,0 -2.048,-0.328 -2.88,-0.984c-0.912,-0.72 -1.368,-1.632 -1.368,-2.736c0,-1.104 0.456,-2.016 1.368,-2.736c0.832,-0.656 1.792,-0.984 2.88,-0.984c1.072,0 2.024,0.328 2.856,0.984c0.912,0.72 1.368,1.632 1.368,2.736Z" style="fill-rule:nonzero;"/></g></svg>