<?xml version="1.0" encoding="UTF-8" standalone="no"?><!DOCTYPE svg PUBLIC "-//W3C//DTD SVG 1.1//EN" "http://www.w3.org/Graphics/SVG/1.1/DTD/svg11.dtd"><svg width="100%" height="100%" viewBox="0 0 100 100" version="1.1" xmlns="http://www.w3.org/2000/svg" xmlns:xlink="http://www.w3.org/1999/xlink" xml:space="preserve" xmlns:serif="http://www.serif.com/" style="fill-rule:evenodd;clip-rule:evenodd;stroke-linejoin:round;stroke-miterlimit:1.41421;"><rect id="numbers" x="-300" y="-200" width="600" height="300" style="fill:none;"/><g><path d="M24.404,50.774c0,1.92 -0.636,3.588 -1.908,5.004l-2.664,0c1.632,-1.56 2.448,-3.228 2.448,-5.004c0,-1.368 -0.402,-2.466 -1.206,-3.294c-0.804,-0.828 -1.89,-1.242 -3.258,-1.242c-1.176,0 -2.178,0.366 -3.006,1.098c-0.828,0.732 -1.242,1.638 -1.242,2.718c0,0.96 0.264,1.77 0.792,2.43c0.528,0.66 1.236,0.99 2.124,0.99c0.36,0 0.72,-0.06 1.08,-0.18c-0.84,0 -1.512,-0.288 -2.016,-0.864c-0.456,-0.504 -0.684,-1.092 -0.684,-1.764c0,-0.744 0.276,-1.374 0.828,-1.89c0.552,-0.516 1.188,-0.774 1.908,-0.774c0.888,0 1.596,0.3 2.124,0.9c0.528,0.6 0.792,1.344 0.792,2.232c0,1.224 -0.414,2.226 -1.242,3.006c-0.828,0.78 -1.878,1.17 -3.15,1.17c-1.392,0 -2.526,-0.51 -3.402,-1.53c-0.876,-1.02 -1.314,-2.238 -1.314,-3.654c0,-1.704 0.648,-3.108 1.944,-4.212c1.296,-1.104 2.808,-1.656 4.536,-1.656c1.92,0 3.486,0.636 4.698,1.908c1.212,1.272 1.818,2.808 1.818,4.608Zm-5.544,-0.108c0,-0.336 -0.12,-0.624 -0.36,-0.864c-0.24,-0.24 -0.528,-0.36 -0.864,-0.36c-0.336,0 -0.624,0.12 -0.864,0.36c-0.24,0.24 -0.36,0.528 -0.36,0.864c0,0.336 0.12,0.624 0.36,0.864c0.24,0.24 0.528,0.36 0.864,0.36c0.336,0 0.624,-0.12 0.864,-0.36c0.24,-0.24 0.36,-0.528 0.36,-0.864Z" style="fill-rule:nonzero;"/><path d="M38.3,49.802c0,-1.104 -0.39,-1.98 -1.17,-2.628c-0.78,-0.648 -1.71,-0.972 -2.79,-0.972c-1.08,0 -2.01,0.324 -2.79,0.972c-0.78,0.648 -1.17,1.524 -1.17,2.628c0,1.104 0.39,1.98 1.17,2.628c0.78,0.648 1.71,0.972 2.79,0.972c1.08,0 2.01,-0.324 2.79,-0.972c0.78,-0.648 1.17,-1.524 1.17,-2.628Zm2.376,0c0,1.656 -0.684,3.024 -2.052,4.104c-1.248,0.984 -2.676,1.476 -4.284,1.476c-1.632,0 -3.072,-0.492 -4.32,-1.476c-1.368,-1.08 -2.052,-2.448 -2.052,-4.104c0,-1.656 0.684,-3.024 2.052,-4.104c1.248,-0.984 2.688,-1.476 4.32,-1.476c1.608,0 3.036,0.492 4.284,1.476c1.368,1.08 2.052,2.448 2.052,4.104Z" style="fill-rule:nonzero;"/><path d="M54.716,49.802c0,-1.104 -0.39,-1.98 -1.17,-2.628c-0.78,-0.648 -1.71,-0.972 -2.79,-0.972c-1.08,0 -2.01,0.324 -2.79,0.972c-0.78,0.648 -1.17,1.524 -1.17,2.628c0,1.104 0.39,1.98 1.17,2.628c0.78,0.648 1.71,0.972 2.79,0.972c1.08,0 2.01,-0.324 2.79,-0.972c0.78,-0.648 1.17,-1.524 1.17,-2.628Zm2.376,0c0,1.656 -0.684,3.024 -2.052,4.104c-1.248,0.984 -2.676,1.476 -4.284,1.476c-1.632,0 -3.072,-0.492 -4.32,-1.476c-1.368,-1.08 -2.052,-2.448 -2.052,-4.104c0,-1.656 0.684,-3.024 2.052,-4.104c1.248,-0.984 2.688,-1.476 4.32,-1.476c1.608,0 3.036,0.492 4.284,1.476c1.368,1.08 2.052,2.448 2.052,4.104Z" style="fill-rule:nonzero;"/><path d="M71.132,49.802c0,-1.104 -0.39,-1.98 -1.17,-2.628c-0.78,-0.648 -1.71,-0.972 -2.79,-0.972c-1.08,0 -2.01,0.324 -2.79,0.972c-0.78,0.648 -1.17,1.524 -1.17,2.628c0,1.104 0.39,1.98 1.17,2.628c0.78,0.648 1.71,0.972 2.79,0.972c1.08,0 2.01,-0.324 2.79,-0.972c0.78,-0.648 1.17,-1.524 1.17,-2.628Zm2.376,0c0,1.656 -0.684,3.024 -2.052,4.104c-1.248,0.984 -2.676,1.476 -4.284,1.476c-1.632,0 -3.072,-0.492 -4.32,-1.476c-1.368,-1.08 -2.052,-2.448 -2.052,-4.104c0,-1.656 0.684,-3.024 2.052,-4.104c1.248,-0.984 2.688,-1.476 4.32,-1.476c1.608,0 3.036,0.492 4.284,1.476c1.368,1.08 2.052,2.448 2.052,4.104Z" style="fill-rule:nonzero;"/><path d="M87.548,49.802c0,-1.104 -0.39,-1.98 -1.17,-2.628c-0.78,-0.648 -1.71,-0.972 -2.79,-0.972c-1.08,0 -2.01,0.324 -2.79,0.972c-0.78,0.648 -1.17,1.524 -1.17,2.628c0,1.104 0.39,1.98 1.17,2.628c0.78,0.648 1.71,0.972 2.79,0.972c1.08,0 2.01,-0.324 2.79,-0.972c0.78,-0.648 1.17,-1.524 1.17,-2.628Zm2.376,0c0,1.656 -0.684,3.024 -2.052,4.104c-1.248,0.984 -2.676,1.476 -4.284,1.476c-1.632,0 -3.072,-0.492 -4.32,-1.476c-1.368,-1.08 -2.052,-2.448 -2.052,-4.104c0,-1.656 0.684,-3.024 2.052,-4.104c1.248,-0.984 2.688,-1.476 4.32,-1.476c1.608,0 3.036,0.492 4.284,1.476c1.368,1.08 2.052,2.448 2.052,4.104Z" style="fill-rule:nonzero;"/></g></svg>