<?xml version="1.0" encoding="UTF-8" standalone="no"?><!DOCTYPE svg PUBLIC "-//W3C//DTD SVG 1.1//EN" "http://www.w3.org/Graphics/SVG/1.1/DTD/svg11.dtd"><svg width="100%" height="100%" viewBox="0 0 100 100" version="1.1" xmlns="http://www.w3.org/2000/svg" xmlns:xlink="http://www.w3.org/1999/xlink" xml:space="preserve" xmlns:serif="http://www.serif.com/" style="fill-rule:evenodd;clip-rule:evenodd;stroke-linejoin:round;stroke-miterlimit:1.41421;"><rect id="numbers" x="-200" y="-100" width="600" height="300" style="fill:none;"/><path d="M65.012,59.036c0,1.632 -0.6,3.072 -1.8,4.32c-1.2,1.248 -2.64,1.872 -4.32,1.872c-3.456,0 -7.152,-1.824 -11.088,-5.472c-1.056,0.384 -2.196,1.236 -3.42,2.556c-1.224,1.32 -1.932,2.484 -2.124,3.492c-4.176,-2.832 -6.264,-6.816 -6.264,-11.952c0,-4.416 1.296,-7.416 3.888,-9c2.064,-1.248 5.64,-1.872 10.728,-1.872c3.696,0 6.264,-0.336 7.704,-1.008c1.92,-0.96 2.88,-2.856 2.88,-5.688l0,-0.648l4.176,0c0.048,0.384 0.072,0.912 0.072,1.584c0,4.224 -1.728,7.008 -5.184,8.352c-2.064,0.816 -5.808,1.224 -11.232,1.224c-5.952,0 -8.928,2.4 -8.928,7.2c0,2.88 0.672,4.752 2.016,5.616c0.528,-1.104 1.512,-2.076 2.952,-2.916c1.44,-0.84 2.76,-1.26 3.96,-1.26c1.104,1.44 2.424,2.496 3.96,3.168c0.048,-1.584 0.672,-2.928 1.872,-4.032c1.2,-1.104 2.544,-1.656 4.032,-1.656c1.728,0 3.18,0.6 4.356,1.8c1.176,1.2 1.764,2.64 1.764,4.32Zm-3.528,0c0,-0.672 -0.252,-1.272 -0.756,-1.8c-0.504,-0.528 -1.116,-0.792 -1.836,-0.792c-0.72,0 -1.332,0.264 -1.836,0.792c-0.504,0.528 -0.756,1.128 -0.756,1.8c0,0.72 0.252,1.332 0.756,1.836c0.504,0.504 1.116,0.756 1.836,0.756c0.72,0 1.332,-0.252 1.836,-0.756c0.504,-0.504 0.756,-1.116 0.756,-1.836Z" style="fill-rule:nonzero;"/></svg>