<?xml version="1.0" encoding="UTF-8" standalone="no"?><!DOCTYPE svg PUBLIC "-//W3C//DTD SVG 1.1//EN" "http://www.w3.org/Graphics/SVG/1.1/DTD/svg11.dtd"><svg width="100%" height="100%" viewBox="0 0 100 100" version="1.1" xmlns="http://www.w3.org/2000/svg" xmlns:xlink="http://www.w3.org/1999/xlink" xml:space="preserve" xmlns:serif="http://www.serif.com/" style="fill-rule:evenodd;clip-rule:evenodd;stroke-linejoin:round;stroke-miterlimit:1.41421;"><rect id="numbers" x="-200" y="-200" width="600" height="300" style="fill:none;"/><g><path d="M26.564,51.032c0,2.56 -0.848,4.784 -2.544,6.672l-3.552,0c2.176,-2.08 3.264,-4.304 3.264,-6.672c0,-1.824 -0.536,-3.288 -1.608,-4.392c-1.072,-1.104 -2.52,-1.656 -4.344,-1.656c-1.568,0 -2.904,0.488 -4.008,1.464c-1.104,0.976 -1.656,2.184 -1.656,3.624c0,1.28 0.352,2.36 1.056,3.24c0.704,0.88 1.648,1.32 2.832,1.32c0.48,0 0.96,-0.08 1.44,-0.24c-1.12,0 -2.016,-0.384 -2.688,-1.152c-0.608,-0.672 -0.912,-1.456 -0.912,-2.352c0,-0.992 0.368,-1.832 1.104,-2.52c0.736,-0.688 1.584,-1.032 2.544,-1.032c1.184,0 2.128,0.4 2.832,1.2c0.704,0.8 1.056,1.792 1.056,2.976c0,1.632 -0.552,2.968 -1.656,4.008c-1.104,1.04 -2.504,1.56 -4.2,1.56c-1.856,0 -3.368,-0.68 -4.536,-2.04c-1.168,-1.36 -1.752,-2.984 -1.752,-4.872c0,-2.272 0.864,-4.144 2.592,-5.616c1.728,-1.472 3.744,-2.208 6.048,-2.208c2.56,0 4.648,0.848 6.264,2.544c1.616,1.696 2.424,3.744 2.424,6.144Zm-7.392,-0.144c0,-0.448 -0.16,-0.832 -0.48,-1.152c-0.32,-0.32 -0.704,-0.48 -1.152,-0.48c-0.448,0 -0.832,0.16 -1.152,0.48c-0.32,0.32 -0.48,0.704 -0.48,1.152c0,0.448 0.16,0.832 0.48,1.152c0.32,0.32 0.704,0.48 1.152,0.48c0.448,0 0.832,-0.16 1.152,-0.48c0.32,-0.32 0.48,-0.704 0.48,-1.152Z" style="fill-rule:nonzero;"/><path d="M45.092,49.736c0,-1.472 -0.52,-2.64 -1.56,-3.504c-1.04,-0.864 -2.28,-1.296 -3.72,-1.296c-1.44,0 -2.68,0.432 -3.72,1.296c-1.04,0.864 -1.56,2.032 -1.56,3.504c0,1.472 0.52,2.64 1.56,3.504c1.04,0.864 2.28,1.296 3.72,1.296c1.44,0 2.68,-0.432 3.72,-1.296c1.04,-0.864 1.56,-2.032 1.56,-3.504Zm3.168,0c0,2.208 -0.912,4.032 -2.736,5.472c-1.664,1.312 -3.568,1.968 -5.712,1.968c-2.176,0 -4.096,-0.656 -5.76,-1.968c-1.824,-1.44 -2.736,-3.264 -2.736,-5.472c0,-2.208 0.912,-4.032 2.736,-5.472c1.664,-1.312 3.584,-1.968 5.76,-1.968c2.144,0 4.048,0.656 5.712,1.968c1.824,1.44 2.736,3.264 2.736,5.472Z" style="fill-rule:nonzero;"/><path d="M66.98,49.736c0,-1.472 -0.52,-2.64 -1.56,-3.504c-1.04,-0.864 -2.28,-1.296 -3.72,-1.296c-1.44,0 -2.68,0.432 -3.72,1.296c-1.04,0.864 -1.56,2.032 -1.56,3.504c0,1.472 0.52,2.64 1.56,3.504c1.04,0.864 2.28,1.296 3.72,1.296c1.44,0 2.68,-0.432 3.72,-1.296c1.04,-0.864 1.56,-2.032 1.56,-3.504Zm3.168,0c0,2.208 -0.912,4.032 -2.736,5.472c-1.664,1.312 -3.568,1.968 -5.712,1.968c-2.176,0 -4.096,-0.656 -5.76,-1.968c-1.824,-1.44 -2.736,-3.264 -2.736,-5.472c0,-2.208 0.912,-4.032 2.736,-5.472c1.664,-1.312 3.584,-1.968 5.76,-1.968c2.144,0 4.048,0.656 5.712,1.968c1.824,1.44 2.736,3.264 2.736,5.472Z" style="fill-rule:nonzero;"/><path d="M88.868,49.736c0,-1.472 -0.52,-2.64 -1.56,-3.504c-1.04,-0.864 -2.28,-1.296 -3.72,-1.296c-1.44,0 -2.68,0.432 -3.72,1.296c-1.04,0.864 -1.56,2.032 -1.56,3.504c0,1.472 0.52,2.64 1.56,3.504c1.04,0.864 2.28,1.296 3.72,1.296c1.44,0 2.68,-0.432 3.72,-1.296c1.04,-0.864 1.56,-2.032 1.56,-3.504Zm3.168,0c0,2.208 -0.912,4.032 -2.736,5.472c-1.664,1.312 -3.568,1.968 -5.712,1.968c-2.176,0 -4.096,-0.656 -5.76,-1.968c-1.824,-1.44 -2.736,-3.264 -2.736,-5.472c0,-2.208 0.912,-4.032 2.736,-5.472c1.664,-1.312 3.584,-1.968 5.76,-1.968c2.144,0 4.048,0.656 5.712,1.968c1.824,1.44 2.736,3.264 2.736,5.472Z" style="fill-rule:nonzero;"/></g></svg>