<?xml version="1.0" encoding="UTF-8" standalone="no"?><!DOCTYPE svg PUBLIC "-//W3C//DTD SVG 1.1//EN" "http://www.w3.org/Graphics/SVG/1.1/DTD/svg11.dtd"><svg width="100%" height="100%" viewBox="0 0 100 100" version="1.1" xmlns="http://www.w3.org/2000/svg" xmlns:xlink="http://www.w3.org/1999/xlink" xml:space="preserve" xmlns:serif="http://www.serif.com/" style="fill-rule:evenodd;clip-rule:evenodd;stroke-linejoin:round;stroke-miterlimit:1.41421;"><rect id="numbers" x="-100" y="-200" width="600" height="300" style="fill:none;"/><g><path d="M33.092,51.376c0,3.413 -1.131,6.379 -3.392,8.896l-4.736,0c2.901,-2.773 4.352,-5.739 4.352,-8.896c0,-2.432 -0.715,-4.384 -2.144,-5.856c-1.429,-1.472 -3.36,-2.208 -5.792,-2.208c-2.091,0 -3.872,0.651 -5.344,1.952c-1.472,1.301 -2.208,2.912 -2.208,4.832c0,1.707 0.469,3.147 1.408,4.32c0.939,1.173 2.197,1.76 3.776,1.76c0.64,0 1.28,-0.107 1.92,-0.32c-1.493,0 -2.688,-0.512 -3.584,-1.536c-0.811,-0.896 -1.216,-1.941 -1.216,-3.136c0,-1.323 0.491,-2.443 1.472,-3.36c0.981,-0.917 2.112,-1.376 3.392,-1.376c1.579,0 2.837,0.533 3.776,1.6c0.939,1.067 1.408,2.389 1.408,3.968c0,2.176 -0.736,3.957 -2.208,5.344c-1.472,1.387 -3.339,2.08 -5.6,2.08c-2.475,0 -4.491,-0.907 -6.048,-2.72c-1.557,-1.813 -2.336,-3.979 -2.336,-6.496c0,-3.029 1.152,-5.525 3.456,-7.488c2.304,-1.963 4.992,-2.944 8.064,-2.944c3.413,0 6.197,1.131 8.352,3.392c2.155,2.261 3.232,4.992 3.232,8.192Zm-9.856,-0.192c0,-0.597 -0.213,-1.109 -0.64,-1.536c-0.427,-0.427 -0.939,-0.64 -1.536,-0.64c-0.597,0 -1.109,0.213 -1.536,0.64c-0.427,0.427 -0.64,0.939 -0.64,1.536c0,0.597 0.213,1.109 0.64,1.536c0.427,0.427 0.939,0.64 1.536,0.64c0.597,0 1.109,-0.213 1.536,-0.64c0.427,-0.427 0.64,-0.939 0.64,-1.536Z" style="fill-rule:nonzero;"/><path d="M57.796,49.648c0,-1.963 -0.693,-3.52 -2.08,-4.672c-1.387,-1.152 -3.04,-1.728 -4.96,-1.728c-1.92,0 -3.573,0.576 -4.96,1.728c-1.387,1.152 -2.08,2.709 -2.08,4.672c0,1.963 0.693,3.52 2.08,4.672c1.387,1.152 3.04,1.728 4.96,1.728c1.92,0 3.573,-0.576 4.96,-1.728c1.387,-1.152 2.08,-2.709 2.08,-4.672Zm4.224,0c0,2.944 -1.216,5.376 -3.648,7.296c-2.219,1.749 -4.757,2.624 -7.616,2.624c-2.901,0 -5.461,-0.875 -7.68,-2.624c-2.432,-1.92 -3.648,-4.352 -3.648,-7.296c0,-2.944 1.216,-5.376 3.648,-7.296c2.219,-1.749 4.779,-2.624 7.68,-2.624c2.859,0 5.397,0.875 7.616,2.624c2.432,1.92 3.648,4.352 3.648,7.296Z" style="fill-rule:nonzero;"/><path d="M86.98,49.648c0,-1.963 -0.693,-3.52 -2.08,-4.672c-1.387,-1.152 -3.04,-1.728 -4.96,-1.728c-1.92,0 -3.573,0.576 -4.96,1.728c-1.387,1.152 -2.08,2.709 -2.08,4.672c0,1.963 0.693,3.52 2.08,4.672c1.387,1.152 3.04,1.728 4.96,1.728c1.92,0 3.573,-0.576 4.96,-1.728c1.387,-1.152 2.08,-2.709 2.08,-4.672Zm4.224,0c0,2.944 -1.216,5.376 -3.648,7.296c-2.219,1.749 -4.757,2.624 -7.616,2.624c-2.901,0 -5.461,-0.875 -7.68,-2.624c-2.432,-1.92 -3.648,-4.352 -3.648,-7.296c0,-2.944 1.216,-5.376 3.648,-7.296c2.219,-1.749 4.779,-2.624 7.68,-2.624c2.859,0 5.397,0.875 7.616,2.624c2.432,1.92 3.648,4.352 3.648,7.296Z" style="fill-rule:nonzero;"/></g></svg>