<?xml version="1.0" encoding="UTF-8" standalone="no"?><!DOCTYPE svg PUBLIC "-//W3C//DTD SVG 1.1//EN" "http://www.w3.org/Graphics/SVG/1.1/DTD/svg11.dtd"><svg width="100%" height="100%" viewBox="0 0 100 100" version="1.1" xmlns="http://www.w3.org/2000/svg" xmlns:xlink="http://www.w3.org/1999/xlink" xml:space="preserve" xmlns:serif="http://www.serif.com/" style="fill-rule:evenodd;clip-rule:evenodd;stroke-linejoin:round;stroke-miterlimit:1.41421;"><rect id="numbers" x="-400" y="-200" width="600" height="300" style="fill:none;"/><g><path d="M21.956,50.645c0,1.6 -0.53,2.99 -1.59,4.17l-2.22,0c1.36,-1.3 2.04,-2.69 2.04,-4.17c0,-1.14 -0.335,-2.055 -1.005,-2.745c-0.67,-0.69 -1.575,-1.035 -2.715,-1.035c-0.98,0 -1.815,0.305 -2.505,0.915c-0.69,0.61 -1.035,1.365 -1.035,2.265c0,0.8 0.22,1.475 0.66,2.025c0.44,0.55 1.03,0.825 1.77,0.825c0.3,0 0.6,-0.05 0.9,-0.15c-0.7,0 -1.26,-0.24 -1.68,-0.72c-0.38,-0.42 -0.57,-0.91 -0.57,-1.47c0,-0.62 0.23,-1.145 0.69,-1.575c0.46,-0.43 0.99,-0.645 1.59,-0.645c0.74,0 1.33,0.25 1.77,0.75c0.44,0.5 0.66,1.12 0.66,1.86c0,1.02 -0.345,1.855 -1.035,2.505c-0.69,0.65 -1.565,0.975 -2.625,0.975c-1.16,0 -2.105,-0.425 -2.835,-1.275c-0.73,-0.85 -1.095,-1.865 -1.095,-3.045c0,-1.42 0.54,-2.59 1.62,-3.51c1.08,-0.92 2.34,-1.38 3.78,-1.38c1.6,0 2.905,0.53 3.915,1.59c1.01,1.06 1.515,2.34 1.515,3.84Zm-4.62,-0.09c0,-0.28 -0.1,-0.52 -0.3,-0.72c-0.2,-0.2 -0.44,-0.3 -0.72,-0.3c-0.28,0 -0.52,0.1 -0.72,0.3c-0.2,0.2 -0.3,0.44 -0.3,0.72c0,0.28 0.1,0.52 0.3,0.72c0.2,0.2 0.44,0.3 0.72,0.3c0.28,0 0.52,-0.1 0.72,-0.3c0.2,-0.2 0.3,-0.44 0.3,-0.72Z" style="fill-rule:nonzero;"/><path d="M33.536,49.835c0,-0.92 -0.325,-1.65 -0.975,-2.19c-0.65,-0.54 -1.425,-0.81 -2.325,-0.81c-0.9,0 -1.675,0.27 -2.325,0.81c-0.65,0.54 -0.975,1.27 -0.975,2.19c0,0.92 0.325,1.65 0.975,2.19c0.65,0.54 1.425,0.81 2.325,0.81c0.9,0 1.675,-0.27 2.325,-0.81c0.65,-0.54 0.975,-1.27 0.975,-2.19Zm1.98,0c0,1.38 -0.57,2.52 -1.71,3.42c-1.04,0.82 -2.23,1.23 -3.57,1.23c-1.36,0 -2.56,-0.41 -3.6,-1.23c-1.14,-0.9 -1.71,-2.04 -1.71,-3.42c0,-1.38 0.57,-2.52 1.71,-3.42c1.04,-0.82 2.24,-1.23 3.6,-1.23c1.34,0 2.53,0.41 3.57,1.23c1.14,0.9 1.71,2.04 1.71,3.42Z" style="fill-rule:nonzero;"/><path d="M47.216,49.835c0,-0.92 -0.325,-1.65 -0.975,-2.19c-0.65,-0.54 -1.425,-0.81 -2.325,-0.81c-0.9,0 -1.675,0.27 -2.325,0.81c-0.65,0.54 -0.975,1.27 -0.975,2.19c0,0.92 0.325,1.65 0.975,2.19c0.65,0.54 1.425,0.81 2.325,0.81c0.9,0 1.675,-0.27 2.325,-0.81c0.65,-0.54 0.975,-1.27 0.975,-2.19Zm1.98,0c0,1.38 -0.57,2.52 -1.71,3.42c-1.04,0.82 -2.23,1.23 -3.57,1.23c-1.36,0 -2.56,-0.41 -3.6,-1.23c-1.14,-0.9 -1.71,-2.04 -1.71,-3.42c0,-1.38 0.57,-2.52 1.71,-3.42c1.04,-0.82 2.24,-1.23 3.6,-1.23c1.34,0 2.53,0.41 3.57,1.23c1.14,0.9 1.71,2.04 1.71,3.42Z" style="fill-rule:nonzero;"/><path d="M60.896,49.835c0,-0.92 -0.325,-1.65 -0.975,-2.19c-0.65,-0.54 -1.425,-0.81 -2.325,-0.81c-0.9,0 -1.675,0.27 -2.325,0.81c-0.65,0.54 -0.975,1.27 -0.975,2.19c0,0.92 0.325,1.65 0.975,2.19c0.65,0.54 1.425,0.81 2.325,0.81c0.9,0 1.675,-0.27 2.325,-0.81c0.65,-0.54 0.975,-1.27 0.975,-2.19Zm1.98,0c0,1.38 -0.57,2.52 -1.71,3.42c-1.04,0.82 -2.23,1.23 -3.57,1.23c-1.36,0 -2.56,-0.41 -3.6,-1.23c-1.14,-0.9 -1.71,-2.04 -1.71,-3.42c0,-1.38 0.57,-2.52 1.71,-3.42c1.04,-0.82 2.24,-1.23 3.6,-1.23c1.34,0 2.53,0.41 3.57,1.23c1.14,0.9 1.71,2.04 1.71,3.42Z" style="fill-rule:nonzero;"/><path d="M74.576,49.835c0,-0.92 -0.325,-1.65 -0.975,-2.19c-0.65,-0.54 -1.425,-0.81 -2.325,-0.81c-0.9,0 -1.675,0.27 -2.325,0.81c-0.65,0.54 -0.975,1.27 -0.975,2.19c0,0.92 0.325,1.65 0.975,2.19c0.65,0.54 1.425,0.81 2.325,0.81c0.9,0 1.675,-0.27 2.325,-0.81c0.65,-0.54 0.975,-1.27 0.975,-2.19Zm1.98,0c0,1.38 -0.57,2.52 -1.71,3.42c-1.04,0.82 -2.23,1.23 -3.57,1.23c-1.36,0 -2.56,-0.41 -3.6,-1.23c-1.14,-0.9 -1.71,-2.04 -1.71,-3.42c0,-1.38 0.57,-2.52 1.71,-3.42c1.04,-0.82 2.24,-1.23 3.6,-1.23c1.34,0 2.53,0.41 3.57,1.23c1.14,0.9 1.71,2.04 1.71,3.42Z" style="fill-rule:nonzero;"/><path d="M88.256,49.835c0,-0.92 -0.325,-1.65 -0.975,-2.19c-0.65,-0.54 -1.425,-0.81 -2.325,-0.81c-0.9,0 -1.675,0.27 -2.325,0.81c-0.65,0.54 -0.975,1.27 -0.975,2.19c0,0.92 0.325,1.65 0.975,2.19c0.65,0.54 1.425,0.81 2.325,0.81c0.9,0 1.675,-0.27 2.325,-0.81c0.65,-0.54 0.975,-1.27 0.975,-2.19Zm1.98,0c0,1.38 -0.57,2.52 -1.71,3.42c-1.04,0.82 -2.23,1.23 -3.57,1.23c-1.36,0 -2.56,-0.41 -3.6,-1.23c-1.14,-0.9 -1.71,-2.04 -1.71,-3.42c0,-1.38 0.57,-2.52 1.71,-3.42c1.04,-0.82 2.24,-1.23 3.6,-1.23c1.34,0 2.53,0.41 3.57,1.23c1.14,0.9 1.71,2.04 1.71,3.42Z" style="fill-rule:nonzero;"/></g></svg>