<?xml version="1.0" encoding="UTF-8" standalone="no"?><!DOCTYPE svg PUBLIC "-//W3C//DTD SVG 1.1//EN" "http://www.w3.org/Graphics/SVG/1.1/DTD/svg11.dtd"><svg width="100%" height="100%" viewBox="0 0 100 100" version="1.1" xmlns="http://www.w3.org/2000/svg" xmlns:xlink="http://www.w3.org/1999/xlink" xml:space="preserve" xmlns:serif="http://www.serif.com/" style="fill-rule:evenodd;clip-rule:evenodd;stroke-linejoin:round;stroke-miterlimit:1.41421;"><rect id="numbers" x="-300" y="0" width="600" height="300" style="fill:none;"/><path d="M64.292,64.652l-4.176,0l0,-13.68c0,-2.736 -0.96,-4.104 -2.88,-4.104c-0.96,0 -1.776,0.456 -2.448,1.368c-0.672,0.912 -1.008,1.896 -1.008,2.952l0,13.464l-4.248,0l0,-13.464c0,-2.832 -1.536,-4.248 -4.608,-4.248c-1.728,0 -3,1.032 -3.816,3.096c-0.576,1.488 -0.864,3.216 -0.864,5.184c0.768,-0.432 1.608,-0.648 2.52,-0.648c1.488,0 2.76,0.492 3.816,1.476c1.056,0.984 1.584,2.244 1.584,3.78c0,1.44 -0.48,2.64 -1.44,3.6c-1.008,1.104 -2.352,1.68 -4.032,1.728c-2.304,0.048 -4.032,-1.056 -5.184,-3.312c-0.864,-1.776 -1.296,-3.936 -1.296,-6.48c0,-3.264 0.696,-6.048 2.088,-8.352c1.632,-2.688 3.912,-4.032 6.84,-4.032c2.832,0 4.968,1.08 6.408,3.24c1.344,-2.208 3.288,-3.288 5.832,-3.24c2.208,0 3.912,0.756 5.112,2.268c1.2,1.512 1.8,3.396 1.8,5.652l0,13.752Zm-19.152,-4.608c0,-0.672 -0.228,-1.236 -0.684,-1.692c-0.456,-0.456 -1.02,-0.684 -1.692,-0.684c-0.672,0 -1.224,0.228 -1.656,0.684c-0.432,0.456 -0.648,1.02 -0.648,1.692c0,0.672 0.216,1.224 0.648,1.656c0.432,0.432 0.984,0.648 1.656,0.648c0.672,0 1.236,-0.216 1.692,-0.648c0.456,-0.432 0.684,-0.984 0.684,-1.656Z" style="fill-rule:nonzero;"/></svg>