<?xml version="1.0" encoding="UTF-8" standalone="no"?><!DOCTYPE svg PUBLIC "-//W3C//DTD SVG 1.1//EN" "http://www.w3.org/Graphics/SVG/1.1/DTD/svg11.dtd"><svg width="100%" height="100%" viewBox="0 0 100 100" version="1.1" xmlns="http://www.w3.org/2000/svg" xmlns:xlink="http://www.w3.org/1999/xlink" xml:space="preserve" xmlns:serif="http://www.serif.com/" style="fill-rule:evenodd;clip-rule:evenodd;stroke-linejoin:round;stroke-miterlimit:1.41421;"><rect id="numbers" x="-400" y="-100" width="600" height="300" style="fill:none;"/><g><path d="M47.3,56.084c0,3.84 -1.272,7.176 -3.816,10.008l-5.328,0c3.264,-3.12 4.896,-6.456 4.896,-10.008c0,-2.736 -0.804,-4.932 -2.412,-6.588c-1.608,-1.656 -3.78,-2.484 -6.516,-2.484c-2.352,0 -4.356,0.732 -6.012,2.196c-1.656,1.464 -2.484,3.276 -2.484,5.436c0,1.92 0.528,3.54 1.584,4.86c1.056,1.32 2.472,1.98 4.248,1.98c0.72,0 1.44,-0.12 2.16,-0.36c-1.68,0 -3.024,-0.576 -4.032,-1.728c-0.912,-1.008 -1.368,-2.184 -1.368,-3.528c0,-1.488 0.552,-2.748 1.656,-3.78c1.104,-1.032 2.376,-1.548 3.816,-1.548c1.776,0 3.192,0.6 4.248,1.8c1.056,1.2 1.584,2.688 1.584,4.464c0,2.448 -0.828,4.452 -2.484,6.012c-1.656,1.56 -3.756,2.34 -6.3,2.34c-2.784,0 -5.052,-1.02 -6.804,-3.06c-1.752,-2.04 -2.628,-4.476 -2.628,-7.308c0,-3.408 1.296,-6.216 3.888,-8.424c2.592,-2.208 5.616,-3.312 9.072,-3.312c3.84,0 6.972,1.272 9.396,3.816c2.424,2.544 3.636,5.616 3.636,9.216Zm-11.088,-0.216c0,-0.672 -0.24,-1.248 -0.72,-1.728c-0.48,-0.48 -1.056,-0.72 -1.728,-0.72c-0.672,0 -1.248,0.24 -1.728,0.72c-0.48,0.48 -0.72,1.056 -0.72,1.728c0,0.672 0.24,1.248 0.72,1.728c0.48,0.48 1.056,0.72 1.728,0.72c0.672,0 1.248,-0.24 1.728,-0.72c0.48,-0.48 0.72,-1.056 0.72,-1.728Z" style="fill-rule:nonzero;"/><path d="M75.092,54.14c0,-2.208 -0.78,-3.96 -2.34,-5.256c-1.56,-1.296 -3.42,-1.944 -5.58,-1.944c-2.16,0 -4.02,0.648 -5.58,1.944c-1.56,1.296 -2.34,3.048 -2.34,5.256c0,2.208 0.78,3.96 2.34,5.256c1.56,1.296 3.42,1.944 5.58,1.944c2.16,0 4.02,-0.648 5.58,-1.944c1.56,-1.296 2.34,-3.048 2.34,-5.256Zm4.752,0c0,3.312 -1.368,6.048 -4.104,8.208c-2.496,1.968 -5.352,2.952 -8.568,2.952c-3.264,0 -6.144,-0.984 -8.64,-2.952c-2.736,-2.16 -4.104,-4.896 -4.104,-8.208c0,-3.312 1.368,-6.048 4.104,-8.208c2.496,-1.968 5.376,-2.952 8.64,-2.952c3.216,0 6.072,0.984 8.568,2.952c2.736,2.16 4.104,4.896 4.104,8.208Z" style="fill-rule:nonzero;"/></g></svg>