<?xml version="1.0" encoding="UTF-8" standalone="no"?><!DOCTYPE svg PUBLIC "-//W3C//DTD SVG 1.1//EN" "http://www.w3.org/Graphics/SVG/1.1/DTD/svg11.dtd"><svg width="100%" height="100%" viewBox="0 0 100 100" version="1.1" xmlns="http://www.w3.org/2000/svg" xmlns:xlink="http://www.w3.org/1999/xlink" xml:space="preserve" xmlns:serif="http://www.serif.com/" style="fill-rule:evenodd;clip-rule:evenodd;stroke-linejoin:round;stroke-miterlimit:1.41421;"><rect id="numbers" x="-200" y="0" width="600" height="300" style="fill:none;"/><path d="M64.652,59.612c0,3.36 -1.608,5.04 -4.824,5.04l-18.648,0c-2.688,0 -4.032,-1.56 -4.032,-4.68l0,-20.376c0,-0.624 -0.24,-1.032 -0.72,-1.224c-0.048,0 -0.48,-0.048 -1.296,-0.144l0,-3.672c2.112,0 3.648,0.312 4.608,0.936c1.2,0.768 1.8,2.16 1.8,4.176l0,18.936c0,1.536 0.672,2.304 2.016,2.304l14.832,0c1.248,0 1.872,-0.576 1.872,-1.728l0,-9.72c0,-1.728 -0.528,-2.592 -1.584,-2.592c-1.536,0 -2.304,1.392 -2.304,4.176l-2.88,0c-0.528,-2.88 -1.656,-4.32 -3.384,-4.32c-0.72,0 -1.308,0.312 -1.764,0.936c-0.456,0.624 -0.708,1.32 -0.756,2.088l0.576,0c1.392,0 2.556,0.468 3.492,1.404c0.936,0.936 1.404,2.076 1.404,3.42c0,1.392 -0.468,2.556 -1.404,3.492c-0.936,0.936 -2.1,1.404 -3.492,1.404c-3.744,0 -5.616,-2.16 -5.616,-6.48c0,-2.832 0.6,-5.16 1.8,-6.984c1.344,-2.064 3.264,-3.096 5.76,-3.096c2.352,0 3.888,0.936 4.608,2.808c0.816,-1.872 2.232,-2.808 4.248,-2.808c1.776,0 3.168,0.648 4.176,1.944c1.008,1.296 1.512,2.784 1.512,4.464l0,10.296Zm-14.328,-4.968c0,-0.624 -0.204,-1.14 -0.612,-1.548c-0.408,-0.408 -0.924,-0.612 -1.548,-0.612c-0.624,0 -1.128,0.204 -1.512,0.612c-0.384,0.408 -0.576,0.924 -0.576,1.548c0,0.624 0.192,1.128 0.576,1.512c0.384,0.384 0.888,0.576 1.512,0.576c0.624,0 1.14,-0.192 1.548,-0.576c0.408,-0.384 0.612,-0.888 0.612,-1.512Z" style="fill-rule:nonzero;"/></svg>