<?xml version="1.0" encoding="UTF-8" standalone="no"?><!DOCTYPE svg PUBLIC "-//W3C//DTD SVG 1.1//EN" "http://www.w3.org/Graphics/SVG/1.1/DTD/svg11.dtd"><svg width="100%" height="100%" viewBox="0 0 100 100" version="1.1" xmlns="http://www.w3.org/2000/svg" xmlns:xlink="http://www.w3.org/1999/xlink" xml:space="preserve" xmlns:serif="http://www.serif.com/" style="fill-rule:evenodd;clip-rule:evenodd;stroke-linejoin:round;stroke-miterlimit:1.41421;"><rect id="numbers" x="0" y="0" width="600" height="300" style="fill:none;"/><path d="M58.676,54.14c0,-2.208 -0.78,-3.96 -2.34,-5.256c-1.56,-1.296 -3.42,-1.944 -5.58,-1.944c-2.16,0 -4.02,0.648 -5.58,1.944c-1.56,1.296 -2.34,3.048 -2.34,5.256c0,2.208 0.78,3.96 2.34,5.256c1.56,1.296 3.42,1.944 5.58,1.944c2.16,0 4.02,-0.648 5.58,-1.944c1.56,-1.296 2.34,-3.048 2.34,-5.256Zm4.752,0c0,3.312 -1.368,6.048 -4.104,8.208c-2.496,1.968 -5.352,2.952 -8.568,2.952c-3.264,0 -6.144,-0.984 -8.64,-2.952c-2.736,-2.16 -4.104,-4.896 -4.104,-8.208c0,-3.312 1.368,-6.048 4.104,-8.208c2.496,-1.968 5.376,-2.952 8.64,-2.952c3.216,0 6.072,0.984 8.568,2.952c2.736,2.16 4.104,4.896 4.104,8.208Z" style="fill-rule:nonzero;"/></svg>