<?xml version="1.0" encoding="UTF-8" standalone="no"?><!DOCTYPE svg PUBLIC "-//W3C//DTD SVG 1.1//EN" "http://www.w3.org/Graphics/SVG/1.1/DTD/svg11.dtd"><svg width="100%" height="100%" viewBox="0 0 100 100" version="1.1" xmlns="http://www.w3.org/2000/svg" xmlns:xlink="http://www.w3.org/1999/xlink" xml:space="preserve" xmlns:serif="http://www.serif.com/" style="fill-rule:evenodd;clip-rule:evenodd;stroke-linejoin:round;stroke-miterlimit:1.41421;"><rect id="tones-mark" x="-100" y="0" width="400" height="100" style="fill:none;"/><path d="M64.772,70.592c0,3.328 -1.504,5.792 -4.512,7.392c-2.432,1.344 -5.568,2.016 -9.408,2.016c-3.84,0 -6.944,-0.672 -9.312,-2.016c-2.88,-1.6 -4.32,-4.064 -4.32,-7.392l0,-9.696c0,-2.304 0.64,-4.24 1.92,-5.808c1.28,-1.568 3.104,-2.352 5.472,-2.352c2.048,0 3.776,0.688 5.184,2.064c1.408,1.376 2.112,3.088 2.112,5.136c0,1.984 -0.704,3.68 -2.112,5.088c-1.408,1.408 -3.136,2.112 -5.184,2.112c-0.576,0 -1.056,-0.064 -1.44,-0.192l0,2.976c0,3.328 2.592,4.992 7.776,4.992c5.248,0 7.872,-1.696 7.872,-5.088l0,-18.432c0,-2.112 -0.992,-3.712 -2.976,-4.8c-1.664,-0.896 -3.712,-1.344 -6.144,-1.344c-6.08,0 -9.376,1.568 -9.888,4.704l-5.76,0c0.832,-6.464 5.888,-9.728 15.168,-9.792c4.288,0 7.808,0.8 10.56,2.4c3.328,2.048 4.992,5.12 4.992,9.216l0,18.816Zm-16.896,-10.656c0,-0.896 -0.32,-1.664 -0.96,-2.304c-0.64,-0.64 -1.408,-0.96 -2.304,-0.96c-0.896,0 -1.664,0.32 -2.304,0.96c-0.64,0.64 -0.96,1.408 -0.96,2.304c0,0.896 0.32,1.664 0.96,2.304c0.64,0.64 1.408,0.96 2.304,0.96c0.896,0 1.664,-0.32 2.304,-0.96c0.64,-0.64 0.96,-1.408 0.96,-2.304Z" style="fill:#ababab;fill-rule:nonzero;"/><path d="M70.628,18.08c-0.64,3.392 -1.536,6.24 -2.688,8.544c-1.152,2.304 -2.624,4.144 -4.416,5.52c-1.792,1.376 -3.888,2.352 -6.288,2.928c-2.4,0.576 -5.168,0.864 -8.304,0.864l-3.168,0l0,-3.84c1.28,-0.064 2.352,-0.512 3.216,-1.344c0.864,-0.832 1.456,-1.664 1.776,-2.496c-1.6,-0.256 -2.864,-0.96 -3.792,-2.112c-0.928,-1.152 -1.392,-2.56 -1.392,-4.224c0,-1.728 0.624,-3.168 1.872,-4.32c1.248,-1.152 2.704,-1.728 4.368,-1.728c1.92,0 3.424,0.608 4.512,1.824c1.088,1.216 1.632,2.752 1.632,4.608c0,1.856 -0.448,3.648 -1.344,5.376c-0.896,1.728 -1.824,3.072 -2.784,4.032c3.2,-0.576 5.808,-2.128 7.824,-4.656c2.016,-2.528 3.088,-5.52 3.216,-8.976l5.76,0Zm-16.416,4.032c0,-0.704 -0.24,-1.296 -0.72,-1.776c-0.48,-0.48 -1.072,-0.72 -1.776,-0.72c-0.704,0 -1.28,0.24 -1.728,0.72c-0.448,0.48 -0.672,1.072 -0.672,1.776c0,0.704 0.224,1.296 0.672,1.776c0.448,0.48 1.024,0.72 1.728,0.72c0.704,0 1.296,-0.24 1.776,-0.72c0.48,-0.48 0.72,-1.072 0.72,-1.776Z" style="fill-rule:nonzero;"/></svg>