<?xml version="1.0" encoding="UTF-8" standalone="no"?><!DOCTYPE svg PUBLIC "-//W3C//DTD SVG 1.1//EN" "http://www.w3.org/Graphics/SVG/1.1/DTD/svg11.dtd"><svg width="100%" height="100%" viewBox="0 0 100 100" version="1.1" xmlns="http://www.w3.org/2000/svg" xmlns:xlink="http://www.w3.org/1999/xlink" xml:space="preserve" xmlns:serif="http://www.serif.com/" style="fill-rule:evenodd;clip-rule:evenodd;stroke-linejoin:round;stroke-miterlimit:1.41421;"><rect id="tones-mark" x="-200" y="0" width="400" height="100" style="fill:none;"/><path d="M64.772,70.592c0,3.328 -1.504,5.792 -4.512,7.392c-2.432,1.344 -5.568,2.016 -9.408,2.016c-3.84,0 -6.944,-0.672 -9.312,-2.016c-2.88,-1.6 -4.32,-4.064 -4.32,-7.392l0,-9.696c0,-2.304 0.64,-4.24 1.92,-5.808c1.28,-1.568 3.104,-2.352 5.472,-2.352c2.048,0 3.776,0.688 5.184,2.064c1.408,1.376 2.112,3.088 2.112,5.136c0,1.984 -0.704,3.68 -2.112,5.088c-1.408,1.408 -3.136,2.112 -5.184,2.112c-0.576,0 -1.056,-0.064 -1.44,-0.192l0,2.976c0,3.328 2.592,4.992 7.776,4.992c5.248,0 7.872,-1.696 7.872,-5.088l0,-18.432c0,-2.112 -0.992,-3.712 -2.976,-4.8c-1.664,-0.896 -3.712,-1.344 -6.144,-1.344c-6.08,0 -9.376,1.568 -9.888,4.704l-5.76,0c0.832,-6.464 5.888,-9.728 15.168,-9.792c4.288,0 7.808,0.8 10.56,2.4c3.328,2.048 4.992,5.12 4.992,9.216l0,18.816Zm-16.896,-10.656c0,-0.896 -0.32,-1.664 -0.96,-2.304c-0.64,-0.64 -1.408,-0.96 -2.304,-0.96c-0.896,0 -1.664,0.32 -2.304,0.96c-0.64,0.64 -0.96,1.408 -0.96,2.304c0,0.896 0.32,1.664 0.96,2.304c0.64,0.64 1.408,0.96 2.304,0.96c0.896,0 1.664,-0.32 2.304,-0.96c0.64,-0.64 0.96,-1.408 0.96,-2.304Z" style="fill:#ababab;fill-rule:nonzero;"/><path d="M67.652,18.848c-0.32,10.944 -5.6,16.416 -15.84,16.416l0,-3.072c2.688,-1.344 4.032,-3.424 4.032,-6.24c0,-2.048 -0.992,-3.328 -2.976,-3.84l-3.264,3.264l-3.36,-3.552c-0.512,0.128 -1.072,0.432 -1.68,0.912c-0.608,0.48 -1.072,0.944 -1.392,1.392c1.664,0 3.072,0.56 4.224,1.68c1.152,1.12 1.728,2.512 1.728,4.176c0,1.6 -0.576,2.944 -1.728,4.032c-1.152,1.088 -2.496,1.632 -4.032,1.632c-1.6,0 -2.976,-0.528 -4.128,-1.584c-1.152,-1.056 -1.728,-2.544 -1.728,-4.464c0,-1.28 0.16,-2.56 0.48,-3.84c0.32,-1.28 0.864,-2.448 1.632,-3.504c0.768,-1.056 1.776,-1.968 3.024,-2.736c1.248,-0.768 2.8,-1.248 4.656,-1.44l2.4,2.784l2.4,-2.784c2.24,0.064 4.048,0.8 5.424,2.208c1.376,1.408 2.064,3.2 2.064,5.376c0,1.984 -0.416,3.712 -1.248,5.184c1.472,-0.896 2.656,-2.4 3.552,-4.512c0.896,-2.112 1.344,-4.608 1.344,-7.488l4.416,0Zm-21.792,11.136c0,-0.704 -0.256,-1.328 -0.768,-1.872c-0.512,-0.544 -1.12,-0.816 -1.824,-0.816c-0.704,0 -1.328,0.272 -1.872,0.816c-0.544,0.544 -0.816,1.168 -0.816,1.872c0,0.704 0.272,1.312 0.816,1.824c0.544,0.512 1.168,0.768 1.872,0.768c0.704,0 1.312,-0.256 1.824,-0.768c0.512,-0.512 0.768,-1.12 0.768,-1.824Z" style="fill-rule:nonzero;"/></svg>