<?xml version="1.0" encoding="UTF-8" standalone="no"?><!DOCTYPE svg PUBLIC "-//W3C//DTD SVG 1.1//EN" "http://www.w3.org/Graphics/SVG/1.1/DTD/svg11.dtd"><svg width="100%" height="100%" viewBox="0 0 100 100" version="1.1" xmlns="http://www.w3.org/2000/svg" xmlns:xlink="http://www.w3.org/1999/xlink" xml:space="preserve" xmlns:serif="http://www.serif.com/" style="fill-rule:evenodd;clip-rule:evenodd;stroke-linejoin:round;stroke-miterlimit:1.41421;"><rect id="vowels-long" x="0" y="-100" width="300" height="900" style="fill:none;"/><path d="M41.14,65.579c0,1.536 -0.54,2.832 -1.62,3.888c-1.08,1.056 -2.364,1.584 -3.852,1.584c-1.632,0 -3,-0.552 -4.104,-1.656c-1.104,-1.104 -1.656,-2.496 -1.656,-4.176l0,-23.472l4.464,0l0,18.504c0.24,-0.096 0.672,-0.144 1.296,-0.144c1.488,0 2.772,0.528 3.852,1.584c1.08,1.056 1.62,2.352 1.62,3.888Zm13.464,0c0,1.536 -0.54,2.832 -1.62,3.888c-1.08,1.056 -2.364,1.584 -3.852,1.584c-1.632,0 -3,-0.552 -4.104,-1.656c-1.104,-1.104 -1.656,-2.496 -1.656,-4.176l0,-23.472l4.464,0l0,18.504c0.24,-0.096 0.672,-0.144 1.296,-0.144c1.488,0 2.772,0.528 3.852,1.584c1.08,1.056 1.62,2.352 1.62,3.888Zm-16.488,0c0,-0.672 -0.24,-1.248 -0.72,-1.728c-0.48,-0.48 -1.056,-0.72 -1.728,-0.72c-0.672,0 -1.248,0.24 -1.728,0.72c-0.48,0.48 -0.72,1.056 -0.72,1.728c0,0.672 0.24,1.248 0.72,1.728c0.48,0.48 1.056,0.72 1.728,0.72c0.672,0 1.248,-0.24 1.728,-0.72c0.48,-0.48 0.72,-1.056 0.72,-1.728Zm13.464,0c0,-0.672 -0.24,-1.248 -0.72,-1.728c-0.48,-0.48 -1.056,-0.72 -1.728,-0.72c-0.672,0 -1.248,0.24 -1.728,0.72c-0.48,0.48 -0.72,1.056 -0.72,1.728c0,0.672 0.24,1.248 0.72,1.728c0.48,0.48 1.056,0.72 1.728,0.72c0.672,0 1.248,-0.24 1.728,-0.72c0.48,-0.48 0.72,-1.056 0.72,-1.728Z" style="fill-rule:nonzero;"/><rect x="55.828" y="55.283" width="14.4" height="3.888" style="fill:#ababab;fill-rule:nonzero;"/></svg>