<?xml version="1.0" encoding="UTF-8" standalone="no"?><!DOCTYPE svg PUBLIC "-//W3C//DTD SVG 1.1//EN" "http://www.w3.org/Graphics/SVG/1.1/DTD/svg11.dtd"><svg width="100%" height="100%" viewBox="0 0 100 100" version="1.1" xmlns="http://www.w3.org/2000/svg" xmlns:xlink="http://www.w3.org/1999/xlink" xml:space="preserve" xmlns:serif="http://www.serif.com/" style="fill-rule:evenodd;clip-rule:evenodd;stroke-linejoin:round;stroke-miterlimit:1.41421;"><rect id="vowels-long" x="0" y="-800" width="300" height="900" style="fill:none;"/><path d="M53.589,58.876c0,2.496 -1.128,4.344 -3.384,5.544c-1.824,1.008 -4.176,1.512 -7.056,1.512c-2.88,0 -5.208,-0.504 -6.984,-1.512c-2.16,-1.2 -3.24,-3.048 -3.24,-5.544l0,-7.272c0,-1.728 0.48,-3.18 1.44,-4.356c0.96,-1.176 2.328,-1.764 4.104,-1.764c1.536,0 2.832,0.516 3.888,1.548c1.056,1.032 1.584,2.316 1.584,3.852c0,1.488 -0.528,2.76 -1.584,3.816c-1.056,1.056 -2.352,1.584 -3.888,1.584c-0.432,0 -0.792,-0.048 -1.08,-0.144l0,2.232c0,2.496 1.944,3.744 5.832,3.744c3.936,0 5.904,-1.272 5.904,-3.816l0,-13.824c0,-1.584 -0.744,-2.784 -2.232,-3.6c-1.248,-0.672 -2.784,-1.008 -4.608,-1.008c-4.56,0 -7.032,1.176 -7.416,3.528l-4.32,0c0.624,-4.848 4.416,-7.296 11.376,-7.344c3.216,0 5.856,0.6 7.92,1.8c2.496,1.536 3.744,3.84 3.744,6.912l0,14.112Zm-12.672,-7.992c0,-0.672 -0.24,-1.248 -0.72,-1.728c-0.48,-0.48 -1.056,-0.72 -1.728,-0.72c-0.672,0 -1.248,0.24 -1.728,0.72c-0.48,0.48 -0.72,1.056 -0.72,1.728c0,0.672 0.24,1.248 0.72,1.728c0.48,0.48 1.056,0.72 1.728,0.72c0.672,0 1.248,-0.24 1.728,-0.72c0.48,-0.48 0.72,-1.056 0.72,-1.728Z" style="fill:#ababab;fill-rule:nonzero;"/><path d="M53.589,78.46c0,1.584 -0.672,2.784 -2.016,3.6c-1.152,0.72 -2.664,1.08 -4.536,1.08c-1.632,0 -3.048,-0.336 -4.248,-1.008c-1.344,-0.768 -2.016,-1.824 -2.016,-3.168l0,-2.16l-0.432,0c-1.2,0 -2.22,-0.42 -3.06,-1.26c-0.84,-0.84 -1.26,-1.836 -1.26,-2.988c0,-1.2 0.42,-2.232 1.26,-3.096c0.84,-0.864 1.884,-1.296 3.132,-1.296c1.2,0 2.256,0.384 3.168,1.152c0.912,0.768 1.368,1.824 1.368,3.168l0,6.48c0,0.72 0.72,1.08 2.16,1.08c1.536,0 2.304,-0.36 2.304,-1.08l0,-10.152l4.176,0l0,9.648Zm-11.16,-6.12c0,-0.528 -0.192,-0.984 -0.576,-1.368c-0.384,-0.384 -0.84,-0.576 -1.368,-0.576c-0.528,0 -0.996,0.192 -1.404,0.576c-0.408,0.384 -0.612,0.84 -0.612,1.368c0,0.528 0.204,0.996 0.612,1.404c0.408,0.408 0.876,0.612 1.404,0.612c0.528,0 0.984,-0.204 1.368,-0.612c0.384,-0.408 0.576,-0.876 0.576,-1.404Z" style="fill-rule:nonzero;"/><rect x="58.197" y="50.164" width="14.4" height="3.888" style="fill:#ababab;fill-rule:nonzero;"/></svg>