<?xml version="1.0" encoding="UTF-8" standalone="no"?><!DOCTYPE svg PUBLIC "-//W3C//DTD SVG 1.1//EN" "http://www.w3.org/Graphics/SVG/1.1/DTD/svg11.dtd"><svg width="100%" height="100%" viewBox="0 0 100 100" version="1.1" xmlns="http://www.w3.org/2000/svg" xmlns:xlink="http://www.w3.org/1999/xlink" xml:space="preserve" xmlns:serif="http://www.serif.com/" style="fill-rule:evenodd;clip-rule:evenodd;stroke-linejoin:round;stroke-miterlimit:1.41421;"><rect id="vowels-long" x="0" y="0" width="300" height="900" style="fill:none;"/><path d="M59.684,70.475l-4.464,0l0,-20.952c0,-1.344 -0.456,-2.436 -1.368,-3.276c-0.912,-0.84 -2.16,-1.26 -3.744,-1.26c-1.584,0 -2.88,0.528 -3.888,1.584c-1.008,1.056 -1.536,2.4 -1.584,4.032l-4.32,0c0.144,-2.88 1.092,-5.172 2.844,-6.876c1.752,-1.704 4.068,-2.556 6.948,-2.556c2.688,0 4.956,0.684 6.804,2.052c1.848,1.368 2.772,3.444 2.772,6.228l0,21.024Z" style="fill-rule:nonzero;"/></svg>