<?xml version="1.0" encoding="UTF-8" standalone="no"?><!DOCTYPE svg PUBLIC "-//W3C//DTD SVG 1.1//EN" "http://www.w3.org/Graphics/SVG/1.1/DTD/svg11.dtd"><svg width="100%" height="100%" viewBox="0 0 100 100" version="1.1" xmlns="http://www.w3.org/2000/svg" xmlns:xlink="http://www.w3.org/1999/xlink" xml:space="preserve" xmlns:serif="http://www.serif.com/" style="fill-rule:evenodd;clip-rule:evenodd;stroke-linejoin:round;stroke-miterlimit:1.41421;"><rect id="vowels-short" x="0" y="-500" width="300" height="900" style="fill:none;"/><path d="M40.025,65.579c0,1.536 -0.54,2.832 -1.62,3.888c-1.08,1.056 -2.364,1.584 -3.852,1.584c-1.632,0 -3,-0.552 -4.104,-1.656c-1.104,-1.104 -1.656,-2.496 -1.656,-4.176l0,-28.584c-0.24,-1.632 -1.44,-2.952 -3.6,-3.96c-1.776,-0.816 -3.576,-1.224 -5.4,-1.224c0.24,-5.472 2.688,-8.208 7.344,-8.208c1.248,0 2.652,0.396 4.212,1.188c1.56,0.792 2.652,1.188 3.276,1.188c0.528,0 1.056,-0.72 1.584,-2.16l3.312,0.864c-0.912,3.264 -2.352,4.896 -4.32,4.896c-0.912,0 -2.208,-0.396 -3.888,-1.188c-1.68,-0.792 -3.072,-1.188 -4.176,-1.188c-1.68,0 -2.784,0.6 -3.312,1.8c6.288,1.632 9.432,4.416 9.432,8.352l0,23.256c0.24,-0.096 0.672,-0.144 1.296,-0.144c1.488,0 2.772,0.528 3.852,1.584c1.08,1.056 1.62,2.352 1.62,3.888Zm-3.024,0c0,-0.672 -0.24,-1.248 -0.72,-1.728c-0.48,-0.48 -1.056,-0.72 -1.728,-0.72c-0.672,0 -1.248,0.24 -1.728,0.72c-0.48,0.48 -0.72,1.056 -0.72,1.728c0,0.672 0.24,1.248 0.72,1.728c0.48,0.48 1.056,0.72 1.728,0.72c0.672,0 1.248,-0.24 1.728,-0.72c0.48,-0.48 0.72,-1.056 0.72,-1.728Z" style="fill-rule:nonzero;"/><rect x="41.249" y="55.283" width="14.4" height="3.888" style="fill:#ababab;fill-rule:nonzero;"/><path d="M78.329,41.891c-0.24,7.632 -3.816,11.448 -10.728,11.448c-2.88,0 -5.088,-0.588 -6.624,-1.764c-1.536,-1.176 -2.304,-2.676 -2.304,-4.5c0,-1.392 0.48,-2.568 1.44,-3.528c0.96,-0.96 2.136,-1.44 3.528,-1.44c1.488,0 2.7,0.492 3.636,1.476c0.936,0.984 1.404,2.148 1.404,3.492c0,1.296 -0.36,2.256 -1.08,2.88c4.464,-0.192 6.696,-2.88 6.696,-8.064l4.032,0Zm-12.528,5.184c0,-0.624 -0.216,-1.152 -0.648,-1.584c-0.432,-0.432 -0.96,-0.648 -1.584,-0.648c-0.624,0 -1.14,0.216 -1.548,0.648c-0.408,0.432 -0.612,0.96 -0.612,1.584c0,0.624 0.204,1.14 0.612,1.548c0.408,0.408 0.924,0.612 1.548,0.612c0.624,0 1.152,-0.204 1.584,-0.612c0.432,-0.408 0.648,-0.924 0.648,-1.548Zm12.528,11.16c-0.24,7.632 -3.816,11.448 -10.728,11.448c-2.88,0 -5.088,-0.588 -6.624,-1.764c-1.536,-1.176 -2.304,-2.676 -2.304,-4.5c0,-1.392 0.48,-2.568 1.44,-3.528c0.96,-0.96 2.136,-1.44 3.528,-1.44c1.488,0 2.7,0.492 3.636,1.476c0.936,0.984 1.404,2.148 1.404,3.492c0,1.296 -0.36,2.256 -1.08,2.88c4.464,-0.192 6.696,-2.88 6.696,-8.064l4.032,0Zm-12.528,5.184c0,-0.624 -0.216,-1.152 -0.648,-1.584c-0.432,-0.432 -0.96,-0.648 -1.584,-0.648c-0.624,0 -1.14,0.216 -1.548,0.648c-0.408,0.432 -0.612,0.96 -0.612,1.584c0,0.624 0.204,1.14 0.612,1.548c0.408,0.408 0.924,0.612 1.548,0.612c0.624,0 1.152,-0.204 1.584,-0.612c0.432,-0.408 0.648,-0.924 0.648,-1.548Z" style="fill-rule:nonzero;"/></svg>