<?xml version="1.0" encoding="UTF-8" standalone="no"?><!DOCTYPE svg PUBLIC "-//W3C//DTD SVG 1.1//EN" "http://www.w3.org/Graphics/SVG/1.1/DTD/svg11.dtd"><svg width="100%" height="100%" viewBox="0 0 100 100" version="1.1" xmlns="http://www.w3.org/2000/svg" xmlns:xlink="http://www.w3.org/1999/xlink" xml:space="preserve" xmlns:serif="http://www.serif.com/" style="fill-rule:evenodd;clip-rule:evenodd;stroke-linejoin:round;stroke-miterlimit:1.41421;"><rect id="vowels-short" x="0" y="0" width="300" height="900" style="fill:none;"/><path d="M53.993,63.995c0,2.496 -1.128,4.344 -3.384,5.544c-1.824,1.008 -4.176,1.512 -7.056,1.512c-2.88,0 -5.208,-0.504 -6.984,-1.512c-2.16,-1.2 -3.24,-3.048 -3.24,-5.544l0,-7.272c0,-1.728 0.48,-3.18 1.44,-4.356c0.96,-1.176 2.328,-1.764 4.104,-1.764c1.536,0 2.832,0.516 3.888,1.548c1.056,1.032 1.584,2.316 1.584,3.852c0,1.488 -0.528,2.76 -1.584,3.816c-1.056,1.056 -2.352,1.584 -3.888,1.584c-0.432,0 -0.792,-0.048 -1.08,-0.144l0,2.232c0,2.496 1.944,3.744 5.832,3.744c3.936,0 5.904,-1.272 5.904,-3.816l0,-13.824c0,-1.584 -0.744,-2.784 -2.232,-3.6c-1.248,-0.672 -2.784,-1.008 -4.608,-1.008c-4.56,0 -7.032,1.176 -7.416,3.528l-4.32,0c0.624,-4.848 4.416,-7.296 11.376,-7.344c3.216,0 5.856,0.6 7.92,1.8c2.496,1.536 3.744,3.84 3.744,6.912l0,14.112Zm-12.672,-7.992c0,-0.672 -0.24,-1.248 -0.72,-1.728c-0.48,-0.48 -1.056,-0.72 -1.728,-0.72c-0.672,0 -1.248,0.24 -1.728,0.72c-0.48,0.48 -0.72,1.056 -0.72,1.728c0,0.672 0.24,1.248 0.72,1.728c0.48,0.48 1.056,0.72 1.728,0.72c0.672,0 1.248,-0.24 1.728,-0.72c0.48,-0.48 0.72,-1.056 0.72,-1.728Z" style="fill:#ababab;fill-rule:nonzero;"/><path d="M61.265,24.179c-1.248,7.968 -5.568,11.952 -12.96,11.952c-2.88,0 -5.088,-0.588 -6.624,-1.764c-1.536,-1.176 -2.304,-2.676 -2.304,-4.5c0,-1.392 0.48,-2.568 1.44,-3.528c0.96,-0.96 2.136,-1.44 3.528,-1.44c1.488,0 2.7,0.492 3.636,1.476c0.936,0.984 1.404,2.148 1.404,3.492c0,1.296 -0.36,2.256 -1.08,2.88c4.992,-0.192 7.896,-3.048 8.712,-8.568l4.248,0Zm-14.76,5.688c0,-0.624 -0.216,-1.152 -0.648,-1.584c-0.432,-0.432 -0.96,-0.648 -1.584,-0.648c-0.624,0 -1.14,0.216 -1.548,0.648c-0.408,0.432 -0.612,0.96 -0.612,1.584c0,0.624 0.204,1.14 0.612,1.548c0.408,0.408 0.924,0.612 1.548,0.612c0.624,0 1.152,-0.204 1.584,-0.612c0.432,-0.408 0.648,-0.924 0.648,-1.548Z" style="fill-rule:nonzero;"/><rect x="58.601" y="55.283" width="14.4" height="3.888" style="fill:#ababab;fill-rule:nonzero;"/></svg>