<?xml version="1.0" encoding="UTF-8" standalone="no"?><!DOCTYPE svg PUBLIC "-//W3C//DTD SVG 1.1//EN" "http://www.w3.org/Graphics/SVG/1.1/DTD/svg11.dtd"><svg width="100%" height="100%" viewBox="0 0 100 100" version="1.1" xmlns="http://www.w3.org/2000/svg" xmlns:xlink="http://www.w3.org/1999/xlink" xml:space="preserve" xmlns:serif="http://www.serif.com/" style="fill-rule:evenodd;clip-rule:evenodd;stroke-linejoin:round;stroke-miterlimit:1.41421;"><rect id="vowels-short" x="-100" y="0" width="300" height="900" style="fill:none;"/><rect x="12.593" y="55.283" width="14.4" height="3.888" style="fill:#ababab;fill-rule:nonzero;"/><path d="M47.441,65.651c0,1.536 -0.54,2.82 -1.62,3.852c-1.08,1.032 -2.388,1.548 -3.924,1.548c-1.536,0 -2.844,-0.528 -3.924,-1.584c-1.08,-1.056 -1.62,-2.352 -1.62,-3.888c0,-1.536 0.54,-2.832 1.62,-3.888c1.08,-1.056 2.388,-1.584 3.924,-1.584c0.576,0 0.936,0.024 1.08,0.072l0,-6.192c0,-0.768 -1.596,-1.524 -4.788,-2.268c-3.192,-0.744 -6.084,-1.332 -8.676,-1.764c0.096,-2.64 0.792,-4.764 2.088,-6.372c1.296,-1.608 3.168,-2.412 5.616,-2.412c1.008,0 2.388,0.228 4.14,0.684c1.752,0.456 3.012,0.684 3.78,0.684c0.816,0 1.272,-0.528 1.368,-1.584l3.528,0.936c-0.864,2.928 -2.448,4.392 -4.752,4.392c-0.864,0 -2.1,-0.216 -3.708,-0.648c-1.608,-0.432 -2.82,-0.648 -3.636,-0.648c-2.112,0 -3.312,0.816 -3.6,2.448c3.696,0.768 6.804,1.584 9.324,2.448c2.52,0.864 3.78,2.352 3.78,4.464l0,11.304Zm-3.096,-0.072c0,-0.672 -0.24,-1.248 -0.72,-1.728c-0.48,-0.48 -1.056,-0.72 -1.728,-0.72c-0.672,0 -1.248,0.24 -1.728,0.72c-0.48,0.48 -0.72,1.056 -0.72,1.728c0,0.672 0.24,1.248 0.72,1.728c0.48,0.48 1.056,0.72 1.728,0.72c0.672,0 1.248,-0.24 1.728,-0.72c0.48,-0.48 0.72,-1.056 0.72,-1.728Z" style="fill-rule:nonzero;"/><path d="M71.129,65.651c0,1.536 -0.54,2.82 -1.62,3.852c-1.08,1.032 -2.388,1.548 -3.924,1.548c-1.536,0 -2.844,-0.528 -3.924,-1.584c-1.08,-1.056 -1.62,-2.352 -1.62,-3.888c0,-1.536 0.54,-2.832 1.62,-3.888c1.08,-1.056 2.388,-1.584 3.924,-1.584c0.576,0 0.936,0.024 1.08,0.072l0,-6.192c0,-0.768 -1.596,-1.524 -4.788,-2.268c-3.192,-0.744 -6.084,-1.332 -8.676,-1.764c0.096,-2.64 0.792,-4.764 2.088,-6.372c1.296,-1.608 3.168,-2.412 5.616,-2.412c1.008,0 2.388,0.228 4.14,0.684c1.752,0.456 3.012,0.684 3.78,0.684c0.816,0 1.272,-0.528 1.368,-1.584l3.528,0.936c-0.864,2.928 -2.448,4.392 -4.752,4.392c-0.864,0 -2.1,-0.216 -3.708,-0.648c-1.608,-0.432 -2.82,-0.648 -3.636,-0.648c-2.112,0 -3.312,0.816 -3.6,2.448c3.696,0.768 6.804,1.584 9.324,2.448c2.52,0.864 3.78,2.352 3.78,4.464l0,11.304Zm-3.096,-0.072c0,-0.672 -0.24,-1.248 -0.72,-1.728c-0.48,-0.48 -1.056,-0.72 -1.728,-0.72c-0.672,0 -1.248,0.24 -1.728,0.72c-0.48,0.48 -0.72,1.056 -0.72,1.728c0,0.672 0.24,1.248 0.72,1.728c0.48,0.48 1.056,0.72 1.728,0.72c0.672,0 1.248,-0.24 1.728,-0.72c0.48,-0.48 0.72,-1.056 0.72,-1.728Z" style="fill-rule:nonzero;"/><rect x="76.241" y="55.283" width="14.4" height="3.888" style="fill:#ababab;fill-rule:nonzero;"/></svg>