<?xml version="1.0" encoding="UTF-8" standalone="no"?><!DOCTYPE svg PUBLIC "-//W3C//DTD SVG 1.1//EN" "http://www.w3.org/Graphics/SVG/1.1/DTD/svg11.dtd"><svg width="100%" height="100%" viewBox="0 0 100 100" version="1.1" xmlns="http://www.w3.org/2000/svg" xmlns:xlink="http://www.w3.org/1999/xlink" xml:space="preserve" xmlns:serif="http://www.serif.com/" style="fill-rule:evenodd;clip-rule:evenodd;stroke-linejoin:round;stroke-miterlimit:1.41421;"><rect id="vowels-short" x="0" y="-200" width="300" height="900" style="fill:none;"/><path d="M39.809,63.995c0,2.496 -1.128,4.344 -3.384,5.544c-1.824,1.008 -4.176,1.512 -7.056,1.512c-2.88,0 -5.208,-0.504 -6.984,-1.512c-2.16,-1.2 -3.24,-3.048 -3.24,-5.544l0,-7.272c0,-1.728 0.48,-3.18 1.44,-4.356c0.96,-1.176 2.328,-1.764 4.104,-1.764c1.536,0 2.832,0.516 3.888,1.548c1.056,1.032 1.584,2.316 1.584,3.852c0,1.488 -0.528,2.76 -1.584,3.816c-1.056,1.056 -2.352,1.584 -3.888,1.584c-0.432,0 -0.792,-0.048 -1.08,-0.144l0,2.232c0,2.496 1.944,3.744 5.832,3.744c3.936,0 5.904,-1.272 5.904,-3.816l0,-13.824c0,-1.584 -0.744,-2.784 -2.232,-3.6c-1.248,-0.672 -2.784,-1.008 -4.608,-1.008c-4.56,0 -7.032,1.176 -7.416,3.528l-4.32,0c0.624,-4.848 4.416,-7.296 11.376,-7.344c3.216,0 5.856,0.6 7.92,1.8c2.496,1.536 3.744,3.84 3.744,6.912l0,14.112Zm-12.672,-7.992c0,-0.672 -0.24,-1.248 -0.72,-1.728c-0.48,-0.48 -1.056,-0.72 -1.728,-0.72c-0.672,0 -1.248,0.24 -1.728,0.72c-0.48,0.48 -0.72,1.056 -0.72,1.728c0,0.672 0.24,1.248 0.72,1.728c0.48,0.48 1.056,0.72 1.728,0.72c0.672,0 1.248,-0.24 1.728,-0.72c0.48,-0.48 0.72,-1.056 0.72,-1.728Z" style="fill:#ababab;fill-rule:nonzero;"/><path d="M38.945,32.963c0,1.008 -0.36,1.884 -1.08,2.628c-0.72,0.744 -1.608,1.116 -2.664,1.116c-2.352,0 -5.04,-1.008 -8.064,-3.024c-0.624,0.192 -1.308,0.66 -2.052,1.404c-0.744,0.744 -1.164,1.404 -1.26,1.98c-2.544,-1.68 -3.816,-3.72 -3.816,-6.12c0,-1.872 0.744,-3.336 2.232,-4.392c1.296,-0.96 2.976,-1.44 5.04,-1.44l4.896,0c2.352,0 3.528,-1.056 3.528,-3.168l0,-1.656l3.456,0l0,1.584c0,1.968 -0.648,3.48 -1.944,4.536c-1.296,1.056 -2.952,1.584 -4.968,1.584l-5.256,0c-0.768,0 -1.464,0.252 -2.088,0.756c-0.624,0.504 -0.936,1.164 -0.936,1.98c0,0.768 0.144,1.392 0.432,1.872c0.72,-1.104 1.8,-1.704 3.24,-1.8c1.104,0.72 2.424,1.344 3.96,1.872c0,-0.96 0.372,-1.776 1.116,-2.448c0.744,-0.672 1.572,-1.008 2.484,-1.008c1.056,0 1.944,0.372 2.664,1.116c0.72,0.744 1.08,1.62 1.08,2.628Zm-2.16,0c0,-0.432 -0.156,-0.804 -0.468,-1.116c-0.312,-0.312 -0.684,-0.468 -1.116,-0.468c-0.432,0 -0.804,0.156 -1.116,0.468c-0.312,0.312 -0.468,0.684 -0.468,1.116c0,0.432 0.156,0.804 0.468,1.116c0.312,0.312 0.684,0.468 1.116,0.468c0.432,0 0.804,-0.156 1.116,-0.468c0.312,-0.312 0.468,-0.684 0.468,-1.116Z" style="fill-rule:nonzero;"/><path d="M68.177,63.995c0,2.496 -1.128,4.344 -3.384,5.544c-1.824,1.008 -4.176,1.512 -7.056,1.512c-2.88,0 -5.208,-0.504 -6.984,-1.512c-2.16,-1.2 -3.24,-3.048 -3.24,-5.544l0,-7.272c0,-1.728 0.48,-3.18 1.44,-4.356c0.96,-1.176 2.328,-1.764 4.104,-1.764c1.536,0 2.832,0.516 3.888,1.548c1.056,1.032 1.584,2.316 1.584,3.852c0,1.488 -0.528,2.76 -1.584,3.816c-1.056,1.056 -2.352,1.584 -3.888,1.584c-0.432,0 -0.792,-0.048 -1.08,-0.144l0,2.232c0,2.496 1.944,3.744 5.832,3.744c3.936,0 5.904,-1.272 5.904,-3.816l0,-13.824c0,-1.584 -0.744,-2.784 -2.232,-3.6c-1.248,-0.672 -2.784,-1.008 -4.608,-1.008c-4.56,0 -7.032,1.176 -7.416,3.528l-4.32,0c0.624,-4.848 4.416,-7.296 11.376,-7.344c3.216,0 5.856,0.6 7.92,1.8c2.496,1.536 3.744,3.84 3.744,6.912l0,14.112Zm-12.672,-7.992c0,-0.672 -0.24,-1.248 -0.72,-1.728c-0.48,-0.48 -1.056,-0.72 -1.728,-0.72c-0.672,0 -1.248,0.24 -1.728,0.72c-0.48,0.48 -0.72,1.056 -0.72,1.728c0,0.672 0.24,1.248 0.72,1.728c0.48,0.48 1.056,0.72 1.728,0.72c0.672,0 1.248,-0.24 1.728,-0.72c0.48,-0.48 0.72,-1.056 0.72,-1.728Z" style="fill-rule:nonzero;"/><rect x="72.785" y="55.283" width="14.4" height="3.888" style="fill:#ababab;fill-rule:nonzero;"/></svg>