<?xml version="1.0" encoding="UTF-8" standalone="no"?><!DOCTYPE svg PUBLIC "-//W3C//DTD SVG 1.1//EN" "http://www.w3.org/Graphics/SVG/1.1/DTD/svg11.dtd"><svg width="100%" height="100%" viewBox="0 0 100 100" version="1.1" xmlns="http://www.w3.org/2000/svg" xmlns:xlink="http://www.w3.org/1999/xlink" xml:space="preserve" xmlns:serif="http://www.serif.com/" style="fill-rule:evenodd;clip-rule:evenodd;stroke-linejoin:round;stroke-miterlimit:1.41421;"><rect id="vowels-short" x="0" y="-100" width="300" height="900" style="fill:none;"/><path d="M43.949,65.579c0,1.536 -0.54,2.832 -1.62,3.888c-1.08,1.056 -2.364,1.584 -3.852,1.584c-1.632,0 -3,-0.552 -4.104,-1.656c-1.104,-1.104 -1.656,-2.496 -1.656,-4.176l0,-23.472l4.464,0l0,18.504c0.24,-0.096 0.672,-0.144 1.296,-0.144c1.488,0 2.772,0.528 3.852,1.584c1.08,1.056 1.62,2.352 1.62,3.888Zm13.464,0c0,1.536 -0.54,2.832 -1.62,3.888c-1.08,1.056 -2.364,1.584 -3.852,1.584c-1.632,0 -3,-0.552 -4.104,-1.656c-1.104,-1.104 -1.656,-2.496 -1.656,-4.176l0,-23.472l4.464,0l0,18.504c0.24,-0.096 0.672,-0.144 1.296,-0.144c1.488,0 2.772,0.528 3.852,1.584c1.08,1.056 1.62,2.352 1.62,3.888Zm-16.488,0c0,-0.672 -0.24,-1.248 -0.72,-1.728c-0.48,-0.48 -1.056,-0.72 -1.728,-0.72c-0.672,0 -1.248,0.24 -1.728,0.72c-0.48,0.48 -0.72,1.056 -0.72,1.728c0,0.672 0.24,1.248 0.72,1.728c0.48,0.48 1.056,0.72 1.728,0.72c0.672,0 1.248,-0.24 1.728,-0.72c0.48,-0.48 0.72,-1.056 0.72,-1.728Zm13.464,0c0,-0.672 -0.24,-1.248 -0.72,-1.728c-0.48,-0.48 -1.056,-0.72 -1.728,-0.72c-0.672,0 -1.248,0.24 -1.728,0.72c-0.48,0.48 -0.72,1.056 -0.72,1.728c0,0.672 0.24,1.248 0.72,1.728c0.48,0.48 1.056,0.72 1.728,0.72c0.672,0 1.248,-0.24 1.728,-0.72c0.48,-0.48 0.72,-1.056 0.72,-1.728Z" style="fill-rule:nonzero;"/><path d="M53.165,32.963c0,1.008 -0.36,1.884 -1.08,2.628c-0.72,0.744 -1.608,1.116 -2.664,1.116c-2.352,0 -5.04,-1.008 -8.064,-3.024c-0.624,0.192 -1.308,0.66 -2.052,1.404c-0.744,0.744 -1.164,1.404 -1.26,1.98c-2.544,-1.68 -3.816,-3.72 -3.816,-6.12c0,-1.872 0.744,-3.336 2.232,-4.392c1.296,-0.96 2.976,-1.44 5.04,-1.44l4.896,0c2.352,0 3.528,-1.056 3.528,-3.168l0,-1.656l3.456,0l0,1.584c0,1.968 -0.648,3.48 -1.944,4.536c-1.296,1.056 -2.952,1.584 -4.968,1.584l-5.256,0c-0.768,0 -1.464,0.252 -2.088,0.756c-0.624,0.504 -0.936,1.164 -0.936,1.98c0,0.768 0.144,1.392 0.432,1.872c0.72,-1.104 1.8,-1.704 3.24,-1.8c1.104,0.72 2.424,1.344 3.96,1.872c0,-0.96 0.372,-1.776 1.116,-2.448c0.744,-0.672 1.572,-1.008 2.484,-1.008c1.056,0 1.944,0.372 2.664,1.116c0.72,0.744 1.08,1.62 1.08,2.628Zm-2.16,0c0,-0.432 -0.156,-0.804 -0.468,-1.116c-0.312,-0.312 -0.684,-0.468 -1.116,-0.468c-0.432,0 -0.804,0.156 -1.116,0.468c-0.312,0.312 -0.468,0.684 -0.468,1.116c0,0.432 0.156,0.804 0.468,1.116c0.312,0.312 0.684,0.468 1.116,0.468c0.432,0 0.804,-0.156 1.116,-0.468c0.312,-0.312 0.468,-0.684 0.468,-1.116Z" style="fill-rule:nonzero;"/><rect x="58.637" y="55.283" width="14.4" height="3.888" style="fill:#ababab;fill-rule:nonzero;"/></svg>