<?xml version="1.0" encoding="UTF-8" standalone="no"?><!DOCTYPE svg PUBLIC "-//W3C//DTD SVG 1.1//EN" "http://www.w3.org/Graphics/SVG/1.1/DTD/svg11.dtd"><svg width="100%" height="100%" viewBox="0 0 1024 1024" version="1.1" xmlns="http://www.w3.org/2000/svg" xmlns:xlink="http://www.w3.org/1999/xlink" xml:space="preserve" xmlns:serif="http://www.serif.com/" style="fill-rule:evenodd;clip-rule:evenodd;stroke-linejoin:round;stroke-miterlimit:1.41421;"><rect id="ios" x="0" y="0" width="1024" height="1024" style="fill:none;"/><clipPath id="_clip1"><rect x="0" y="0" width="1024" height="1024"/></clipPath><g clip-path="url(#_clip1)"><path d="M1024,179.649c0,-99.151 -80.498,-179.649 -179.649,-179.649l-664.702,0c-99.151,0 -179.649,80.498 -179.649,179.649l0,664.702c0,99.151 80.498,179.649 179.649,179.649l664.702,0c99.151,0 179.649,-80.498 179.649,-179.649l0,-664.702Z" style="fill:#54009d;"/><path d="M310.913,541.973c23.314,0 34.971,-11.657 34.971,-34.971c0,-23.314 -11.657,-34.971 -34.971,-34.971c-23.314,0 -34.971,11.657 -34.971,34.971c0,23.314 11.657,34.971 34.971,34.971Zm568.284,-28.726c-16.653,9.159 -33.723,13.739 -51.208,13.739c-27.478,0 -51.625,-10.408 -72.441,-31.225c-4.996,39.967 -16.653,62.865 -34.971,68.694c-7.494,0 -15.821,-13.739 -24.98,-41.216c-11.657,-34.972 -20.4,-55.371 -26.228,-61.2c0,76.604 -11.241,114.906 -33.723,114.906c-4.995,0 -12.073,-14.988 -21.232,-44.963c-9.992,-33.306 -18.735,-54.539 -26.229,-63.698c-4.995,81.6 -20.816,122.399 -47.461,122.399c-4.996,0 -12.073,-16.236 -21.232,-48.71c-11.657,-41.632 -20.4,-66.195 -26.229,-73.689c0,159.036 -62.032,238.554 -186.097,238.554c-51.624,0 -92.424,-17.902 -122.399,-53.706c-29.976,-35.804 -44.964,-84.098 -44.964,-144.881c0,-62.449 12.907,-110.742 38.719,-144.881c25.812,-34.139 62.032,-51.208 108.66,-51.208c37.47,0 67.029,11.449 88.678,34.347c21.649,22.898 32.473,54.33 32.473,94.297c0,35.804 -7.077,65.78 -21.233,89.927c-17.485,29.975 -42.881,44.963 -76.187,44.963c-18.318,0 -34.139,-6.87 -47.461,-20.608c-13.322,-13.739 -19.984,-29.768 -19.984,-48.086c0,-19.151 6.453,-35.388 19.359,-48.71c12.907,-13.322 28.935,-19.984 48.086,-19.984c21.649,0 39.551,8.327 53.706,24.98l0,-2.498l2.498,-29.975c4.163,-53.29 -21.233,-79.935 -76.188,-79.935c-34.138,0 -60.367,14.572 -78.685,43.714c-18.318,29.143 -27.477,69.11 -27.477,119.902c0,45.796 11.448,82.432 34.346,109.91c22.898,27.477 52.249,41.216 88.053,41.216c49.126,0 86.804,-17.902 113.032,-53.706c26.229,-35.804 39.343,-86.596 39.343,-152.375c0,-25.812 -1.249,-45.379 -3.747,-58.702c46.628,9.159 77.853,53.29 93.673,132.392c7.494,-24.147 11.241,-47.462 11.241,-69.943c0,-15.82 -3.331,-35.804 -9.992,-59.951c34.971,9.992 65.363,46.212 91.175,108.661c4.164,-20.816 6.245,-36.22 6.245,-46.212c0,-7.494 -2.081,-22.898 -6.245,-46.212c35.804,9.992 62.449,44.963 79.935,104.914c8.326,-10.825 12.489,-25.396 12.489,-43.714c0,-9.992 -1.249,-21.233 -3.746,-33.723c4.163,0.833 22.065,12.49 53.705,34.972c28.311,20.816 57.87,31.224 88.678,31.224l6.245,0Z" style="fill:#fff;fill-rule:nonzero;"/></g></svg>